<?xml version="1.0" standalone="no"?>
<!DOCTYPE svg PUBLIC "-//W3C//DTD SVG 1.1//EN" "http://www.w3.org/Graphics/SVG/1.1/DTD/svg11.dtd" >
<svg>
<metadata>
Created by FontForge 20110222 at Tue Mar 18 07:09:56 2014
 By Orthosie Webhosting
Copyright (C) 2000, 2012 Hoefler &#38; Frere-Jones. http://www.typography.com
</metadata>
<defs>
<font id="LandmarkInline" horiz-adv-x="842" >
  <font-face 
    font-family="LandmarkInline"
    font-weight="325"
    font-stretch="normal"
    units-per-em="1000"
    panose-1="0 0 0 0 0 0 0 0 0 0"
    ascent="800"
    descent="-200"
    x-height="720"
    cap-height="720"
    bbox="-25 -273 1363 1032"
    underline-thickness="50"
    underline-position="-50"
    unicode-range="U+0020-FB04"
  />
<missing-glyph horiz-adv-x="510" 
d="M5 -200v1000h500v-1000h-500zM76 750l179 -390l179 390h-358zM55 -76l172 376l-172 376v-752zM455 676l-172 -376l172 -376v752zM255 240l-179 -390h358z" />
    <glyph glyph-name=".notdef" horiz-adv-x="510" 
d="M5 -200v1000h500v-1000h-500zM76 750l179 -390l179 390h-358zM55 -76l172 376l-172 376v-752zM455 676l-172 -376l172 -376v752zM255 240l-179 -390h358z" />
    <glyph glyph-name=".null" horiz-adv-x="0" 
 />
    <glyph glyph-name="nonmarkingreturn" horiz-adv-x="333" 
 />
    <glyph glyph-name="space" unicode=" " horiz-adv-x="260" 
 />
    <glyph glyph-name="exclam" unicode="!" horiz-adv-x="293" 
d="M189 207h-26l7 513h32zM104 207l-12 513h32l6 -513h-26zM186 48q0 17 -10.5 28.5t-28.5 11.5t-28.5 -11.5t-10.5 -28.5t10.5 -28t28.5 -11t28.5 11t10.5 28zM214 48q0 -28 -19.5 -47t-47.5 -19t-47.5 19t-19.5 47t19.5 47.5t47.5 19.5t47.5 -19.5t19.5 -47.5z" />
    <glyph glyph-name="quotedbl" unicode="&#x22;" horiz-adv-x="371" 
d="M127 491h-24l20 229h33zM53 720h31l-12 -229h-23zM291 491h-24l20 229h33zM216 720h32l-12 -229h-23z" />
    <glyph glyph-name="numbersign" unicode="#" horiz-adv-x="695" 
d="M217 250l46 234h216l-45 -234h-217zM194 -17h-29l46 234h216l-46 -234h-28l40 206h-159q-8 -42 -23.5 -121t-16.5 -85zM462 545l38 192h29l-43 -220h-217l44 220h28l-38 -192h159zM192 456h-102v28h136l-45 -234h-136v28h112zM604 278v-28h-133l45 234h133v-28h-110
l-35 -178h100zM286 456l-36 -178h160l35 178h-159zM447 -17h-29l46 234h140v-28h-117q-8 -42 -23.5 -121t-16.5 -85zM210 545l37 192h29l-43 -220h-143v28h120zM140 189h-95v28h129l-46 -234h-28zM649 545v-28h-126l43 220h29l-38 -192h92z" />
    <glyph glyph-name="dollar" unicode="$" horiz-adv-x="482" 
d="M224 697l9 93l31 -3l-11 -118q-70 -1 -112 -39.5t-42 -93.5q0 -43 26 -79t104 -83q80 -49 109 -84.5t29 -82.5q0 -55 -42.5 -91t-109.5 -36q-77 0 -160 43l8 30q80 -42 153 -42q54 0 87 27.5t33 68.5q0 38 -25.5 68t-99.5 75q-82 49 -112 92t-30 94q0 60 41.5 106
t113.5 55zM146 -82l11 106q-55 9 -120 39l8 30q72 -39 145 -44l-13 -133zM253 22l-11 -110l-31 1l13 135q80 3 129 49t49 112q0 58 -33.5 99t-117.5 91q-67 40 -92 71t-25 67q0 42 31.5 71.5t90.5 29.5q67 0 136 -39l-9 -31q-67 41 -128 41q-42 0 -66 -20t-24 -52
q0 -28 20.5 -51.5t79.5 -60.5q92 -57 129 -102.5t37 -113.5q0 -71 -47.5 -124t-130.5 -63zM328 781l-10 -89q48 -9 90 -34l-7 -30q-55 33 -116 40l13 116z" />
    <glyph glyph-name="percent" unicode="%" horiz-adv-x="740" 
d="M125 -9l-33 5l520 733l33 -5zM344 552q0 -74 -43 -126.5t-110 -52.5q-66 0 -108 51.5t-42 125.5t43 127t109 53t108.5 -52t42.5 -126zM253 550q0 40 -16.5 67t-44.5 27t-44.5 -26.5t-16.5 -65.5q0 -40 16.5 -66.5t44.5 -26.5t44.5 26.5t16.5 64.5zM282 550
q0 -51 -25.5 -85t-64.5 -34t-64 34.5t-25 86.5t25 86t64 34t64.5 -35t25.5 -87zM315 552q0 66 -34 108.5t-88 42.5t-89 -43.5t-35 -109.5t34 -108t88 -42t89 43.5t35 108.5zM690 167q0 -74 -43 -126.5t-110 -52.5q-66 0 -108 51.5t-42 125.5t43 127t109 53t108.5 -52
t42.5 -126zM599 165q0 40 -16.5 67t-44.5 27t-44.5 -26.5t-16.5 -65.5q0 -40 16.5 -66.5t44.5 -26.5t44.5 26.5t16.5 64.5zM628 165q0 -51 -25.5 -85t-64.5 -34t-64 34.5t-25 86.5t25 86t64 34t64.5 -35t25.5 -87zM661 167q0 66 -34 108.5t-88 42.5t-89 -43.5t-35 -109.5
t34 -108t88 -42t89 43.5t35 108.5z" />
    <glyph glyph-name="ampersand" unicode="&#x26;" horiz-adv-x="727" 
d="M292 48q-71 0 -120.5 46t-49.5 117q0 69 50 122t130 77l184 -240q-86 -122 -194 -122zM513 693l-7 -31q-68 40 -132 40q-68 0 -107.5 -39t-39.5 -95q0 -48 54 -130q-90 -33 -142.5 -92.5t-52.5 -135.5q0 -84 58.5 -140t145.5 -56q122 0 217 129l113 -147l-34 -3l-79 104
q-50 -53 -84 -73q-60 -37 -133 -37q-103 0 -168 63t-65 160q0 81 51.5 143.5t131.5 96.5q-42 66 -42 118q0 68 47 115t129 47q73 0 139 -37zM292 76q53 0 97.5 34t59.5 60l-156 206q-59 -21 -100 -63.5t-41 -101.5q0 -60 41.5 -97.5t98.5 -37.5zM533 395l29 -7
q-6 -50 -24.5 -103.5t-35.5 -80.5l-191 251q-47 63 -47 114q0 43 29.5 72t78.5 29q60 0 126 -38l-7 -32q-68 41 -119 41q-36 0 -56.5 -20.5t-20.5 -51.5q0 -45 40 -99l161 -212q24 44 37 137zM691 5l-32 -3l-134 173q56 106 70 205l28 -6q-15 -95 -65 -198z" />
    <glyph glyph-name="quotesingle" unicode="'" horiz-adv-x="248" 
d="M143 491h-25l35 229h34zM82 720h32l-27 -229h-24z" />
    <glyph glyph-name="parenleft" unicode="(" horiz-adv-x="409" 
d="M99 360q0 -223 201 -392l-30 -7q-94 77 -148 180t-54 219t53.5 219t147.5 180l30 -7q-200 -169 -200 -392zM169 360q0 -106 53.5 -204t139.5 -168l-29 -10q-194 166 -194 382q0 217 193 382l29 -10q-86 -70 -139 -168t-53 -204z" />
    <glyph glyph-name="parenright" unicode=")" horiz-adv-x="409" 
d="M310 360q0 223 -200 392l30 7q94 -77 147.5 -180t53.5 -219t-54 -219t-148 -180l-30 7q201 169 201 392zM240 360q0 106 -53 204t-139 168l29 10q193 -165 193 -382q0 -216 -194 -382l-29 10q86 70 139.5 168t53.5 204z" />
    <glyph glyph-name="asterisk" unicode="*" horiz-adv-x="438" 
d="M140 388l-22 19l103 122l101 -123l-23 -19l-78 101zM260 611l111 41l8 -27l-145 -51l3 163h28zM243 547l147 46l8 -26l-112 -32l81 -90l-21 -20zM180 609l-3 128h28l1 -164l-148 54l8 25zM154 534l-114 33l7 26l151 -46l-107 -122l-22 19z" />
    <glyph glyph-name="plus" unicode="+" horiz-adv-x="500" 
d="M268 177v202h195v-29h-165v-173h-30zM232 177h-30v173h-165v29h195v-202zM37 413v28h165v174h30v-202h-195zM268 615h30v-174h165v-28h-195v202z" />
    <glyph glyph-name="comma" unicode="," horiz-adv-x="230" 
d="M114 -117h-25l69 229h32zM88 112h31l-63 -229h-24z" />
    <glyph glyph-name="hyphen" unicode="-" horiz-adv-x="416" 
d="M359 325v-27h-302v27h302zM359 239h-302v27h302v-27z" />
    <glyph glyph-name="period" unicode="." horiz-adv-x="264" 
d="M171 48q0 17 -10.5 28.5t-28.5 11.5t-28.5 -11.5t-10.5 -28.5t10.5 -28t28.5 -11t28.5 11t10.5 28zM199 48q0 -28 -19.5 -47t-47.5 -19t-47.5 19t-19.5 47t19.5 47.5t47.5 19.5t47.5 -19.5t19.5 -47.5z" />
    <glyph glyph-name="slash" unicode="/" horiz-adv-x="495" 
d="M136 -56l-30 1l334 827l29 -1zM38 -52l335 827l29 -1l-334 -827z" />
    <glyph glyph-name="zero" unicode="0" horiz-adv-x="600" 
d="M301 734q120 0 190.5 -106t70.5 -266t-71.5 -267t-191.5 -107t-190.5 106t-70.5 266t71.5 267t191.5 107zM459 360q0 118 -45.5 200.5t-114.5 82.5q-68 0 -113 -81.5t-45 -199.5t46 -200.5t114 -82.5t113 81.5t45 199.5zM301 707q-103 0 -167.5 -99t-64.5 -248
t63.5 -246.5t166.5 -97.5q104 0 168 98.5t64 247.5q0 150 -63.5 247.5t-166.5 97.5zM489 360q0 -132 -52 -221t-136 -89q-86 0 -138 90t-52 222t51.5 221t136.5 89q86 0 138 -90t52 -222z" />
    <glyph glyph-name="one" unicode="1" horiz-adv-x="366" 
d="M174 0v602l-144 -42l-3 29l177 54v-643h-30zM242 0v688h-3l-216 -64l-2 29l243 75h8v-728h-30z" />
    <glyph glyph-name="two" unicode="2" horiz-adv-x="525" 
d="M82 581l-7 31q89 56 164 56q73 0 114.5 -42t41.5 -107q0 -66 -102 -199q-8 -11 -12 -17l-209 -273l1 -2h397v-28h-445l-4 8l238 314q72 96 88 131q17 35 17 66q0 53 -34 86t-91 33q-74 0 -157 -57zM68 645l-6 30q88 55 178 55q108 0 166.5 -60t58.5 -149q0 -30 -7.5 -57
t-29.5 -63.5t-38.5 -60t-59.5 -79.5l-133 -171h273v-28h-332l167 216q53 70 72 97t38 68.5t19 77.5q0 78 -51 128.5t-144 50.5q-84 0 -171 -55z" />
    <glyph glyph-name="three" unicode="3" horiz-adv-x="511" 
d="M207 -10q-100 0 -190 49l7 29q94 -50 183 -50q95 0 158 58t63 147q0 72 -45 119t-114 64q49 15 83 56t34 94q0 66 -46 107t-123 41q-75 0 -152 -42l-6 29q79 41 158 41q91 0 145.5 -48t54.5 -128q0 -46 -22.5 -84t-54.5 -62q120 -59 120 -187q0 -105 -72 -169t-181 -64z
M126 361v30h49q98 0 156 -46.5t58 -124.5q0 -74 -51 -121.5t-129 -47.5q-89 0 -177 49l7 29q56 -30 92 -39t78 -9q65 0 107 39t42 100q0 65 -49.5 103t-133.5 38h-49zM126 421v30h64q63 0 96.5 30t33.5 74q0 41 -29.5 65t-75.5 24q-65 0 -135 -42l-7 29q76 42 143 42
q59 0 96.5 -32.5t37.5 -85.5q0 -54 -41 -94t-119 -40h-64z" />
    <glyph glyph-name="four" unicode="4" horiz-adv-x="576" 
d="M433 420l30 -2v-172h90v-28h-120v202zM359 726l-298 -540l2 -2h333v-184h-30v156h-348l-3 4l312 569zM553 156v28h-120v-184h30v156h90zM396 422l-30 2v-178h-200l264 476l-32 2l-281 -506h279v204z" />
    <glyph glyph-name="five" unicode="5" horiz-adv-x="535" 
d="M431 692h-305l-32 -313l3 -1q75 24 150 24q76 0 125.5 -44t49.5 -118q0 -84 -56.5 -137t-144.5 -53q-77 0 -167 49l5 31q90 -50 162 -50q75 0 123 44t48 116q0 63 -42.5 97.5t-107.5 35.5q-68 1 -165 -29l-13 1l36 375h335zM427 658l-3 -28h-244l-19 -180q41 12 94 12
q102 0 168 -60t66 -160q0 -107 -75.5 -180t-190.5 -73q-85 0 -182 46l5 32q89 -49 175 -49q103 0 170.5 63t67.5 159q0 88 -59 141.5t-150 53.5q-56 0 -121 -19l26 242h272z" />
    <glyph glyph-name="six" unicode="6" horiz-adv-x="581" 
d="M288 726l41 -2q-248 -258 -248 -477q0 -107 61 -168q63 -63 148 -63q93 0 155 63t62 155q0 85 -57.5 144t-146.5 59q-106 0 -172 -84q45 171 241 369l41 -3q-76 -70 -138.5 -153.5t-82.5 -130.5q44 30 116 30q102 0 166 -66.5t64 -164.5q0 -105 -70.5 -175t-177.5 -70
q-99 0 -169 70q-71 71 -71 188q0 216 238 479zM119 230q0 -80 50.5 -130.5t121.5 -50.5q77 0 127.5 51t50.5 133q0 77 -47.5 124t-122.5 47q-76 0 -128 -50t-52 -124zM149 230q0 64 44 104.5t106 40.5q60 0 100 -39t40 -103q0 -70 -42.5 -112.5t-105.5 -42.5
q-58 0 -100 41.5t-42 110.5z" />
    <glyph glyph-name="seven" unicode="7" horiz-adv-x="512" 
d="M83 0l264 630h-317v28h360l-276 -660zM154 -3l287 691v4h-411v28h451l3 -4l-299 -720z" />
    <glyph glyph-name="eight" unicode="8" horiz-adv-x="577" 
d="M291 430q46 18 76 49t30 75q0 40 -31 65.5t-79 25.5q-46 0 -77.5 -27t-31.5 -65q0 -40 30.5 -71.5t82.5 -51.5zM183 390q-105 64 -105 164q0 69 58.5 126t152.5 57t151 -55t57 -126q0 -99 -103 -163q64 -29 103.5 -80t39.5 -114q0 -92 -70.5 -154t-179.5 -62
q-108 0 -177.5 59.5t-69.5 147.5q0 61 40.5 115.5t102.5 84.5zM285 342q-71 -22 -106.5 -65.5t-35.5 -84.5q0 -52 40.5 -84.5t105.5 -32.5q63 0 104 34.5t41 87.5q0 42 -39 82.5t-110 62.5zM293 400q-69 25 -107 65t-38 88q0 49 39 85t100 36q63 0 101.5 -34.5t38.5 -85.5
q0 -99 -134 -154zM334 388q132 64 132 168q0 62 -49 107t-128 45q-78 0 -129 -47t-51 -107q0 -102 134 -167q-78 -25 -124.5 -80.5t-46.5 -116.5q0 -77 61 -128t154 -51q95 0 156.5 54.5t61.5 133.5q0 61 -43.5 111t-127.5 78zM284 373q93 -27 137 -76t44 -100
q0 -64 -48.5 -107.5t-127.5 -43.5q-81 0 -129 41.5t-48 104.5q0 50 41 101t131 80z" />
    <glyph glyph-name="nine" unicode="9" horiz-adv-x="581" 
d="M290 -1l-41 2q248 258 248 475q0 109 -61 170q-63 63 -148 63q-92 0 -154.5 -64t-62.5 -156q0 -87 57.5 -146t146.5 -59q107 0 174 85q-43 -164 -243 -366l-41 3q76 70 138.5 152.5t82.5 129.5q-46 -31 -115 -31q-101 0 -166 67.5t-65 164.5q0 105 70.5 176t177.5 71
q99 0 169 -70q71 -71 71 -190q0 -214 -238 -477zM461 493q0 78 -51.5 130.5t-122.5 52.5q-77 0 -128 -52t-51 -134q0 -76 48.5 -125t122.5 -49q77 0 129.5 50.5t52.5 126.5zM431 493q0 -65 -43 -106t-109 -41q-62 0 -101 39.5t-39 104.5q0 71 42.5 114t105.5 43
q59 0 101.5 -43t42.5 -111z" />
    <glyph glyph-name="colon" unicode=":" horiz-adv-x="284" 
d="M181 411q0 17 -10.5 28.5t-28.5 11.5t-28.5 -11.5t-10.5 -28.5t10.5 -28t28.5 -11t28.5 11t10.5 28zM209 411q0 -28 -19.5 -47t-47.5 -19t-47.5 19t-19.5 47t19.5 47.5t47.5 19.5t47.5 -19.5t19.5 -47.5zM181 48q0 17 -10.5 28.5t-28.5 11.5t-28.5 -11.5t-10.5 -28.5
t10.5 -28t28.5 -11t28.5 11t10.5 28zM209 48q0 -28 -19.5 -47t-47.5 -19t-47.5 19t-19.5 47t19.5 47.5t47.5 19.5t47.5 -19.5t19.5 -47.5z" />
    <glyph glyph-name="semicolon" unicode=";" horiz-adv-x="238" 
d="M170 411q0 17 -10.5 28.5t-28.5 11.5t-28.5 -11.5t-10.5 -28.5t10.5 -28t28.5 -11t28.5 11t10.5 28zM198 411q0 -28 -19.5 -47t-47.5 -19t-47.5 19t-19.5 47t19.5 47.5t47.5 19.5t47.5 -19.5t19.5 -47.5zM114 -117h-25l69 229h32zM88 112h31l-63 -229h-24z" />
    <glyph glyph-name="less" unicode="&#x3c;" horiz-adv-x="522" 
d="M85 392l382 -199v-30l-427 221v21l427 222v-30l-382 -199v-6zM467 263v-30l-316 161l316 161v-30l-256 -131z" />
    <glyph glyph-name="equal" unicode="=" horiz-adv-x="514" 
d="M55 482h404v-28h-404v28zM55 520v28h404v-28h-404zM55 272h404v-28h-404v28zM55 310v28h404v-28h-404z" />
    <glyph glyph-name="greater" unicode="&#x3e;" horiz-adv-x="522" 
d="M55 193l382 199v6l-382 199v30l427 -222v-21l-427 -221v30zM55 233v30l256 131l-256 131v30l316 -161z" />
    <glyph glyph-name="question" unicode="?" horiz-adv-x="502" 
d="M248 207h-26l1 135q97 33 144 77.5t47 123.5q0 71 -49 115.5t-133 44.5q-89 0 -176 -60l-6 32q87 57 182 57q102 0 157 -53t55 -136q0 -87 -49.5 -136.5t-141.5 -83.5zM70 578l-6 32q82 60 167 60q69 0 107.5 -35.5t38.5 -93.5q0 -68 -44.5 -108t-144.5 -67l1 -159h-26
l-5 180q103 27 146 60.5t43 93.5q0 46 -31 73t-85 27q-78 0 -161 -63zM243 47q0 17 -10.5 27.5t-27.5 10.5t-27.5 -10.5t-10.5 -27.5t10.5 -27.5t27.5 -10.5t27.5 10.5t10.5 27.5zM270 47q0 -27 -19 -45.5t-46 -18.5t-46 18.5t-19 45.5t19 45.5t46 18.5t46 -18.5t19 -45.5z
" />
    <glyph glyph-name="at" unicode="@" horiz-adv-x="747" 
d="M630 611l-41 -144q-56 44 -123 44q-68 0 -114.5 -44t-46.5 -117q0 -65 45.5 -106t117.5 -41q54 0 83 13l116 412q-106 79 -230 79q-145 0 -247 -98.5t-102 -259.5q0 -153 98.5 -246.5t263.5 -93.5q108 0 218 47l5 -28q-110 -47 -223 -47q-180 0 -286 101.5t-106 266.5
q0 172 110.5 279.5t268.5 107.5q142 0 263 -96l-126 -447q-46 -17 -106 -17q-84 0 -138 48t-54 126q0 85 55 137.5t135 52.5q56 0 108 -28l24 84q-61 48 -161 48q-116 0 -198.5 -82t-82.5 -213q0 -127 80 -202t214 -75q118 0 206 45l5 -28q-98 -45 -211 -45
q-149 0 -236.5 83.5t-87.5 221.5q0 142 91.5 232.5t219.5 90.5q119 0 193 -61zM466 478q63 0 115 -43l-54 -191q-23 -9 -57 -9q-60 0 -94.5 31.5t-34.5 84.5q0 56 36.5 91.5t88.5 35.5zM504 268l44 154q-35 27 -82 27q-41 0 -68 -26t-27 -72q0 -42 26 -65t74 -23q18 0 33 5z
" />
    <glyph glyph-name="A" unicode="A" horiz-adv-x="658" 
d="M331 695l-274 -695h-32l294 736h28l286 -736h-32l-266 695h-4zM333 602l154 -405h-316zM179 135l-50 -135h-32l61 163h342l61 -163h-32l-50 135h-300zM446 225l-113 302l-121 -302h234z" />
    <glyph glyph-name="B" unicode="B" horiz-adv-x="546" 
d="M240 692h-116v-664h114q105 0 171 51.5t66 143.5q0 69 -44 119t-114 66q46 17 79 54t33 87q0 65 -48 104t-141 39zM162 421v237h77q75 0 113.5 -30.5t38.5 -80.5q0 -54 -43.5 -90t-111.5 -36h-74zM162 62v327h67q98 0 153 -46t55 -121q0 -76 -55 -118t-143 -42h-77z
M191 631v-183h46q54 0 88.5 25.5t34.5 72.5q0 85 -122 85h-47zM191 361v-272h49q71 0 118.5 34t47.5 98q0 65 -48.5 102.5t-129.5 37.5h-37zM94 720h146q108 0 163.5 -47t55.5 -123q0 -85 -80 -138q55 -25 91 -72t36 -116q0 -103 -75 -163.5t-194 -60.5h-143v720z" />
    <glyph glyph-name="C" unicode="C" horiz-adv-x="708" 
d="M651 85l6 -29q-121 -73 -241 -73q-158 0 -264.5 107.5t-106.5 267.5q0 163 110.5 271t264.5 108q131 0 235 -72l-11 -30q-108 73 -226 73q-135 0 -238.5 -99t-103.5 -249q0 -147 97.5 -247.5t244.5 -100.5q120 0 233 73zM637 149l7 -30q-120 -71 -226 -71
q-131 0 -216 88.5t-85 223.5q0 138 87.5 225t213.5 87q118 0 215 -74l-12 -29q-40 32 -96.5 53t-108.5 21q-110 0 -189 -78.5t-79 -202.5q0 -123 76 -204t196 -81q102 0 217 72z" />
    <glyph glyph-name="D" unicode="D" horiz-adv-x="629" 
d="M584 367q0 -157 -107.5 -262t-272.5 -105h-110v720h116q166 0 270 -99t104 -254zM553 365q0 144 -95.5 235.5t-247.5 91.5h-86v-664h80q153 0 251 96.5t98 240.5zM512 365q0 -132 -84.5 -217.5t-223.5 -85.5h-42v596h46q136 0 220 -80t84 -213zM482 363q0 119 -75.5 193
t-197.5 74h-18v-540h14q123 0 200 77t77 196z" />
    <glyph glyph-name="E" unicode="E" horiz-adv-x="481" 
d="M422 0h-328v720h326v-28h-296v-664h298v-28zM422 90v-28h-260v328h253v-28h-223v-272h230zM415 452v-28h-253v234h258v-28h-228v-178h223z" />
    <glyph glyph-name="F" unicode="F" horiz-adv-x="459" 
d="M408 720v-28h-284v-692h-30v720h314zM407 443v-28h-245v243h246v-28h-216v-187h215zM192 0h-30v381h245v-28h-215v-353z" />
    <glyph glyph-name="G" unicode="G" horiz-adv-x="794" 
d="M663 591l-11 -30q-46 35 -109.5 58t-123.5 23q-114 0 -193 -80.5t-79 -200.5q0 -124 79.5 -203.5t196.5 -79.5q86 0 145.5 38t86.5 109l-273 -1v28h313q-25 -92 -93 -148t-181 -56q-128 0 -216.5 88t-88.5 223q0 132 86.5 222.5t218.5 90.5q63 0 128.5 -23.5t113.5 -57.5
zM684 655l-10 -31q-113 84 -253 84q-144 0 -244.5 -102t-100.5 -247q0 -147 100 -247t245 -100q130 0 213 76.5t103 197.5h-355v28h388q-14 -149 -109.5 -240t-241.5 -91q-156 0 -265 107.5t-109 266.5q0 160 110 270t268 110q137 0 261 -82z" />
    <glyph glyph-name="H" unicode="H" horiz-adv-x="676" 
d="M514 390v-390h-30v362h-292v-362h-30v390h352zM514 424h-352v296h30v-268h292v268h30v-296zM582 0h-30v720h30v-720zM94 0v720h30v-720h-30z" />
    <glyph glyph-name="I" unicode="I" horiz-adv-x="290" 
d="M126 720v-720h-30v720h30zM194 0h-30v720h30v-720z" />
    <glyph glyph-name="J" unicode="J" horiz-adv-x="429" 
d="M42 64l-4 30q33 -6 63 -6q80 0 112.5 47t32.5 140v445h30v-446q0 -106 -41 -160.5t-135 -54.5q-25 0 -58 5zM48 1l-3 29q32 -5 54 -5q111 0 163 62t52 187v446h30v-445q0 -141 -61 -210t-185 -69q-20 0 -50 5z" />
    <glyph glyph-name="K" unicode="K" horiz-adv-x="575" 
d="M575 0h-44l-326 305l307 415h38l-305 -413zM192 395l239 325h38l-307 -412v412h30v-325zM124 720v-720h-30v720h30zM192 228v-228h-30v295l318 -295h-44z" />
    <glyph glyph-name="L" unicode="L" horiz-adv-x="459" 
d="M94 0v720h30v-692h299v-28h-329zM162 62v658h30v-630h231v-28h-261z" />
    <glyph glyph-name="M" unicode="M" horiz-adv-x="877" 
d="M94 0v727h28l317 -424l315 424h29v-727h-30v679h-1l-312 -429l-315 429h-1v-679h-30zM687 478l-244 -334h-7l-246 335v-479h-30v567l279 -378h1l277 377v-566h-30v478z" />
    <glyph glyph-name="N" unicode="N" horiz-adv-x="670" 
d="M576 -9h-35l-353 500l1 -491h-29v577l383 -543h4v686h29v-729zM94 0v729h36l352 -498l-1 489h29v-576l-382 542h-5v-686h-29z" />
    <glyph glyph-name="O" unicode="O" 
d="M45 358q0 159 110.5 269t267.5 110q156 0 265 -109t109 -266q0 -159 -110.5 -269t-267.5 -110t-265.5 108t-108.5 267zM76 360q0 -147 99.5 -247.5t245.5 -100.5q143 0 244 101.5t101 246.5q0 147 -99.5 247.5t-245.5 100.5q-143 0 -244 -101.5t-101 -246.5zM117 360
q0 133 87 222.5t217 89.5t217 -89.5t87 -222.5t-87 -222.5t-217 -89.5t-217 89.5t-87 222.5zM147 362q0 -122 79 -203t197 -81q115 0 193.5 81t78.5 199q0 122 -79 203t-197 81q-115 0 -193.5 -81.5t-78.5 -198.5z" />
    <glyph glyph-name="P" unicode="P" horiz-adv-x="563" 
d="M162 261v397h85q91 0 154.5 -53t63.5 -142q0 -99 -68.5 -150.5t-162.5 -51.5h-72zM192 630v-341h43q78 0 138.5 44t60.5 128q0 80 -55.5 124.5t-132.5 44.5h-54zM192 0h-30v228h73q66 0 126 25.5t101 80.5t41 129q0 103 -75 166t-181 63h-123v-692h-30v720h154
q123 0 205 -70.5t82 -184.5q0 -125 -91 -195t-214 -70h-38v-200z" />
    <glyph glyph-name="Q" unicode="Q" horiz-adv-x="862" 
d="M494 309l131 -141q70 83 70 190q0 118 -79 201t-197 83q-116 0 -194 -82t-78 -198q0 -118 79 -201t197 -83q71 0 134 34l-115 118l17 26l143 -150q-79 -58 -181 -58q-130 0 -217 89.5t-87 222.5t87 222.5t217 89.5t217 -89.5t87 -222.5q0 -70 -27 -131.5t-74 -103.5
l-147 158zM807 17l-17 -26q-92 6 -163 54q-94 -62 -208 -62q-157 0 -265.5 108t-108.5 267t110.5 269t267.5 110q156 0 265 -109t109 -266q0 -151 -101 -258q52 -32 143 -34l-17 -27q-100 6 -171 57q54 48 84.5 116t30.5 144q0 146 -99.5 247t-245.5 101q-144 0 -244.5 -102
t-100.5 -246q0 -146 99.5 -247t245.5 -101q111 0 206 68q42 -31 81.5 -45t98.5 -18z" />
    <glyph glyph-name="R" unicode="R" horiz-adv-x="595" 
d="M162 265v393h86q103 0 164.5 -51t61.5 -139q0 -100 -63 -151.5t-171 -51.5h-78zM416 0l-224 183v-183h-30v234h13l289 -234h-48zM192 630v-337h49q91 0 146.5 43.5t55.5 131.5q0 75 -54 118.5t-142 43.5h-55zM565 0h-46l-292 234h12q121 0 197 62t76 174q0 100 -74 161
t-189 61h-125v-692h-30v720h156q132 0 213 -68t81 -182q0 -62 -22 -111.5t-58.5 -79.5t-78.5 -46.5t-86 -19.5z" />
    <glyph glyph-name="S" unicode="S" horiz-adv-x="514" 
d="M54 98l9 29q96 -48 170 -48q60 0 97 31.5t37 81.5q0 44 -30 79t-107 83q-86 54 -122 101.5t-36 102.5q0 73 55.5 124t147.5 51q79 0 157 -39l-9 -28q-76 38 -149 38q-77 0 -124.5 -42.5t-47.5 -103.5q0 -47 32 -89t113 -92q88 -55 119 -93.5t31 -91.5q0 -62 -45 -101.5
t-120 -39.5q-87 0 -178 47zM36 36l8 29q95 -48 187 -48t148.5 51t56.5 126q0 64 -36.5 109t-132.5 104q-73 46 -99.5 79.5t-26.5 72.5q0 47 33.5 79t98.5 32q67 0 141 -37l-9 -28q-73 37 -133 37q-50 0 -75.5 -23.5t-25.5 -59.5q0 -31 24.5 -58.5t88.5 -68.5
q96 -60 139 -113t43 -125q0 -86 -65.5 -146t-170.5 -60q-99 0 -194 48z" />
    <glyph glyph-name="T" unicode="T" horiz-adv-x="502" 
d="M270 0v658h202v-28h-172v-630h-30zM232 658v-658h-30v630h-172v28h202zM472 720v-28h-442v28h442z" />
    <glyph glyph-name="U" unicode="U" horiz-adv-x="640" 
d="M559 720v-479q0 -110 -65.5 -183t-175.5 -73q-109 0 -173 73.5t-64 181.5v480h30v-477q0 -100 56.5 -164.5t152.5 -64.5t152.5 64t56.5 165v477h30zM461 720h30v-475q0 -89 -45.5 -142t-125.5 -53q-81 0 -126 53.5t-45 142.5v474h30v-472q0 -78 37.5 -123.5t104.5 -45.5
q65 0 102.5 45t37.5 123v473z" />
    <glyph glyph-name="V" unicode="V" horiz-adv-x="638" 
d="M316 25h7l256 695h32l-274 -736h-34l-276 736h32zM320 122l-219 598h32l187 -515l186 515h32z" />
    <glyph glyph-name="W" unicode="W" horiz-adv-x="947" 
d="M621 187l196 533h31l-225 -607l-124 301l122 306h31l-123 -309zM425 413l-129 307h31l128 -308l-121 -299l-235 607h31l205 -534zM551 720h30l-105 -264l-108 264h30l78 -195zM316 -16l-289 736h31l272 -698h3l145 351l147 -351h3l261 698h31l-277 -736h-32l-132 315
l-132 -315h-31z" />
    <glyph glyph-name="X" unicode="X" horiz-adv-x="619" 
d="M257 381l-201 339h33l201 -338l-231 -382h-34zM561 0l-228 383l199 337h34l-198 -337l226 -383h-33zM135 0h-36l212 352l208 -352h-35l-173 295zM313 471l146 249h34l-181 -304l-182 304h34z" />
    <glyph glyph-name="Y" unicode="Y" horiz-adv-x="571" 
d="M236 316l-225 404h33l223 -399v-321h-31v316zM335 0h-31v321l223 399h33l-225 -404v-316zM287 421l166 299h33l-199 -360l-201 360h33z" />
    <glyph glyph-name="Z" unicode="Z" horiz-adv-x="550" 
d="M136 62l335 627l-2 3h-398v28h441l3 -5l-331 -625h312v-28h-360zM366 630h-295v28h343l-335 -627l2 -3h415v-28h-458l-3 5z" />
    <glyph glyph-name="bracketleft" unicode="[" horiz-adv-x="425" 
d="M375 -72h-276v864h276v-28l-247 -1v-805l247 -2v-28zM375 10v-25l-212 3v745l212 2v-26l-184 -4v-689z" />
    <glyph glyph-name="backslash" unicode="\" horiz-adv-x="495" 
d="M391 -55l-30 -1l-333 827l29 1zM124 775l335 -827l-30 -1l-334 827z" />
    <glyph glyph-name="bracketright" unicode="]" horiz-adv-x="425" 
d="M326 -72h-276v28l247 2v805l-247 1v28h276v-864zM50 -15v25l184 6v689l-184 4v26l212 -2v-745z" />
    <glyph glyph-name="asciicircum" unicode="^" horiz-adv-x="472" 
d="M243 747l179 -316h-32l-153 271h-2l-153 -271h-32l178 316h15zM236 639l117 -208h-32l-85 152l-85 -152h-32z" />
    <glyph glyph-name="underscore" unicode="_" horiz-adv-x="460" 
d="M482 -75v-29h-504v29h504zM482 -165h-504v29h504v-29z" />
    <glyph glyph-name="grave" unicode="`" horiz-adv-x="519" 
d="M315 791l-13 -17l-186 104l23 24zM160 926l25 22l159 -123l-14 -17z" />
    <glyph glyph-name="a" unicode="a" horiz-adv-x="658" 
d="M331 695l-274 -695h-32l294 736h28l286 -736h-32l-266 695h-4zM333 602l154 -405h-316zM179 135l-50 -135h-32l61 163h342l61 -163h-32l-50 135h-300zM446 225l-113 302l-121 -302h234z" />
    <glyph glyph-name="b" unicode="b" horiz-adv-x="546" 
d="M240 692h-116v-664h114q105 0 171 51.5t66 143.5q0 69 -44 119t-114 66q46 17 79 54t33 87q0 65 -48 104t-141 39zM162 421v237h77q75 0 113.5 -30.5t38.5 -80.5q0 -54 -43.5 -90t-111.5 -36h-74zM162 62v327h67q98 0 153 -46t55 -121q0 -76 -55 -118t-143 -42h-77z
M191 631v-183h46q54 0 88.5 25.5t34.5 72.5q0 85 -122 85h-47zM191 361v-272h49q71 0 118.5 34t47.5 98q0 65 -48.5 102.5t-129.5 37.5h-37zM94 720h146q108 0 163.5 -47t55.5 -123q0 -85 -80 -138q55 -25 91 -72t36 -116q0 -103 -75 -163.5t-194 -60.5h-143v720z" />
    <glyph glyph-name="c" unicode="c" horiz-adv-x="708" 
d="M651 85l6 -29q-121 -73 -241 -73q-158 0 -264.5 107.5t-106.5 267.5q0 163 110.5 271t264.5 108q131 0 235 -72l-11 -30q-108 73 -226 73q-135 0 -238.5 -99t-103.5 -249q0 -147 97.5 -247.5t244.5 -100.5q120 0 233 73zM637 149l7 -30q-120 -71 -226 -71
q-131 0 -216 88.5t-85 223.5q0 138 87.5 225t213.5 87q118 0 215 -74l-12 -29q-40 32 -96.5 53t-108.5 21q-110 0 -189 -78.5t-79 -202.5q0 -123 76 -204t196 -81q102 0 217 72z" />
    <glyph glyph-name="d" unicode="d" horiz-adv-x="629" 
d="M584 367q0 -157 -107.5 -262t-272.5 -105h-110v720h116q166 0 270 -99t104 -254zM553 365q0 144 -95.5 235.5t-247.5 91.5h-86v-664h80q153 0 251 96.5t98 240.5zM512 365q0 -132 -84.5 -217.5t-223.5 -85.5h-42v596h46q136 0 220 -80t84 -213zM482 363q0 119 -75.5 193
t-197.5 74h-18v-540h14q123 0 200 77t77 196z" />
    <glyph glyph-name="e" unicode="e" horiz-adv-x="481" 
d="M422 0h-328v720h326v-28h-296v-664h298v-28zM422 90v-28h-260v328h253v-28h-223v-272h230zM415 452v-28h-253v234h258v-28h-228v-178h223z" />
    <glyph glyph-name="f" unicode="f" horiz-adv-x="459" 
d="M408 720v-28h-284v-692h-30v720h314zM407 443v-28h-245v243h246v-28h-216v-187h215zM192 0h-30v381h245v-28h-215v-353z" />
    <glyph glyph-name="g" unicode="g" horiz-adv-x="794" 
d="M663 591l-11 -30q-46 35 -109.5 58t-123.5 23q-114 0 -193 -80.5t-79 -200.5q0 -124 79.5 -203.5t196.5 -79.5q86 0 145.5 38t86.5 109l-273 -1v28h313q-25 -92 -93 -148t-181 -56q-128 0 -216.5 88t-88.5 223q0 132 86.5 222.5t218.5 90.5q63 0 128.5 -23.5t113.5 -57.5
zM684 655l-10 -31q-113 84 -253 84q-144 0 -244.5 -102t-100.5 -247q0 -147 100 -247t245 -100q130 0 213 76.5t103 197.5h-355v28h388q-14 -149 -109.5 -240t-241.5 -91q-156 0 -265 107.5t-109 266.5q0 160 110 270t268 110q137 0 261 -82z" />
    <glyph glyph-name="h" unicode="h" horiz-adv-x="676" 
d="M514 390v-390h-30v362h-292v-362h-30v390h352zM514 424h-352v296h30v-268h292v268h30v-296zM582 0h-30v720h30v-720zM94 0v720h30v-720h-30z" />
    <glyph glyph-name="i" unicode="i" horiz-adv-x="290" 
d="M126 720v-720h-30v720h30zM194 0h-30v720h30v-720z" />
    <glyph glyph-name="j" unicode="j" horiz-adv-x="429" 
d="M42 64l-4 30q33 -6 63 -6q80 0 112.5 47t32.5 140v445h30v-446q0 -106 -41 -160.5t-135 -54.5q-25 0 -58 5zM48 1l-3 29q32 -5 54 -5q111 0 163 62t52 187v446h30v-445q0 -141 -61 -210t-185 -69q-20 0 -50 5z" />
    <glyph glyph-name="k" unicode="k" horiz-adv-x="575" 
d="M575 0h-44l-326 305l307 415h38l-305 -413zM192 395l239 325h38l-307 -412v412h30v-325zM124 720v-720h-30v720h30zM192 228v-228h-30v295l318 -295h-44z" />
    <glyph glyph-name="l" unicode="l" horiz-adv-x="459" 
d="M94 0v720h30v-692h299v-28h-329zM162 62v658h30v-630h231v-28h-261z" />
    <glyph glyph-name="m" unicode="m" horiz-adv-x="877" 
d="M94 0v727h28l317 -424l315 424h29v-727h-30v679h-1l-312 -429l-315 429h-1v-679h-30zM687 478l-244 -334h-7l-246 335v-479h-30v567l279 -378h1l277 377v-566h-30v478z" />
    <glyph glyph-name="n" unicode="n" horiz-adv-x="670" 
d="M576 -9h-35l-353 500l1 -491h-29v577l383 -543h4v686h29v-729zM94 0v729h36l352 -498l-1 489h29v-576l-382 542h-5v-686h-29z" />
    <glyph glyph-name="o" unicode="o" 
d="M45 358q0 159 110.5 269t267.5 110q156 0 265 -109t109 -266q0 -159 -110.5 -269t-267.5 -110t-265.5 108t-108.5 267zM76 360q0 -147 99.5 -247.5t245.5 -100.5q143 0 244 101.5t101 246.5q0 147 -99.5 247.5t-245.5 100.5q-143 0 -244 -101.5t-101 -246.5zM117 360
q0 133 87 222.5t217 89.5t217 -89.5t87 -222.5t-87 -222.5t-217 -89.5t-217 89.5t-87 222.5zM147 362q0 -122 79 -203t197 -81q115 0 193.5 81t78.5 199q0 122 -79 203t-197 81q-115 0 -193.5 -81.5t-78.5 -198.5z" />
    <glyph glyph-name="p" unicode="p" horiz-adv-x="563" 
d="M162 261v397h85q91 0 154.5 -53t63.5 -142q0 -99 -68.5 -150.5t-162.5 -51.5h-72zM192 630v-341h43q78 0 138.5 44t60.5 128q0 80 -55.5 124.5t-132.5 44.5h-54zM192 0h-30v228h73q66 0 126 25.5t101 80.5t41 129q0 103 -75 166t-181 63h-123v-692h-30v720h154
q123 0 205 -70.5t82 -184.5q0 -125 -91 -195t-214 -70h-38v-200z" />
    <glyph glyph-name="q" unicode="q" horiz-adv-x="862" 
d="M494 309l131 -141q70 83 70 190q0 118 -79 201t-197 83q-116 0 -194 -82t-78 -198q0 -118 79 -201t197 -83q71 0 134 34l-115 118l17 26l143 -150q-79 -58 -181 -58q-130 0 -217 89.5t-87 222.5t87 222.5t217 89.5t217 -89.5t87 -222.5q0 -70 -27 -131.5t-74 -103.5
l-147 158zM807 17l-17 -26q-92 6 -163 54q-94 -62 -208 -62q-157 0 -265.5 108t-108.5 267t110.5 269t267.5 110q156 0 265 -109t109 -266q0 -151 -101 -258q52 -32 143 -34l-17 -27q-100 6 -171 57q54 48 84.5 116t30.5 144q0 146 -99.5 247t-245.5 101q-144 0 -244.5 -102
t-100.5 -246q0 -146 99.5 -247t245.5 -101q111 0 206 68q42 -31 81.5 -45t98.5 -18z" />
    <glyph glyph-name="r" unicode="r" horiz-adv-x="595" 
d="M162 265v393h86q103 0 164.5 -51t61.5 -139q0 -100 -63 -151.5t-171 -51.5h-78zM416 0l-224 183v-183h-30v234h13l289 -234h-48zM192 630v-337h49q91 0 146.5 43.5t55.5 131.5q0 75 -54 118.5t-142 43.5h-55zM565 0h-46l-292 234h12q121 0 197 62t76 174q0 100 -74 161
t-189 61h-125v-692h-30v720h156q132 0 213 -68t81 -182q0 -62 -22 -111.5t-58.5 -79.5t-78.5 -46.5t-86 -19.5z" />
    <glyph glyph-name="s" unicode="s" horiz-adv-x="514" 
d="M54 98l9 29q96 -48 170 -48q60 0 97 31.5t37 81.5q0 44 -30 79t-107 83q-86 54 -122 101.5t-36 102.5q0 73 55.5 124t147.5 51q79 0 157 -39l-9 -28q-76 38 -149 38q-77 0 -124.5 -42.5t-47.5 -103.5q0 -47 32 -89t113 -92q88 -55 119 -93.5t31 -91.5q0 -62 -45 -101.5
t-120 -39.5q-87 0 -178 47zM36 36l8 29q95 -48 187 -48t148.5 51t56.5 126q0 64 -36.5 109t-132.5 104q-73 46 -99.5 79.5t-26.5 72.5q0 47 33.5 79t98.5 32q67 0 141 -37l-9 -28q-73 37 -133 37q-50 0 -75.5 -23.5t-25.5 -59.5q0 -31 24.5 -58.5t88.5 -68.5
q96 -60 139 -113t43 -125q0 -86 -65.5 -146t-170.5 -60q-99 0 -194 48z" />
    <glyph glyph-name="t" unicode="t" horiz-adv-x="502" 
d="M270 0v658h202v-28h-172v-630h-30zM232 658v-658h-30v630h-172v28h202zM472 720v-28h-442v28h442z" />
    <glyph glyph-name="u" unicode="u" horiz-adv-x="640" 
d="M559 720v-479q0 -110 -65.5 -183t-175.5 -73q-109 0 -173 73.5t-64 181.5v480h30v-477q0 -100 56.5 -164.5t152.5 -64.5t152.5 64t56.5 165v477h30zM461 720h30v-475q0 -89 -45.5 -142t-125.5 -53q-81 0 -126 53.5t-45 142.5v474h30v-472q0 -78 37.5 -123.5t104.5 -45.5
q65 0 102.5 45t37.5 123v473z" />
    <glyph glyph-name="v" unicode="v" horiz-adv-x="638" 
d="M316 25h7l256 695h32l-274 -736h-34l-276 736h32zM320 122l-219 598h32l187 -515l186 515h32z" />
    <glyph glyph-name="w" unicode="w" horiz-adv-x="947" 
d="M621 187l196 533h31l-225 -607l-124 301l122 306h31l-123 -309zM425 413l-129 307h31l128 -308l-121 -299l-235 607h31l205 -534zM551 720h30l-105 -264l-108 264h30l78 -195zM316 -16l-289 736h31l272 -698h3l145 351l147 -351h3l261 698h31l-277 -736h-32l-132 315
l-132 -315h-31z" />
    <glyph glyph-name="x" unicode="x" horiz-adv-x="619" 
d="M257 381l-201 339h33l201 -338l-231 -382h-34zM561 0l-228 383l199 337h34l-198 -337l226 -383h-33zM135 0h-36l212 352l208 -352h-35l-173 295zM313 471l146 249h34l-181 -304l-182 304h34z" />
    <glyph glyph-name="y" unicode="y" horiz-adv-x="571" 
d="M236 316l-225 404h33l223 -399v-321h-31v316zM335 0h-31v321l223 399h33l-225 -404v-316zM287 421l166 299h33l-199 -360l-201 360h33z" />
    <glyph glyph-name="z" unicode="z" horiz-adv-x="550" 
d="M136 62l335 627l-2 3h-398v28h441l3 -5l-331 -625h312v-28h-360zM366 630h-295v28h343l-335 -627l2 -3h415v-28h-458l-3 5z" />
    <glyph glyph-name="braceleft" unicode="{" horiz-adv-x="504" 
d="M221 360q81 -48 81 -141q0 -24 -6.5 -66t-6.5 -62q0 -43 26 -69q34 -34 149 -28v-27q-127 -7 -170 36q-34 34 -34 88q0 17 6.5 59t6.5 65q0 110 -119 145q119 35 119 145q0 23 -6.5 65t-6.5 59q0 54 34 88q43 43 170 36v-27q-114 6 -148 -28q-27 -27 -27 -69
q0 -20 6.5 -62t6.5 -66q0 -93 -81 -141zM268 737q-41 -41 -41 -105q0 -25 6 -65.5t6 -60.5q0 -60 -44 -95t-110 -35h-35v29h35q53 0 89 28.5t36 81.5q0 10 -6 51.5t-6 65.5q0 77 45 122q38 38 90 49.5t131 6.5v-27q-142 8 -196 -46zM268 -17q54 -54 196 -46v-27
q-79 -5 -131 6.5t-90 49.5q-45 45 -45 122q0 24 6 65.5t6 51.5q0 53 -36 81.5t-89 28.5h-35v29h35q66 0 110 -35t44 -95q0 -20 -6 -60.5t-6 -65.5q0 -64 41 -105z" />
    <glyph glyph-name="bar" unicode="|" horiz-adv-x="281" 
d="M183 -102h-26v900h26v-900zM98 -102v900h26v-900h-26z" />
    <glyph glyph-name="braceright" unicode="}" horiz-adv-x="504" 
d="M283 360q-81 48 -81 141q0 24 6.5 66t6.5 62q0 42 -27 69q-34 34 -148 28v27q127 7 170 -36q34 -34 34 -88q0 -17 -6.5 -59t-6.5 -65q0 -110 119 -145q-119 -35 -119 -145q0 -23 6.5 -65t6.5 -59q0 -54 -34 -88q-43 -43 -170 -36v27q115 -6 149 28q26 26 26 69
q0 20 -6.5 62t-6.5 66q0 93 81 141zM236 737q-54 54 -196 46v27q79 5 131 -6.5t90 -49.5q45 -45 45 -122q0 -24 -6 -65.5t-6 -51.5q0 -53 36 -81.5t89 -28.5h35v-29h-35q-66 0 -110 35t-44 95q0 20 6 60.5t6 65.5q0 64 -41 105zM236 -17q41 41 41 105q0 25 -6 65.5t-6 60.5
q0 60 44 95t110 35h35v-29h-35q-53 0 -89 -28.5t-36 -81.5q0 -10 6 -51.5t6 -65.5q0 -77 -45 -122q-38 -38 -90 -49.5t-131 -6.5v27q142 -8 196 46z" />
    <glyph glyph-name="asciitilde" unicode="~" horiz-adv-x="456" 
d="M312 249q47 0 94 40v-31q-48 -39 -96 -39q-29 0 -90 28.5t-80 28.5q-48 0 -90 -45v35q41 40 91 40q22 0 84.5 -28.5t86.5 -28.5zM316 314q48 0 90 45v-35q-41 -40 -91 -40q-23 0 -84.5 28.5t-86.5 28.5q-47 0 -94 -40v31q48 39 96 39q29 0 89.5 -28.5t80.5 -28.5z" />
    <glyph glyph-name="asciitilde" unicode="&#x223c;" horiz-adv-x="456" 
d="M312 249q47 0 94 40v-31q-48 -39 -96 -39q-29 0 -90 28.5t-80 28.5q-48 0 -90 -45v35q41 40 91 40q22 0 84.5 -28.5t86.5 -28.5zM316 314q48 0 90 45v-35q-41 -40 -91 -40q-23 0 -84.5 28.5t-86.5 28.5q-47 0 -94 -40v31q48 39 96 39q29 0 89.5 -28.5t80.5 -28.5z" />
    <glyph glyph-name="uni00A0" unicode="&#xa0;" horiz-adv-x="260" 
 />
    <glyph glyph-name="exclamdown" unicode="&#xa1;" horiz-adv-x="302" 
d="M169 513h26l13 -513h-32zM98 0l12 513h26l-6 -513h-32zM192 672q0 17 -10.5 28t-28.5 11t-28.5 -11t-10.5 -28t10.5 -28.5t28.5 -11.5t28.5 11.5t10.5 28.5zM220 672q0 -28 -19.5 -47.5t-47.5 -19.5t-47.5 19.5t-19.5 47.5t19.5 47t47.5 19t47.5 -19t19.5 -47z" />
    <glyph glyph-name="cent" unicode="&#xa2;" horiz-adv-x="484" 
d="M239 588l12 149l29 -3l-15 -174q-78 -5 -131.5 -62t-53.5 -141q0 -72 44 -126t109 -66l-16 -176l-28 4l14 150q-68 25 -110 79.5t-42 134.5q0 90 52.5 152.5t135.5 78.5zM116 358q0 70 41.5 117.5t105.5 52.5l-27 -332q-51 12 -85.5 57t-34.5 105zM298 222q51 3 105 41
l14 -25q-75 -49 -150 -45l27 335q59 -5 119 -48l-14 -27q-45 36 -79 40zM278 -19l-29 4l15 177q90 -1 165 50l13 -25q-70 -48 -151 -54zM438 532l-12 -24q-67 46 -129 51l15 171l28 -3l-12 -143q59 -11 110 -52zM146 358q0 -47 20.5 -78.5t44.5 -40.5l21 253
q-27 -5 -56.5 -40.5t-29.5 -93.5z" />
    <glyph glyph-name="sterling" unicode="&#xa3;" horiz-adv-x="555" 
d="M487 292v-28h-254q-4 35 -38 120.5t-34 138.5q0 65 41 107.5t112 42.5q74 0 151 -47l-14 -25q-70 42 -137 42q-55 0 -88.5 -33.5t-33.5 -86.5q0 -9 0.5 -18t2 -18.5t2.5 -15.5t4.5 -17t4 -14.5t5 -16t5.5 -14t6 -15.5l6 -15q28 -73 31 -87h228zM192 264h-100v28h64
q-4 21 -17 49q0 1 -7 15.5t-8 18t-7 17t-7.5 19.5t-6 19t-6 22t-4 21t-3.5 24t-1 24q0 96 61 156t167 60q92 0 180 -53l-15 -26q-81 49 -165 49q-91 0 -144.5 -53.5t-53.5 -132.5q0 -57 34.5 -138.5t38.5 -118.5zM159 203h-67v28h102q-6 -100 -73 -198l2 -5h370v-28h-423
l-3 7q85 118 92 196zM493 89v-28h-311q49 87 53 170h252v-28h-224q-3 -53 -33 -114h263z" />
    <glyph glyph-name="yen" unicode="&#xa5;" horiz-adv-x="624" 
d="M315 399l161 321h33l-194 -382l-196 382h33zM287 316h-193v28h146l-199 376h33zM533 344v-28h-193l211 404h33l-198 -376h147zM266 257h-172v28h200v-114h-200v28h172v58zM533 199v-28h-200v114h200v-28h-172v-58h172zM361 0h-28v140h200v-28h-172v-112zM266 112h-172v28
h200v-140h-28v112z" />
    <glyph glyph-name="section" unicode="&#xa7;" horiz-adv-x="493" 
d="M388 366q0 -47 -44 -76t-105 -29q-55 0 -94.5 24.5t-39.5 67.5q0 47 44 76t105 29q55 0 94.5 -24.5t39.5 -67.5zM68 351q0 -58 49.5 -90t120.5 -32q23 0 45 4q44 -61 44 -104q0 -37 -25 -60.5t-72 -23.5q-46 0 -101 26l10 27q52 -26 91 -26q34 0 51 16t17 41q0 38 -29 74
q-104 -7 -167.5 34.5t-63.5 113.5q0 45 27.5 81t70.5 56q-34 64 -34 104q0 63 43.5 103t118.5 40q53 0 121 -28l-10 -28q-58 28 -111 28q-60 0 -96.5 -32t-36.5 -83q0 -50 44 -115q-46 -15 -76.5 -48.5t-30.5 -77.5zM136 353q0 -29 29.5 -46t74.5 -17q51 0 84 20t33 56
q0 29 -29.5 46t-74.5 17q-51 0 -84 -20t-33 -56zM455 368q0 -45 -27.5 -81t-70.5 -56q34 -64 34 -104q0 -63 -43.5 -103t-118.5 -40q-53 0 -121 28l10 28q58 -28 111 -28q60 0 96.5 32t36.5 83q0 50 -44 115q46 15 76.5 48.5t30.5 77.5q0 58 -49.5 90t-120.5 32
q-23 0 -45 -4q-44 61 -44 104q0 37 25 60.5t72 23.5q46 0 101 -26l-10 -27q-52 26 -91 26q-34 0 -51 -16t-17 -41q0 -38 29 -74q104 7 167.5 -34.5t63.5 -113.5z" />
    <glyph glyph-name="dieresis" unicode="&#xa8;" horiz-adv-x="547" 
d="M209 827q0 14 -10 24.5t-25 10.5q-14 0 -24.5 -10.5t-10.5 -24.5t10.5 -24.5t24.5 -10.5q15 0 25 10.5t10 24.5zM235 827q0 -26 -18 -43t-43 -17q-24 0 -42.5 17t-18.5 43t18.5 43t42.5 17q25 0 43 -17t18 -43zM408 827q0 14 -10.5 24.5t-24.5 10.5q-15 0 -25 -10.5
t-10 -24.5t10 -24.5t25 -10.5q14 0 24.5 10.5t10.5 24.5zM434 827q0 -26 -18.5 -43t-42.5 -17q-25 0 -43 17t-18 43t18 43t43 17q24 0 42.5 -17t18.5 -43z" />
    <glyph glyph-name="copyright" unicode="&#xa9;" horiz-adv-x="868" 
d="M567 269l7 -27q-62 -42 -133 -42q-65 0 -110 44t-45 115t45.5 117.5t109.5 46.5q61 0 124 -37l-8 -27q-55 36 -116 36q-51 0 -88.5 -37.5t-37.5 -98.5t37.5 -96t88.5 -35q70 0 126 41zM580 213l5 -26q-71 -43 -145 -43q-92 0 -154 62.5t-62 152.5q0 94 62 157.5t155 63.5
q69 0 137 -39l-6 -26q-67 38 -131 38q-79 0 -134 -55.5t-55 -138.5q0 -80 55.5 -134.5t132.5 -54.5q74 0 140 43zM820 362q0 -158 -112.5 -268t-274.5 -110q-163 0 -274 108.5t-111 266.5t112.5 268t274.5 110q163 0 274 -108.5t111 -266.5zM789 359q0 150 -102.5 249.5
t-253.5 99.5q-150 0 -252 -99.5t-102 -246.5q0 -150 102.5 -250t253.5 -100q149 0 251.5 100t102.5 247z" />
    <glyph glyph-name="ordfeminine" unicode="&#xaa;" horiz-adv-x="494" 
d="M247 637l-78 -184h156zM206 475l41 103l41 -103h-82zM125 351l32 73h180l33 -73h-29l-21 48h-146l-20 -48h-29zM91 351h-28l162 376h45l162 -376h-28l-154 354h-5zM57 221h380v-26h-380v26zM437 251h-380v27h380v-27z" />
    <glyph glyph-name="guillemotleft" unicode="&#xab;" horiz-adv-x="472" 
d="M342 80l-114 204l114 200h31l-106 -201l105 -203h-30zM436 484l-87 -203l86 -201h-30l-93 201l93 203h31zM149 80l-114 204l114 200h31l-106 -201l105 -203h-30zM243 484l-87 -203l86 -201h-30l-93 201l93 203h31z" />
    <glyph glyph-name="registered" unicode="&#xae;" horiz-adv-x="420" 
d="M376 571q0 -70 -48.5 -118t-118.5 -48t-117.5 48t-47.5 118t48.5 118t118.5 48t117.5 -48t47.5 -118zM355 571q0 62 -42.5 104.5t-102.5 42.5t-102.5 -42.5t-42.5 -104.5q0 -61 41.5 -104t103.5 -43q60 0 102.5 42.5t42.5 104.5zM285 482h-33l-68 58v-58h-22v183h42
q31 0 51.5 -16.5t20.5 -41.5q0 -28 -18 -45t-45 -21zM252 606q0 17 -13.5 27.5t-34.5 10.5h-20v-84h16q22 0 37 11.5t15 34.5z" />
    <glyph glyph-name="macron" unicode="&#xaf;" horiz-adv-x="484" 
d="M383 875v-25h-282v25h282zM383 795h-282v25h282v-25z" />
    <glyph glyph-name="degree" unicode="&#xb0;" horiz-adv-x="444" 
d="M397 563q0 -75 -50.5 -125t-124.5 -50q-75 0 -125 50t-50 125t50 124.5t125 49.5q74 0 124.5 -49.5t50.5 -124.5zM307 562q0 39 -25.5 65.5t-59.5 26.5q-35 0 -60.5 -25t-25.5 -65q0 -39 26 -66t60 -27q35 0 60 25.5t25 65.5zM335 562q0 -49 -32.5 -83t-80.5 -34
t-80.5 35t-32.5 84t32.5 82.5t80.5 33.5t80.5 -34.5t32.5 -83.5zM370 563q0 63 -42.5 106.5t-105.5 43.5t-106 -43.5t-43 -106.5t43 -107t106 -44t105.5 44t42.5 107z" />
    <glyph glyph-name="plusminus" unicode="&#xb1;" horiz-adv-x="550" 
d="M293 182v202h195v-29h-165v-173h-30zM257 182h-30v173h-165v29h195v-202zM62 418v28h165v174h30v-202h-195zM293 620h30v-174h165v-28h-195v202zM60 28h430v-28h-430v28zM60 66v28h430v-28h-430z" />
    <glyph glyph-name="acute" unicode="&#xb4;" horiz-adv-x="519" 
d="M217 774l-13 17l176 111l23 -24zM334 948l25 -22l-170 -118l-14 17z" />
    <glyph glyph-name="paragraph" unicode="&#xb6;" horiz-adv-x="756" 
d="M672 0h-245q-175 0 -280.5 100t-105.5 257q0 154 107.5 258.5t273.5 104.5h250v-720zM575 632h-68v-544h68v544zM477 660h128v-600h-128v600zM439 60h-12q-142 0 -228.5 85t-86.5 216q0 130 87.5 213.5t222.5 85.5h17v-600zM427 28h216v664h-222q-152 0 -250.5 -94.5
t-98.5 -238.5t98 -237.5t257 -93.5zM408 91v537h-5q-105 0 -182 -75.5t-77 -192.5q0 -115 75 -192t184 -77h5z" />
    <glyph glyph-name="periodcentered" unicode="&#xb7;" horiz-adv-x="282" 
d="M175 302q0 17 -10.5 28.5t-28.5 11.5t-28.5 -11.5t-10.5 -28.5t10.5 -28t28.5 -11t28.5 11t10.5 28zM203 302q0 -28 -19.5 -47t-47.5 -19t-47.5 19t-19.5 47t19.5 47.5t47.5 19.5t47.5 -19.5t19.5 -47.5z" />
    <glyph glyph-name="cedilla" unicode="&#xb8;" horiz-adv-x="518" 
d="M301 4l23 -5l-72 -174l-30 8zM189 -158l-30 9l93 159l25 -3z" />
    <glyph glyph-name="ordmasculine" unicode="&#xba;" horiz-adv-x="500" 
d="M150 535q0 -49 28.5 -82.5t70.5 -33.5t70.5 33.5t28.5 82.5t-28.5 82.5t-70.5 33.5t-70.5 -33.5t-28.5 -82.5zM88 535q0 -74 46 -124.5t115 -50.5t115 50.5t46 124.5t-46 124.5t-115 50.5t-115 -50.5t-46 -124.5zM68 221h364v-26h-364v26zM432 251h-364v27h364v-27z
M436 535q0 -85 -53 -142.5t-134 -57.5t-134 57.5t-53 142.5t53 142.5t134 57.5t134 -57.5t53 -142.5zM376 535q0 -60 -36.5 -101.5t-90.5 -41.5t-90.5 41.5t-36.5 101.5t36.5 101.5t90.5 41.5t90.5 -41.5t36.5 -101.5z" />
    <glyph glyph-name="guillemotright" unicode="&#xbb;" horiz-adv-x="472" 
d="M435 284l-114 -204h-30l105 203l-106 201h31zM314 281l-87 203h31l93 -203l-93 -201h-30zM242 284l-114 -204h-30l105 203l-106 201h31zM121 281l-87 203h31l93 -203l-93 -201h-30z" />
    <glyph glyph-name="questiondown" unicode="&#xbf;" horiz-adv-x="502" 
d="M254 512h26l-1 -135q-97 -33 -144 -77.5t-47 -123.5q0 -71 49 -115.5t133 -44.5q89 0 176 60l6 -32q-87 -57 -182 -57q-102 0 -157 53t-55 136q0 87 49.5 136.5t141.5 83.5zM432 141l6 -32q-82 -60 -167 -60q-69 0 -107.5 35.5t-38.5 93.5q0 68 44.5 108t144.5 67l-1 159
h26l5 -180q-103 -27 -146 -60.5t-43 -93.5q0 -46 31 -73t85 -27q78 0 161 63zM259 672q0 -16 10.5 -27t27.5 -11t27.5 11t10.5 27t-10.5 27t-27.5 11t-27.5 -11t-10.5 -27zM232 672q0 27 19 45.5t46 18.5t46 -18.5t19 -45.5t-19 -45.5t-46 -18.5t-46 18.5t-19 45.5z" />
    <glyph glyph-name="Agrave" unicode="&#xc0;" horiz-adv-x="658" 
d="M375 794l-13 -17l-186 104l23 24zM220 929l25 22l159 -123l-14 -17zM331 695l-274 -695h-32l294 736h28l286 -736h-32l-266 695h-4zM333 602l154 -405h-316zM179 135l-50 -135h-32l61 163h342l61 -163h-32l-50 135h-300zM446 225l-113 302l-121 -302h234z" />
    <glyph glyph-name="Aacute" unicode="&#xc1;" horiz-adv-x="658" 
d="M331 695l-274 -695h-32l294 736h28l286 -736h-32l-266 695h-4zM333 602l154 -405h-316zM179 135l-50 -135h-32l61 163h342l61 -163h-32l-50 135h-300zM446 225l-113 302l-121 -302h234zM308 777l-13 17l176 111l23 -24zM425 951l25 -22l-170 -118l-14 17z" />
    <glyph glyph-name="Acircumflex" unicode="&#xc2;" horiz-adv-x="658" 
d="M331 695l-274 -695h-32l294 736h28l286 -736h-32l-266 695h-4zM333 602l154 -405h-316zM179 135l-50 -135h-32l61 163h342l61 -163h-32l-50 135h-300zM446 225l-113 302l-121 -302h234zM335 908l148 -76l-8 -20l-140 62l-140 -62l-8 20zM334 805l-121 -35l-9 20l131 48
l131 -48l-9 -20z" />
    <glyph glyph-name="Atilde" unicode="&#xc3;" horiz-adv-x="658" 
d="M331 695l-274 -695h-32l294 736h28l286 -736h-32l-266 695h-4zM333 602l154 -405h-316zM179 135l-50 -135h-32l61 163h342l61 -163h-32l-50 135h-300zM446 225l-113 302l-121 -302h234zM338 817q40 -19 58 -19q31 0 73 37l5 -25q-42 -38 -81 -38q-23 0 -55 15
q-48 23 -61 23q-25 0 -58 -30l-5 27q35 31 64 31q16 0 60 -21zM338 878q48 -23 61 -23q25 0 58 30l5 -27q-35 -31 -64 -31q-16 0 -60 21q-40 19 -58 19q-31 0 -73 -37l-5 25q42 38 81 38q23 0 55 -15z" />
    <glyph glyph-name="Adieresis" unicode="&#xc4;" horiz-adv-x="658" 
d="M271 827q0 14 -10 24.5t-25 10.5q-14 0 -24.5 -10.5t-10.5 -24.5t10.5 -24.5t24.5 -10.5q15 0 25 10.5t10 24.5zM297 827q0 -26 -18 -43t-43 -17q-24 0 -42.5 17t-18.5 43t18.5 43t42.5 17q25 0 43 -17t18 -43zM470 827q0 14 -10.5 24.5t-24.5 10.5q-15 0 -25 -10.5
t-10 -24.5t10 -24.5t25 -10.5q14 0 24.5 10.5t10.5 24.5zM496 827q0 -26 -18.5 -43t-42.5 -17q-25 0 -43 17t-18 43t18 43t43 17q24 0 42.5 -17t18.5 -43zM331 695l-274 -695h-32l294 736h28l286 -736h-32l-266 695h-4zM333 602l154 -405h-316zM179 135l-50 -135h-32l61 163
h342l61 -163h-32l-50 135h-300zM446 225l-113 302l-121 -302h234z" />
    <glyph glyph-name="Aring" unicode="&#xc5;" horiz-adv-x="658" 
d="M333 602l154 -405h-316zM179 135l-50 -135h-32l61 163h342l61 -163h-32l-50 135h-300zM446 225l-113 302l-121 -302h234zM360 718q0 11 -8.5 19.5t-18.5 8.5t-18.5 -8.5t-8.5 -19.5t8 -19.5t19 -8.5t19 8.5t8 19.5zM386 718q0 -24 -16.5 -38.5t-36.5 -14.5q-21 0 -37 14
t-16 39q0 21 16 36.5t37 15.5t37 -15.5t16 -36.5zM601 0l-243 638q60 24 60 80q0 36 -26 60t-59 24q-34 0 -59.5 -24t-25.5 -60q0 -31 19 -52.5t41 -28.5l-251 -637h-32l250 625q-54 37 -54 93q0 49 33 79.5t79 30.5t79 -30.5t33 -79.5q0 -57 -54 -93l242 -625h-32z" />
    <glyph glyph-name="AE" unicode="&#xc6;" horiz-adv-x="782" 
d="M723 90v-28h-260v328h253v-28h-223v-272h230zM716 452v-28h-253v234h258v-28h-228v-178h223zM425 191v-163h298v-28h-328v163h-194l-85 -163h-34l100 191h243zM425 225h-225l225 430v-430zM406 692l-362 -692h-34l377 720h334v-28h-315zM248 252h149v290z" />
    <glyph glyph-name="Ccedilla" unicode="&#xc7;" horiz-adv-x="707" 
d="M635 150l7 -30q-120 -70 -225 -70q-131 0 -217 87.5t-86 222.5q0 134 87 222t218 88q115 0 212 -73l-11 -29q-40 31 -95.5 52t-107.5 21q-119 0 -195.5 -78.5t-76.5 -200.5q0 -124 77 -203.5t197 -79.5q105 0 216 71zM372 -11l-73 -137l-30 9l77 132q-132 23 -216.5 124
t-84.5 241q0 159 108.5 267t267.5 108q131 0 233 -71l-11 -30q-105 72 -224 72q-145 0 -244 -96t-99 -248q0 -134 79.5 -228t206.5 -112l25 -2zM399 -12l14 28h25q111 7 212 72l6 -29q-111 -68 -230 -72l-64 -152l-29 9z" />
    <glyph glyph-name="Egrave" unicode="&#xc8;" horiz-adv-x="489" 
d="M430 0h-328v720h326v-28h-296v-664h298v-28zM430 90v-28h-260v328h253v-28h-223v-272h230zM423 452v-28h-253v234h258v-28h-228v-178h223zM293 791l-13 -17l-186 104l23 24zM138 926l25 22l159 -123l-14 -17z" />
    <glyph glyph-name="Eacute" unicode="&#xc9;" horiz-adv-x="481" 
d="M422 0h-328v720h326v-28h-296v-664h298v-28zM422 90v-28h-260v328h253v-28h-223v-272h230zM415 452v-28h-253v234h258v-28h-228v-178h223zM218 774l-13 17l176 111l23 -24zM335 948l25 -22l-170 -118l-14 17z" />
    <glyph glyph-name="Ecircumflex" unicode="&#xca;" horiz-adv-x="481" 
d="M257 913l148 -76l-8 -20l-140 62l-140 -62l-8 20zM256 810l-121 -35l-9 20l131 48l131 -48l-9 -20zM422 0h-328v720h326v-28h-296v-664h298v-28zM422 90v-28h-260v328h253v-28h-223v-272h230zM415 452v-28h-253v234h258v-28h-228v-178h223z" />
    <glyph glyph-name="Edieresis" unicode="&#xcb;" horiz-adv-x="481" 
d="M422 0h-328v720h326v-28h-296v-664h298v-28zM422 90v-28h-260v328h253v-28h-223v-272h230zM415 452v-28h-253v234h258v-28h-228v-178h223zM193 827q0 14 -10 24.5t-25 10.5q-14 0 -24.5 -10.5t-10.5 -24.5t10.5 -24.5t24.5 -10.5q15 0 25 10.5t10 24.5zM219 827
q0 -26 -18 -43t-43 -17q-24 0 -42.5 17t-18.5 43t18.5 43t42.5 17q25 0 43 -17t18 -43zM392 827q0 14 -10.5 24.5t-24.5 10.5q-15 0 -25 -10.5t-10 -24.5t10 -24.5t25 -10.5q14 0 24.5 10.5t10.5 24.5zM418 827q0 -26 -18.5 -43t-42.5 -17q-25 0 -43 17t-18 43t18 43t43 17
q24 0 42.5 -17t18.5 -43z" />
    <glyph glyph-name="Igrave" unicode="&#xcc;" horiz-adv-x="290" 
d="M174 791l-13 -17l-186 104l23 24zM19 926l25 22l159 -123l-14 -17zM126 720v-720h-30v720h30zM194 0h-30v720h30v-720z" />
    <glyph glyph-name="Iacute" unicode="&#xcd;" horiz-adv-x="290" 
d="M126 720v-720h-30v720h30zM194 0h-30v720h30v-720zM107 774l-13 17l176 111l23 -24zM224 948l25 -22l-170 -118l-14 17z" />
    <glyph glyph-name="Icircumflex" unicode="&#xce;" horiz-adv-x="290" 
d="M126 720v-720h-30v720h30zM194 0h-30v720h30v-720zM146 913l148 -76l-8 -20l-140 62l-140 -62l-8 20zM145 810l-121 -35l-9 20l131 48l131 -48l-9 -20z" />
    <glyph glyph-name="Idieresis" unicode="&#xcf;" horiz-adv-x="290" 
d="M126 720v-720h-30v720h30zM194 0h-30v720h30v-720zM82 827q0 14 -10 24.5t-25 10.5q-14 0 -24.5 -10.5t-10.5 -24.5t10.5 -24.5t24.5 -10.5q15 0 25 10.5t10 24.5zM108 827q0 -26 -18 -43t-43 -17q-24 0 -42.5 17t-18.5 43t18.5 43t42.5 17q25 0 43 -17t18 -43zM281 827
q0 14 -10.5 24.5t-24.5 10.5q-15 0 -25 -10.5t-10 -24.5t10 -24.5t25 -10.5q14 0 24.5 10.5t10.5 24.5zM307 827q0 -26 -18.5 -43t-42.5 -17q-25 0 -43 17t-18 43t18 43t43 17q24 0 42.5 -17t18.5 -43z" />
    <glyph glyph-name="Eth" unicode="&#xd0;" horiz-adv-x="639" 
d="M104 366h-68v27h98v-365h80q153 0 251 96.5t98 240.5t-95.5 235.5t-247.5 91.5h-86v-270h-98v27h68v271h116q166 0 270 -99t104 -254q0 -157 -107.5 -262t-272.5 -105h-110v366zM201 366v-276h14q123 0 200 77t77 196t-75.5 193t-197.5 74h-18v-181h149v-27h-178v236h46
q136 0 220 -80t84 -213q0 -132 -84.5 -217.5t-223.5 -85.5h-42v331h178v-27h-149z" />
    <glyph glyph-name="Ntilde" unicode="&#xd1;" horiz-adv-x="670" 
d="M576 -9h-35l-353 500l1 -491h-29v577l383 -543h4v686h29v-729zM94 0v729h36l352 -498l-1 489h29v-576l-382 542h-5v-686h-29zM325 814q40 -19 58 -19q31 0 73 37l5 -25q-42 -38 -81 -38q-23 0 -55 15q-48 23 -61 23q-25 0 -58 -30l-5 27q35 31 64 31q16 0 60 -21z
M325 875q48 -23 61 -23q26 0 58 30l5 -27q-35 -31 -64 -31q-16 0 -60 21q-40 19 -58 19q-31 0 -73 -37l-5 25q42 38 81 38q23 0 55 -15z" />
    <glyph glyph-name="Ograve" unicode="&#xd2;" 
d="M472 796l-13 -17l-186 104l23 24zM317 931l25 22l159 -123l-14 -17zM45 358q0 159 110.5 269t267.5 110q156 0 265 -109t109 -266q0 -159 -110.5 -269t-267.5 -110t-265.5 108t-108.5 267zM76 360q0 -147 99.5 -247.5t245.5 -100.5q143 0 244 101.5t101 246.5
q0 147 -99.5 247.5t-245.5 100.5q-143 0 -244 -101.5t-101 -246.5zM117 360q0 133 87 222.5t217 89.5t217 -89.5t87 -222.5t-87 -222.5t-217 -89.5t-217 89.5t-87 222.5zM147 362q0 -122 79 -203t197 -81q115 0 193.5 81t78.5 199q0 122 -79 203t-197 81
q-115 0 -193.5 -81.5t-78.5 -198.5z" />
    <glyph glyph-name="Oacute" unicode="&#xd3;" 
d="M45 358q0 159 110.5 269t267.5 110q156 0 265 -109t109 -266q0 -159 -110.5 -269t-267.5 -110t-265.5 108t-108.5 267zM76 360q0 -147 99.5 -247.5t245.5 -100.5q143 0 244 101.5t101 246.5q0 147 -99.5 247.5t-245.5 100.5q-143 0 -244 -101.5t-101 -246.5zM117 360
q0 133 87 222.5t217 89.5t217 -89.5t87 -222.5t-87 -222.5t-217 -89.5t-217 89.5t-87 222.5zM147 362q0 -122 79 -203t197 -81q115 0 193.5 81t78.5 199q0 122 -79 203t-197 81q-115 0 -193.5 -81.5t-78.5 -198.5zM382 779l-13 17l176 111l23 -24zM499 953l25 -22l-170 -118
l-14 17z" />
    <glyph glyph-name="Ocircumflex" unicode="&#xd4;" 
d="M45 358q0 159 110.5 269t267.5 110q156 0 265 -109t109 -266q0 -159 -110.5 -269t-267.5 -110t-265.5 108t-108.5 267zM76 360q0 -147 99.5 -247.5t245.5 -100.5q143 0 244 101.5t101 246.5q0 147 -99.5 247.5t-245.5 100.5q-143 0 -244 -101.5t-101 -246.5zM117 360
q0 133 87 222.5t217 89.5t217 -89.5t87 -222.5t-87 -222.5t-217 -89.5t-217 89.5t-87 222.5zM147 362q0 -122 79 -203t197 -81q115 0 193.5 81t78.5 199q0 122 -79 203t-197 81q-115 0 -193.5 -81.5t-78.5 -198.5zM421 918l148 -76l-8 -20l-140 62l-140 -62l-8 20zM420 815
l-121 -35l-9 20l131 48l131 -48l-9 -20z" />
    <glyph glyph-name="Otilde" unicode="&#xd5;" 
d="M45 358q0 159 110.5 269t267.5 110q156 0 265 -109t109 -266q0 -159 -110.5 -269t-267.5 -110t-265.5 108t-108.5 267zM76 360q0 -147 99.5 -247.5t245.5 -100.5q143 0 244 101.5t101 246.5q0 147 -99.5 247.5t-245.5 100.5q-143 0 -244 -101.5t-101 -246.5zM117 360
q0 133 87 222.5t217 89.5t217 -89.5t87 -222.5t-87 -222.5t-217 -89.5t-217 89.5t-87 222.5zM147 362q0 -122 79 -203t197 -81q115 0 193.5 81t78.5 199q0 122 -79 203t-197 81q-115 0 -193.5 -81.5t-78.5 -198.5zM424 824q40 -19 58 -19q31 0 73 37l5 -25q-42 -38 -81 -38
q-23 0 -55 15q-48 23 -61 23q-25 0 -58 -30l-5 27q35 31 64 31q16 0 60 -21zM424 885q48 -23 61 -23q25 0 58 30l5 -27q-35 -31 -64 -31q-16 0 -60 21q-40 19 -58 19q-31 0 -73 -37l-5 25q42 38 81 38q23 0 55 -15z" />
    <glyph glyph-name="Odieresis" unicode="&#xd6;" 
d="M357 832q0 14 -10 24.5t-25 10.5q-14 0 -24.5 -10.5t-10.5 -24.5t10.5 -24.5t24.5 -10.5q15 0 25 10.5t10 24.5zM383 832q0 -26 -18 -43t-43 -17q-24 0 -42.5 17t-18.5 43t18.5 43t42.5 17q25 0 43 -17t18 -43zM556 832q0 14 -10.5 24.5t-24.5 10.5q-15 0 -25 -10.5
t-10 -24.5t10 -24.5t25 -10.5q14 0 24.5 10.5t10.5 24.5zM582 832q0 -26 -18.5 -43t-42.5 -17q-25 0 -43 17t-18 43t18 43t43 17q24 0 42.5 -17t18.5 -43zM45 358q0 159 110.5 269t267.5 110q156 0 265 -109t109 -266q0 -159 -110.5 -269t-267.5 -110t-265.5 108t-108.5 267
zM76 360q0 -147 99.5 -247.5t245.5 -100.5q143 0 244 101.5t101 246.5q0 147 -99.5 247.5t-245.5 100.5q-143 0 -244 -101.5t-101 -246.5zM117 360q0 133 87 222.5t217 89.5t217 -89.5t87 -222.5t-87 -222.5t-217 -89.5t-217 89.5t-87 222.5zM147 362q0 -122 79 -203
t197 -81q115 0 193.5 81t78.5 199q0 122 -79 203t-197 81q-115 0 -193.5 -81.5t-78.5 -198.5z" />
    <glyph glyph-name="multiply" unicode="&#xd7;" horiz-adv-x="516" 
d="M413 578l-154 -155l-154 155l21 21l133 -133l132 133zM440 243l-155 154l155 154l21 -20l-134 -134l134 -133zM410 214l-21 -22l-132 134l-132 -134l-22 22l154 155zM76 241l-21 22l136 132l-136 132l21 22l155 -154z" />
    <glyph glyph-name="Oslash" unicode="&#xd8;" 
d="M235 109l397 480l20 -23q73 -87 73 -206q0 -133 -87 -222.5t-217 -89.5q-88 0 -160 44zM604 611l-396 -479q-19 19 -22 25q-69 83 -69 203q0 133 87 222.5t217 89.5q84 0 157 -43zM695 358q0 111 -63 186l-353 -427q63 -39 144 -39q115 0 193.5 81t78.5 199zM147 362
q0 -111 60 -184l354 426q-61 38 -142 38q-115 0 -193.5 -81.5t-78.5 -198.5zM656 617l65 78l23 -17l-48 -57q101 -104 101 -259q0 -159 -110.5 -269t-267.5 -110q-113 0 -203 58l-46 -55l-23 17l65 78q11 -11 25 -18q84 -51 184 -51q143 0 244 101.5t101 246.5
q0 136 -88 235zM691 716l-63 -76l-26 18q-81 50 -181 50q-143 0 -244 -101.5t-101 -246.5q0 -137 86 -234l22 -22l-67 -80l-23 17l49 59q-98 104 -98 258q0 159 110.5 269t267.5 110q111 0 200 -58l45 54z" />
    <glyph glyph-name="Ugrave" unicode="&#xd9;" horiz-adv-x="640" 
d="M559 720v-479q0 -110 -65.5 -183t-175.5 -73q-109 0 -173 73.5t-64 181.5v480h30v-477q0 -100 56.5 -164.5t152.5 -64.5t152.5 64t56.5 165v477h30zM461 720h30v-475q0 -89 -45.5 -142t-125.5 -53q-81 0 -126 53.5t-45 142.5v474h30v-472q0 -78 37.5 -123.5t104.5 -45.5
q65 0 102.5 45t37.5 123v473zM371 775l-13 -17l-186 104l23 24zM216 910l25 22l159 -123l-14 -17z" />
    <glyph glyph-name="Uacute" unicode="&#xda;" horiz-adv-x="640" 
d="M559 720v-479q0 -110 -65.5 -183t-175.5 -73q-109 0 -173 73.5t-64 181.5v480h30v-477q0 -100 56.5 -164.5t152.5 -64.5t152.5 64t56.5 165v477h30zM461 720h30v-475q0 -89 -45.5 -142t-125.5 -53q-81 0 -126 53.5t-45 142.5v474h30v-472q0 -78 37.5 -123.5t104.5 -45.5
q65 0 102.5 45t37.5 123v473zM281 758l-13 17l176 111l23 -24zM398 932l25 -22l-170 -118l-14 17z" />
    <glyph glyph-name="Ucircumflex" unicode="&#xdb;" horiz-adv-x="640" 
d="M320 908l148 -76l-8 -20l-140 62l-140 -62l-8 20zM319 805l-121 -35l-9 20l131 48l131 -48l-9 -20zM559 720v-479q0 -110 -65.5 -183t-175.5 -73q-109 0 -173 73.5t-64 181.5v480h30v-477q0 -100 56.5 -164.5t152.5 -64.5t152.5 64t56.5 165v477h30zM461 720h30v-475
q0 -89 -45.5 -142t-125.5 -53q-81 0 -126 53.5t-45 142.5v474h30v-472q0 -78 37.5 -123.5t104.5 -45.5q65 0 102.5 45t37.5 123v473z" />
    <glyph glyph-name="Udieresis" unicode="&#xdc;" horiz-adv-x="640" 
d="M559 720v-479q0 -110 -65.5 -183t-175.5 -73q-109 0 -173 73.5t-64 181.5v480h30v-477q0 -100 56.5 -164.5t152.5 -64.5t152.5 64t56.5 165v477h30zM461 720h30v-475q0 -89 -45.5 -142t-125.5 -53q-81 0 -126 53.5t-45 142.5v474h30v-472q0 -78 37.5 -123.5t104.5 -45.5
q65 0 102.5 45t37.5 123v473zM256 822q0 14 -10 24.5t-25 10.5q-14 0 -24.5 -10.5t-10.5 -24.5t10.5 -24.5t24.5 -10.5q15 0 25 10.5t10 24.5zM282 822q0 -26 -18 -43t-43 -17q-24 0 -42.5 17t-18.5 43t18.5 43t42.5 17q25 0 43 -17t18 -43zM455 822q0 14 -10.5 24.5
t-24.5 10.5q-15 0 -25 -10.5t-10 -24.5t10 -24.5t25 -10.5q14 0 24.5 10.5t10.5 24.5zM481 822q0 -26 -18.5 -43t-42.5 -17q-25 0 -43 17t-18 43t18 43t43 17q24 0 42.5 -17t18.5 -43z" />
    <glyph glyph-name="Yacute" unicode="&#xdd;" horiz-adv-x="571" 
d="M236 316l-225 404h33l223 -399v-321h-31v316zM335 0h-31v321l223 399h33l-225 -404v-316zM287 421l166 299h33l-199 -360l-201 360h33zM251 758l-13 17l176 111l23 -24zM368 932l25 -22l-170 -118l-14 17z" />
    <glyph glyph-name="Thorn" unicode="&#xde;" horiz-adv-x="545" 
d="M192 521v-313h18q37 0 71 7.5t65.5 24t50 48t18.5 75.5q0 79 -57 118.5t-137 39.5h-29zM161 180l1 369h64q94 0 157 -47t63 -137q0 -65 -35.5 -108.5t-85.5 -60t-111 -16.5h-53zM162 146h57q50 0 95.5 12.5t84.5 37t62 68.5t23 101q0 105 -75 161.5t-185 56.5h-62v137h30
v-109h31q127 0 210 -64t83 -180q0 -65 -27 -115t-72.5 -78t-98.5 -41.5t-113 -13.5h-13v-119h-30v146zM124 720v-720h-30v720h30z" />
    <glyph glyph-name="germandbls" unicode="&#xdf;" horiz-adv-x="1048" 
d="M60 98l9 29q96 -48 170 -48q60 0 97 31.5t37 81.5q0 44 -30 79t-107 83q-86 54 -122 101.5t-36 102.5q0 73 55.5 124t147.5 51q79 0 157 -39l-9 -28q-76 38 -149 38q-77 0 -124.5 -42.5t-47.5 -103.5q0 -47 32 -89t113 -92q88 -55 119 -93.5t31 -91.5q0 -62 -45 -101.5
t-120 -39.5q-87 0 -178 47zM42 36l8 29q95 -48 187 -48t148.5 51t56.5 126q0 64 -36.5 109t-132.5 104q-73 46 -99.5 79.5t-26.5 72.5q0 47 33.5 79t98.5 32q67 0 141 -37l-9 -28q-73 37 -133 37q-50 0 -75.5 -23.5t-25.5 -59.5q0 -31 24.5 -58.5t88.5 -68.5
q96 -60 139 -113t43 -125q0 -86 -65.5 -146t-170.5 -60q-99 0 -194 48zM584 98l9 29q96 -48 170 -48q60 0 97 31.5t37 81.5q0 44 -30 79t-107 83q-86 54 -122 101.5t-36 102.5q0 73 55.5 124t147.5 51q79 0 157 -39l-9 -28q-76 38 -149 38q-77 0 -124.5 -42.5t-47.5 -103.5
q0 -47 32 -89t113 -92q88 -55 119 -93.5t31 -91.5q0 -62 -45 -101.5t-120 -39.5q-87 0 -178 47zM566 36l8 29q95 -48 187 -48t148.5 51t56.5 126q0 64 -36.5 109t-132.5 104q-73 46 -99.5 79.5t-26.5 72.5q0 47 33.5 79t98.5 32q67 0 141 -37l-9 -28q-73 37 -133 37
q-50 0 -75.5 -23.5t-25.5 -59.5q0 -31 24.5 -58.5t88.5 -68.5q96 -60 139 -113t43 -125q0 -86 -65.5 -146t-170.5 -60q-99 0 -194 48z" />
    <glyph glyph-name="agrave" unicode="&#xe0;" horiz-adv-x="658" 
d="M375 794l-13 -17l-186 104l23 24zM220 929l25 22l159 -123l-14 -17zM331 695l-274 -695h-32l294 736h28l286 -736h-32l-266 695h-4zM333 602l154 -405h-316zM179 135l-50 -135h-32l61 163h342l61 -163h-32l-50 135h-300zM446 225l-113 302l-121 -302h234z" />
    <glyph glyph-name="aacute" unicode="&#xe1;" horiz-adv-x="658" 
d="M308 777l-13 17l176 111l23 -24zM425 951l25 -22l-170 -118l-14 17zM331 695l-274 -695h-32l294 736h28l286 -736h-32l-266 695h-4zM333 602l154 -405h-316zM179 135l-50 -135h-32l61 163h342l61 -163h-32l-50 135h-300zM446 225l-113 302l-121 -302h234z" />
    <glyph glyph-name="acircumflex" unicode="&#xe2;" horiz-adv-x="658" 
d="M335 908l148 -76l-8 -20l-140 62l-140 -62l-8 20zM334 805l-121 -35l-9 20l131 48l131 -48l-9 -20zM331 695l-274 -695h-32l294 736h28l286 -736h-32l-266 695h-4zM333 602l154 -405h-316zM179 135l-50 -135h-32l61 163h342l61 -163h-32l-50 135h-300zM446 225l-113 302
l-121 -302h234z" />
    <glyph glyph-name="atilde" unicode="&#xe3;" horiz-adv-x="658" 
d="M338 817q40 -19 58 -19q31 0 73 37l5 -25q-42 -38 -81 -38q-23 0 -55 15q-48 23 -61 23q-25 0 -58 -30l-5 27q35 31 64 31q16 0 60 -21zM338 878q48 -23 61 -23q25 0 58 30l5 -27q-35 -31 -64 -31q-16 0 -60 21q-40 19 -58 19q-31 0 -73 -37l-5 25q42 38 81 38
q23 0 55 -15zM331 695l-274 -695h-32l294 736h28l286 -736h-32l-266 695h-4zM333 602l154 -405h-316zM179 135l-50 -135h-32l61 163h342l61 -163h-32l-50 135h-300zM446 225l-113 302l-121 -302h234z" />
    <glyph glyph-name="adieresis" unicode="&#xe4;" horiz-adv-x="658" 
d="M271 827q0 14 -10 24.5t-25 10.5q-14 0 -24.5 -10.5t-10.5 -24.5t10.5 -24.5t24.5 -10.5q15 0 25 10.5t10 24.5zM297 827q0 -26 -18 -43t-43 -17q-24 0 -42.5 17t-18.5 43t18.5 43t42.5 17q25 0 43 -17t18 -43zM470 827q0 14 -10.5 24.5t-24.5 10.5q-15 0 -25 -10.5
t-10 -24.5t10 -24.5t25 -10.5q14 0 24.5 10.5t10.5 24.5zM496 827q0 -26 -18.5 -43t-42.5 -17q-25 0 -43 17t-18 43t18 43t43 17q24 0 42.5 -17t18.5 -43zM331 695l-274 -695h-32l294 736h28l286 -736h-32l-266 695h-4zM333 602l154 -405h-316zM179 135l-50 -135h-32l61 163
h342l61 -163h-32l-50 135h-300zM446 225l-113 302l-121 -302h234z" />
    <glyph glyph-name="aring" unicode="&#xe5;" horiz-adv-x="658" 
d="M333 602l154 -405h-316zM179 135l-50 -135h-32l61 163h342l61 -163h-32l-50 135h-300zM446 225l-113 302l-121 -302h234zM360 718q0 11 -8.5 19.5t-18.5 8.5t-18.5 -8.5t-8.5 -19.5t8 -19.5t19 -8.5t19 8.5t8 19.5zM386 718q0 -24 -16.5 -38.5t-36.5 -14.5q-21 0 -37 14
t-16 39q0 21 16 36.5t37 15.5t37 -15.5t16 -36.5zM601 0l-243 638q60 24 60 80q0 36 -26 60t-59 24q-34 0 -59.5 -24t-25.5 -60q0 -31 19 -52.5t41 -28.5l-251 -637h-32l250 625q-54 37 -54 93q0 49 33 79.5t79 30.5t79 -30.5t33 -79.5q0 -57 -54 -93l242 -625h-32z" />
    <glyph glyph-name="ae" unicode="&#xe6;" horiz-adv-x="782" 
d="M723 90v-28h-260v328h253v-28h-223v-272h230zM716 452v-28h-253v234h258v-28h-228v-178h223zM425 191v-163h298v-28h-328v163h-194l-85 -163h-34l100 191h243zM425 225h-225l225 430v-430zM406 692l-362 -692h-34l377 720h334v-28h-315zM248 252h149v290z" />
    <glyph glyph-name="ccedilla" unicode="&#xe7;" horiz-adv-x="707" 
d="M635 150l7 -30q-120 -70 -225 -70q-131 0 -217 87.5t-86 222.5q0 134 87 222t218 88q115 0 212 -73l-11 -29q-40 31 -95.5 52t-107.5 21q-119 0 -195.5 -78.5t-76.5 -200.5q0 -124 77 -203.5t197 -79.5q105 0 216 71zM372 -11l-73 -137l-30 9l77 132q-132 23 -216.5 124
t-84.5 241q0 159 108.5 267t267.5 108q131 0 233 -71l-11 -30q-105 72 -224 72q-145 0 -244 -96t-99 -248q0 -134 79.5 -228t206.5 -112l25 -2zM399 -12l14 28h25q111 7 212 72l6 -29q-111 -68 -230 -72l-64 -152l-29 9z" />
    <glyph glyph-name="egrave" unicode="&#xe8;" horiz-adv-x="481" 
d="M293 791l-13 -17l-186 104l23 24zM138 926l25 22l159 -123l-14 -17zM422 0h-328v720h326v-28h-296v-664h298v-28zM422 90v-28h-260v328h253v-28h-223v-272h230zM415 452v-28h-253v234h258v-28h-228v-178h223z" />
    <glyph glyph-name="eacute" unicode="&#xe9;" horiz-adv-x="481" 
d="M218 774l-13 17l176 111l23 -24zM335 948l25 -22l-170 -118l-14 17zM422 0h-328v720h326v-28h-296v-664h298v-28zM422 90v-28h-260v328h253v-28h-223v-272h230zM415 452v-28h-253v234h258v-28h-228v-178h223z" />
    <glyph glyph-name="ecircumflex" unicode="&#xea;" horiz-adv-x="481" 
d="M257 913l148 -76l-8 -20l-140 62l-140 -62l-8 20zM256 810l-121 -35l-9 20l131 48l131 -48l-9 -20zM422 0h-328v720h326v-28h-296v-664h298v-28zM422 90v-28h-260v328h253v-28h-223v-272h230zM415 452v-28h-253v234h258v-28h-228v-178h223z" />
    <glyph glyph-name="edieresis" unicode="&#xeb;" horiz-adv-x="481" 
d="M193 827q0 14 -10 24.5t-25 10.5q-14 0 -24.5 -10.5t-10.5 -24.5t10.5 -24.5t24.5 -10.5q15 0 25 10.5t10 24.5zM219 827q0 -26 -18 -43t-43 -17q-24 0 -42.5 17t-18.5 43t18.5 43t42.5 17q25 0 43 -17t18 -43zM392 827q0 14 -10.5 24.5t-24.5 10.5q-15 0 -25 -10.5
t-10 -24.5t10 -24.5t25 -10.5q14 0 24.5 10.5t10.5 24.5zM418 827q0 -26 -18.5 -43t-42.5 -17q-25 0 -43 17t-18 43t18 43t43 17q24 0 42.5 -17t18.5 -43zM422 0h-328v720h326v-28h-296v-664h298v-28zM422 90v-28h-260v328h253v-28h-223v-272h230zM415 452v-28h-253v234h258
v-28h-228v-178h223z" />
    <glyph glyph-name="igrave" unicode="&#xec;" horiz-adv-x="290" 
d="M174 791l-13 -17l-186 104l23 24zM19 926l25 22l159 -123l-14 -17zM126 720v-720h-30v720h30zM194 0h-30v720h30v-720z" />
    <glyph glyph-name="iacute" unicode="&#xed;" horiz-adv-x="290" 
d="M107 774l-13 17l176 111l23 -24zM224 948l25 -22l-170 -118l-14 17zM126 720v-720h-30v720h30zM194 0h-30v720h30v-720z" />
    <glyph glyph-name="icircumflex" unicode="&#xee;" horiz-adv-x="290" 
d="M146 913l148 -76l-8 -20l-140 62l-140 -62l-8 20zM145 810l-121 -35l-9 20l131 48l131 -48l-9 -20zM126 720v-720h-30v720h30zM194 0h-30v720h30v-720z" />
    <glyph glyph-name="idieresis" unicode="&#xef;" horiz-adv-x="290" 
d="M82 827q0 14 -10 24.5t-25 10.5q-14 0 -24.5 -10.5t-10.5 -24.5t10.5 -24.5t24.5 -10.5q15 0 25 10.5t10 24.5zM108 827q0 -26 -18 -43t-43 -17q-24 0 -42.5 17t-18.5 43t18.5 43t42.5 17q25 0 43 -17t18 -43zM281 827q0 14 -10.5 24.5t-24.5 10.5q-15 0 -25 -10.5
t-10 -24.5t10 -24.5t25 -10.5q14 0 24.5 10.5t10.5 24.5zM307 827q0 -26 -18.5 -43t-42.5 -17q-25 0 -43 17t-18 43t18 43t43 17q24 0 42.5 -17t18.5 -43zM126 720v-720h-30v720h30zM194 0h-30v720h30v-720z" />
    <glyph glyph-name="eth" unicode="&#xf0;" horiz-adv-x="639" 
d="M104 366h-68v27h98v-365h80q153 0 251 96.5t98 240.5t-95.5 235.5t-247.5 91.5h-86v-270h-98v27h68v271h116q166 0 270 -99t104 -254q0 -157 -107.5 -262t-272.5 -105h-110v366zM201 366v-276h14q123 0 200 77t77 196t-75.5 193t-197.5 74h-18v-181h149v-27h-178v236h46
q136 0 220 -80t84 -213q0 -132 -84.5 -217.5t-223.5 -85.5h-42v331h178v-27h-149z" />
    <glyph glyph-name="ntilde" unicode="&#xf1;" horiz-adv-x="670" 
d="M325 814q40 -19 58 -19q31 0 73 37l5 -25q-42 -38 -81 -38q-23 0 -55 15q-48 23 -61 23q-25 0 -58 -30l-5 27q35 31 64 31q16 0 60 -21zM325 875q48 -23 61 -23q26 0 58 30l5 -27q-35 -31 -64 -31q-16 0 -60 21q-40 19 -58 19q-31 0 -73 -37l-5 25q42 38 81 38
q23 0 55 -15zM576 -9h-35l-353 500l1 -491h-29v577l383 -543h4v686h29v-729zM94 0v729h36l352 -498l-1 489h29v-576l-382 542h-5v-686h-29z" />
    <glyph glyph-name="ograve" unicode="&#xf2;" 
d="M472 796l-13 -17l-186 104l23 24zM317 931l25 22l159 -123l-14 -17zM45 358q0 159 110.5 269t267.5 110q156 0 265 -109t109 -266q0 -159 -110.5 -269t-267.5 -110t-265.5 108t-108.5 267zM76 360q0 -147 99.5 -247.5t245.5 -100.5q143 0 244 101.5t101 246.5
q0 147 -99.5 247.5t-245.5 100.5q-143 0 -244 -101.5t-101 -246.5zM117 360q0 133 87 222.5t217 89.5t217 -89.5t87 -222.5t-87 -222.5t-217 -89.5t-217 89.5t-87 222.5zM147 362q0 -122 79 -203t197 -81q115 0 193.5 81t78.5 199q0 122 -79 203t-197 81
q-115 0 -193.5 -81.5t-78.5 -198.5z" />
    <glyph glyph-name="oacute" unicode="&#xf3;" 
d="M382 779l-13 17l176 111l23 -24zM499 953l25 -22l-170 -118l-14 17zM45 358q0 159 110.5 269t267.5 110q156 0 265 -109t109 -266q0 -159 -110.5 -269t-267.5 -110t-265.5 108t-108.5 267zM76 360q0 -147 99.5 -247.5t245.5 -100.5q143 0 244 101.5t101 246.5
q0 147 -99.5 247.5t-245.5 100.5q-143 0 -244 -101.5t-101 -246.5zM117 360q0 133 87 222.5t217 89.5t217 -89.5t87 -222.5t-87 -222.5t-217 -89.5t-217 89.5t-87 222.5zM147 362q0 -122 79 -203t197 -81q115 0 193.5 81t78.5 199q0 122 -79 203t-197 81
q-115 0 -193.5 -81.5t-78.5 -198.5z" />
    <glyph glyph-name="ocircumflex" unicode="&#xf4;" 
d="M421 918l148 -76l-8 -20l-140 62l-140 -62l-8 20zM420 815l-121 -35l-9 20l131 48l131 -48l-9 -20zM45 358q0 159 110.5 269t267.5 110q156 0 265 -109t109 -266q0 -159 -110.5 -269t-267.5 -110t-265.5 108t-108.5 267zM76 360q0 -147 99.5 -247.5t245.5 -100.5
q143 0 244 101.5t101 246.5q0 147 -99.5 247.5t-245.5 100.5q-143 0 -244 -101.5t-101 -246.5zM117 360q0 133 87 222.5t217 89.5t217 -89.5t87 -222.5t-87 -222.5t-217 -89.5t-217 89.5t-87 222.5zM147 362q0 -122 79 -203t197 -81q115 0 193.5 81t78.5 199q0 122 -79 203
t-197 81q-115 0 -193.5 -81.5t-78.5 -198.5z" />
    <glyph glyph-name="otilde" unicode="&#xf5;" 
d="M424 824q40 -19 58 -19q31 0 73 37l5 -25q-42 -38 -81 -38q-23 0 -55 15q-48 23 -61 23q-25 0 -58 -30l-5 27q35 31 64 31q16 0 60 -21zM424 885q48 -23 61 -23q25 0 58 30l5 -27q-35 -31 -64 -31q-16 0 -60 21q-40 19 -58 19q-31 0 -73 -37l-5 25q42 38 81 38
q23 0 55 -15zM45 358q0 159 110.5 269t267.5 110q156 0 265 -109t109 -266q0 -159 -110.5 -269t-267.5 -110t-265.5 108t-108.5 267zM76 360q0 -147 99.5 -247.5t245.5 -100.5q143 0 244 101.5t101 246.5q0 147 -99.5 247.5t-245.5 100.5q-143 0 -244 -101.5t-101 -246.5z
M117 360q0 133 87 222.5t217 89.5t217 -89.5t87 -222.5t-87 -222.5t-217 -89.5t-217 89.5t-87 222.5zM147 362q0 -122 79 -203t197 -81q115 0 193.5 81t78.5 199q0 122 -79 203t-197 81q-115 0 -193.5 -81.5t-78.5 -198.5z" />
    <glyph glyph-name="odieresis" unicode="&#xf6;" 
d="M357 832q0 14 -10 24.5t-25 10.5q-14 0 -24.5 -10.5t-10.5 -24.5t10.5 -24.5t24.5 -10.5q15 0 25 10.5t10 24.5zM383 832q0 -26 -18 -43t-43 -17q-24 0 -42.5 17t-18.5 43t18.5 43t42.5 17q25 0 43 -17t18 -43zM556 832q0 14 -10.5 24.5t-24.5 10.5q-15 0 -25 -10.5
t-10 -24.5t10 -24.5t25 -10.5q14 0 24.5 10.5t10.5 24.5zM582 832q0 -26 -18.5 -43t-42.5 -17q-25 0 -43 17t-18 43t18 43t43 17q24 0 42.5 -17t18.5 -43zM45 358q0 159 110.5 269t267.5 110q156 0 265 -109t109 -266q0 -159 -110.5 -269t-267.5 -110t-265.5 108t-108.5 267
zM76 360q0 -147 99.5 -247.5t245.5 -100.5q143 0 244 101.5t101 246.5q0 147 -99.5 247.5t-245.5 100.5q-143 0 -244 -101.5t-101 -246.5zM117 360q0 133 87 222.5t217 89.5t217 -89.5t87 -222.5t-87 -222.5t-217 -89.5t-217 89.5t-87 222.5zM147 362q0 -122 79 -203
t197 -81q115 0 193.5 81t78.5 199q0 122 -79 203t-197 81q-115 0 -193.5 -81.5t-78.5 -198.5z" />
    <glyph glyph-name="divide" unicode="&#xf7;" horiz-adv-x="530" 
d="M50 413v28h430v-28h-430zM480 379v-28h-430v28h430zM301 213q0 16 -10 26t-26 10t-26 -10t-10 -26t10 -26t26 -10t26 10t10 26zM327 213q0 -26 -18.5 -43.5t-43.5 -17.5t-43.5 17.5t-18.5 43.5t18.5 43.5t43.5 17.5t43.5 -17.5t18.5 -43.5zM301 579q0 16 -10 26t-26 10
t-26 -10t-10 -26t10 -26t26 -10t26 10t10 26zM327 579q0 -26 -18.5 -43.5t-43.5 -17.5t-43.5 17.5t-18.5 43.5t18.5 43t43.5 17t43.5 -17t18.5 -43z" />
    <glyph glyph-name="oslash" unicode="&#xf8;" 
d="M235 109l397 480l20 -23q73 -87 73 -206q0 -133 -87 -222.5t-217 -89.5q-88 0 -160 44zM604 611l-396 -479q-19 19 -22 25q-69 83 -69 203q0 133 87 222.5t217 89.5q84 0 157 -43zM695 358q0 111 -63 186l-353 -427q63 -39 144 -39q115 0 193.5 81t78.5 199zM147 362
q0 -111 60 -184l354 426q-61 38 -142 38q-115 0 -193.5 -81.5t-78.5 -198.5zM656 617l65 78l23 -17l-48 -57q101 -104 101 -259q0 -159 -110.5 -269t-267.5 -110q-113 0 -203 58l-46 -55l-23 17l65 78q11 -11 25 -18q84 -51 184 -51q143 0 244 101.5t101 246.5
q0 136 -88 235zM691 716l-63 -76l-26 18q-81 50 -181 50q-143 0 -244 -101.5t-101 -246.5q0 -137 86 -234l22 -22l-67 -80l-23 17l49 59q-98 104 -98 258q0 159 110.5 269t267.5 110q111 0 200 -58l45 54z" />
    <glyph glyph-name="ugrave" unicode="&#xf9;" horiz-adv-x="640" 
d="M559 720v-479q0 -110 -65.5 -183t-175.5 -73q-109 0 -173 73.5t-64 181.5v480h30v-477q0 -100 56.5 -164.5t152.5 -64.5t152.5 64t56.5 165v477h30zM461 720h30v-475q0 -89 -45.5 -142t-125.5 -53q-81 0 -126 53.5t-45 142.5v474h30v-472q0 -78 37.5 -123.5t104.5 -45.5
q65 0 102.5 45t37.5 123v473zM371 775l-13 -17l-186 104l23 24zM216 910l25 22l159 -123l-14 -17z" />
    <glyph glyph-name="uacute" unicode="&#xfa;" horiz-adv-x="640" 
d="M559 720v-479q0 -110 -65.5 -183t-175.5 -73q-109 0 -173 73.5t-64 181.5v480h30v-477q0 -100 56.5 -164.5t152.5 -64.5t152.5 64t56.5 165v477h30zM461 720h30v-475q0 -89 -45.5 -142t-125.5 -53q-81 0 -126 53.5t-45 142.5v474h30v-472q0 -78 37.5 -123.5t104.5 -45.5
q65 0 102.5 45t37.5 123v473zM281 758l-13 17l176 111l23 -24zM398 932l25 -22l-170 -118l-14 17z" />
    <glyph glyph-name="ucircumflex" unicode="&#xfb;" horiz-adv-x="640" 
d="M320 908l148 -76l-8 -20l-140 62l-140 -62l-8 20zM319 805l-121 -35l-9 20l131 48l131 -48l-9 -20zM559 720v-479q0 -110 -65.5 -183t-175.5 -73q-109 0 -173 73.5t-64 181.5v480h30v-477q0 -100 56.5 -164.5t152.5 -64.5t152.5 64t56.5 165v477h30zM461 720h30v-475
q0 -89 -45.5 -142t-125.5 -53q-81 0 -126 53.5t-45 142.5v474h30v-472q0 -78 37.5 -123.5t104.5 -45.5q65 0 102.5 45t37.5 123v473z" />
    <glyph glyph-name="udieresis" unicode="&#xfc;" horiz-adv-x="640" 
d="M559 720v-479q0 -110 -65.5 -183t-175.5 -73q-109 0 -173 73.5t-64 181.5v480h30v-477q0 -100 56.5 -164.5t152.5 -64.5t152.5 64t56.5 165v477h30zM461 720h30v-475q0 -89 -45.5 -142t-125.5 -53q-81 0 -126 53.5t-45 142.5v474h30v-472q0 -78 37.5 -123.5t104.5 -45.5
q65 0 102.5 45t37.5 123v473zM256 822q0 14 -10 24.5t-25 10.5q-14 0 -24.5 -10.5t-10.5 -24.5t10.5 -24.5t24.5 -10.5q15 0 25 10.5t10 24.5zM282 822q0 -26 -18 -43t-43 -17q-24 0 -42.5 17t-18.5 43t18.5 43t42.5 17q25 0 43 -17t18 -43zM455 822q0 14 -10.5 24.5
t-24.5 10.5q-15 0 -25 -10.5t-10 -24.5t10 -24.5t25 -10.5q14 0 24.5 10.5t10.5 24.5zM481 822q0 -26 -18.5 -43t-42.5 -17q-25 0 -43 17t-18 43t18 43t43 17q24 0 42.5 -17t18.5 -43z" />
    <glyph glyph-name="yacute" unicode="&#xfd;" horiz-adv-x="571" 
d="M236 316l-225 404h33l223 -399v-321h-31v316zM335 0h-31v321l223 399h33l-225 -404v-316zM287 421l166 299h33l-199 -360l-201 360h33zM251 758l-13 17l176 111l23 -24zM368 932l25 -22l-170 -118l-14 17z" />
    <glyph glyph-name="thorn" unicode="&#xfe;" horiz-adv-x="545" 
d="M192 521v-313h18q37 0 71 7.5t65.5 24t50 48t18.5 75.5q0 79 -57 118.5t-137 39.5h-29zM161 180l1 369h64q94 0 157 -47t63 -137q0 -65 -35.5 -108.5t-85.5 -60t-111 -16.5h-53zM162 146h57q50 0 95.5 12.5t84.5 37t62 68.5t23 101q0 105 -75 161.5t-185 56.5h-62v137h30
v-109h31q127 0 210 -64t83 -180q0 -65 -27 -115t-72.5 -78t-98.5 -41.5t-113 -13.5h-13v-119h-30v146zM124 720v-720h-30v720h30z" />
    <glyph glyph-name="ydieresis" unicode="&#xff;" horiz-adv-x="571" 
d="M236 316l-225 404h33l223 -399v-321h-31v316zM335 0h-31v321l223 399h33l-225 -404v-316zM287 421l166 299h33l-199 -360l-201 360h33zM226 822q0 14 -10 24.5t-25 10.5q-14 0 -24.5 -10.5t-10.5 -24.5t10.5 -24.5t24.5 -10.5q15 0 25 10.5t10 24.5zM252 822
q0 -26 -18 -43t-43 -17q-24 0 -42.5 17t-18.5 43t18.5 43t42.5 17q25 0 43 -17t18 -43zM425 822q0 14 -10.5 24.5t-24.5 10.5q-15 0 -25 -10.5t-10 -24.5t10 -24.5t25 -10.5q14 0 24.5 10.5t10.5 24.5zM451 822q0 -26 -18.5 -43t-42.5 -17q-25 0 -43 17t-18 43t18 43t43 17
q24 0 42.5 -17t18.5 -43z" />
    <glyph glyph-name="Amacron" unicode="&#x100;" horiz-adv-x="658" 
d="M476 875v-25h-282v25h282zM476 795h-282v25h282v-25zM331 695l-274 -695h-32l294 736h28l286 -736h-32l-266 695h-4zM333 602l154 -405h-316zM179 135l-50 -135h-32l61 163h342l61 -163h-32l-50 135h-300zM446 225l-113 302l-121 -302h234z" />
    <glyph glyph-name="amacron" unicode="&#x101;" horiz-adv-x="658" 
d="M476 875v-25h-282v25h282zM476 795h-282v25h282v-25zM331 695l-274 -695h-32l294 736h28l286 -736h-32l-266 695h-4zM333 602l154 -405h-316zM179 135l-50 -135h-32l61 163h342l61 -163h-32l-50 135h-300zM446 225l-113 302l-121 -302h234z" />
    <glyph glyph-name="Abreve" unicode="&#x102;" horiz-adv-x="658" 
d="M335 826q-58 0 -121 40l11 20q51 -32 110 -32t110 32l11 -20q-63 -40 -121 -40zM335 768q-69 0 -144 58l11 19q67 -50 133 -50t133 50l11 -19q-75 -58 -144 -58zM331 695l-274 -695h-32l294 736h28l286 -736h-32l-266 695h-4zM333 602l154 -405h-316zM179 135l-50 -135
h-32l61 163h342l61 -163h-32l-50 135h-300zM446 225l-113 302l-121 -302h234z" />
    <glyph glyph-name="abreve" unicode="&#x103;" horiz-adv-x="658" 
d="M335 826q-58 0 -121 40l11 20q51 -32 110 -32t110 32l11 -20q-63 -40 -121 -40zM335 768q-69 0 -144 58l11 19q67 -50 133 -50t133 50l11 -19q-75 -58 -144 -58zM331 695l-274 -695h-32l294 736h28l286 -736h-32l-266 695h-4zM333 602l154 -405h-316zM179 135l-50 -135
h-32l61 163h342l61 -163h-32l-50 135h-300zM446 225l-113 302l-121 -302h234z" />
    <glyph glyph-name="Aogonek" unicode="&#x104;" horiz-adv-x="658" 
d="M333 602l154 -405h-316zM570 -76q0 -28 78 -32l-8 -22q-100 0 -100 48q0 39 60 85l-265 692h-4l-274 -695h-32l294 736h28l286 -736q-63 -47 -63 -76zM446 225l-113 302l-121 -302h234zM501 -90q0 -20 15 -34t38.5 -20.5t41 -8.5t34.5 -3l-13 -22q-30 1 -59 6.5
t-57.5 25.5t-28.5 52q0 46 58 91l-51 138h-300l-50 -135h-32l61 163h342l62 -165q-61 -50 -61 -88z" />
    <glyph glyph-name="aogonek" unicode="&#x105;" horiz-adv-x="658" 
d="M333 602l154 -405h-316zM570 -76q0 -28 78 -32l-8 -22q-100 0 -100 48q0 39 60 85l-265 692h-4l-274 -695h-32l294 736h28l286 -736q-63 -47 -63 -76zM446 225l-113 302l-121 -302h234zM501 -90q0 -20 15 -34t38.5 -20.5t41 -8.5t34.5 -3l-13 -22q-30 1 -59 6.5
t-57.5 25.5t-28.5 52q0 46 58 91l-51 138h-300l-50 -135h-32l61 163h342l62 -165q-61 -50 -61 -88z" />
    <glyph glyph-name="Cacute" unicode="&#x106;" horiz-adv-x="708" 
d="M651 85l6 -29q-121 -73 -241 -73q-158 0 -264.5 107.5t-106.5 267.5q0 163 110.5 271t264.5 108q131 0 235 -72l-11 -30q-108 73 -226 73q-135 0 -238.5 -99t-103.5 -249q0 -147 97.5 -247.5t244.5 -100.5q120 0 233 73zM637 149l7 -30q-120 -71 -226 -71
q-131 0 -216 88.5t-85 223.5q0 138 87.5 225t213.5 87q118 0 215 -74l-12 -29q-40 32 -96.5 53t-108.5 21q-110 0 -189 -78.5t-79 -202.5q0 -123 76 -204t196 -81q102 0 217 72zM371 779l-13 17l176 111l23 -24zM488 953l25 -22l-170 -118l-14 17z" />
    <glyph glyph-name="cacute" unicode="&#x107;" horiz-adv-x="708" 
d="M371 779l-13 17l176 111l23 -24zM488 953l25 -22l-170 -118l-14 17zM651 85l6 -29q-121 -73 -241 -73q-158 0 -264.5 107.5t-106.5 267.5q0 163 110.5 271t264.5 108q131 0 235 -72l-11 -30q-108 73 -226 73q-135 0 -238.5 -99t-103.5 -249q0 -147 97.5 -247.5
t244.5 -100.5q120 0 233 73zM637 149l7 -30q-120 -71 -226 -71q-131 0 -216 88.5t-85 223.5q0 138 87.5 225t213.5 87q118 0 215 -74l-12 -29q-40 32 -96.5 53t-108.5 21q-110 0 -189 -78.5t-79 -202.5q0 -123 76 -204t196 -81q102 0 217 72z" />
    <glyph glyph-name="Cdotaccent" unicode="&#x10a;" horiz-adv-x="708" 
d="M651 85l6 -29q-121 -73 -241 -73q-158 0 -264.5 107.5t-106.5 267.5q0 163 110.5 271t264.5 108q131 0 235 -72l-11 -30q-108 73 -226 73q-135 0 -238.5 -99t-103.5 -249q0 -147 97.5 -247.5t244.5 -100.5q120 0 233 73zM637 149l7 -30q-120 -71 -226 -71
q-131 0 -216 88.5t-85 223.5q0 138 87.5 225t213.5 87q118 0 215 -74l-12 -29q-40 32 -96.5 53t-108.5 21q-110 0 -189 -78.5t-79 -202.5q0 -123 76 -204t196 -81q102 0 217 72zM449 837q0 17 -10.5 28.5t-28.5 11.5t-28.5 -11.5t-10.5 -28.5t10.5 -28t28.5 -11t28.5 11
t10.5 28zM477 837q0 -28 -19.5 -47t-47.5 -19t-47.5 19t-19.5 47t19.5 47.5t47.5 19.5t47.5 -19.5t19.5 -47.5z" />
    <glyph glyph-name="cdotaccent" unicode="&#x10b;" horiz-adv-x="708" 
d="M449 837q0 17 -10.5 28.5t-28.5 11.5t-28.5 -11.5t-10.5 -28.5t10.5 -28t28.5 -11t28.5 11t10.5 28zM477 837q0 -28 -19.5 -47t-47.5 -19t-47.5 19t-19.5 47t19.5 47.5t47.5 19.5t47.5 -19.5t19.5 -47.5zM651 85l6 -29q-121 -73 -241 -73q-158 0 -264.5 107.5
t-106.5 267.5q0 163 110.5 271t264.5 108q131 0 235 -72l-11 -30q-108 73 -226 73q-135 0 -238.5 -99t-103.5 -249q0 -147 97.5 -247.5t244.5 -100.5q120 0 233 73zM637 149l7 -30q-120 -71 -226 -71q-131 0 -216 88.5t-85 223.5q0 138 87.5 225t213.5 87q118 0 215 -74
l-12 -29q-40 32 -96.5 53t-108.5 21q-110 0 -189 -78.5t-79 -202.5q0 -123 76 -204t196 -81q102 0 217 72z" />
    <glyph glyph-name="Ccaron" unicode="&#x10c;" horiz-adv-x="708" 
d="M558 846l-148 -76l-148 76l8 20l140 -62l140 62zM288 908l121 -35l123 35l9 -20l-131 -48l-131 48zM651 85l6 -29q-121 -73 -241 -73q-158 0 -264.5 107.5t-106.5 267.5q0 163 110.5 271t264.5 108q131 0 235 -72l-11 -30q-108 73 -226 73q-135 0 -238.5 -99t-103.5 -249
q0 -147 97.5 -247.5t244.5 -100.5q120 0 233 73zM637 149l7 -30q-120 -71 -226 -71q-131 0 -216 88.5t-85 223.5q0 138 87.5 225t213.5 87q118 0 215 -74l-12 -29q-40 32 -96.5 53t-108.5 21q-110 0 -189 -78.5t-79 -202.5q0 -123 76 -204t196 -81q102 0 217 72z" />
    <glyph glyph-name="ccaron" unicode="&#x10d;" horiz-adv-x="708" 
d="M558 846l-148 -76l-148 76l8 20l140 -62l140 62zM288 908l121 -35l123 35l9 -20l-131 -48l-131 48zM651 85l6 -29q-121 -73 -241 -73q-158 0 -264.5 107.5t-106.5 267.5q0 163 110.5 271t264.5 108q131 0 235 -72l-11 -30q-108 73 -226 73q-135 0 -238.5 -99t-103.5 -249
q0 -147 97.5 -247.5t244.5 -100.5q120 0 233 73zM637 149l7 -30q-120 -71 -226 -71q-131 0 -216 88.5t-85 223.5q0 138 87.5 225t213.5 87q118 0 215 -74l-12 -29q-40 32 -96.5 53t-108.5 21q-110 0 -189 -78.5t-79 -202.5q0 -123 76 -204t196 -81q102 0 217 72z" />
    <glyph glyph-name="Dcaron" unicode="&#x10e;" horiz-adv-x="629" 
d="M584 367q0 -157 -107.5 -262t-272.5 -105h-110v720h116q166 0 270 -99t104 -254zM553 365q0 144 -95.5 235.5t-247.5 91.5h-86v-664h80q153 0 251 96.5t98 240.5zM512 365q0 -132 -84.5 -217.5t-223.5 -85.5h-42v596h46q136 0 220 -80t84 -213zM482 363q0 119 -75.5 193
t-197.5 74h-18v-540h14q123 0 200 77t77 196zM445 836l-148 -76l-148 76l8 20l140 -62l140 62zM175 898l121 -35l123 35l9 -20l-131 -48l-131 48z" />
    <glyph glyph-name="dcaron" unicode="&#x10f;" horiz-adv-x="629" 
d="M445 836l-148 -76l-148 76l8 20l140 -62l140 62zM175 898l121 -35l123 35l9 -20l-131 -48l-131 48zM584 367q0 -157 -107.5 -262t-272.5 -105h-110v720h116q166 0 270 -99t104 -254zM553 365q0 144 -95.5 235.5t-247.5 91.5h-86v-664h80q153 0 251 96.5t98 240.5z
M512 365q0 -132 -84.5 -217.5t-223.5 -85.5h-42v596h46q136 0 220 -80t84 -213zM482 363q0 119 -75.5 193t-197.5 74h-18v-540h14q123 0 200 77t77 196z" />
    <glyph glyph-name="Dcroat" unicode="&#x110;" horiz-adv-x="639" 
d="M104 366h-68v27h98v-365h80q153 0 251 96.5t98 240.5t-95.5 235.5t-247.5 91.5h-86v-270h-98v27h68v271h116q166 0 270 -99t104 -254q0 -157 -107.5 -262t-272.5 -105h-110v366zM201 366v-276h14q123 0 200 77t77 196t-75.5 193t-197.5 74h-18v-181h149v-27h-178v236h46
q136 0 220 -80t84 -213q0 -132 -84.5 -217.5t-223.5 -85.5h-42v331h178v-27h-149z" />
    <glyph glyph-name="dcroat" unicode="&#x111;" horiz-adv-x="639" 
d="M104 366h-68v27h98v-365h80q153 0 251 96.5t98 240.5t-95.5 235.5t-247.5 91.5h-86v-270h-98v27h68v271h116q166 0 270 -99t104 -254q0 -157 -107.5 -262t-272.5 -105h-110v366zM201 366v-276h14q123 0 200 77t77 196t-75.5 193t-197.5 74h-18v-181h149v-27h-178v236h46
q136 0 220 -80t84 -213q0 -132 -84.5 -217.5t-223.5 -85.5h-42v331h178v-27h-149z" />
    <glyph glyph-name="Emacron" unicode="&#x112;" horiz-adv-x="481" 
d="M422 0h-328v720h326v-28h-296v-664h298v-28zM422 90v-28h-260v328h253v-28h-223v-272h230zM415 452v-28h-253v234h258v-28h-228v-178h223zM398 875v-25h-282v25h282zM398 795h-282v25h282v-25z" />
    <glyph glyph-name="emacron" unicode="&#x113;" horiz-adv-x="481" 
d="M398 875v-25h-282v25h282zM398 795h-282v25h282v-25zM422 0h-328v720h326v-28h-296v-664h298v-28zM422 90v-28h-260v328h253v-28h-223v-272h230zM415 452v-28h-253v234h258v-28h-228v-178h223z" />
    <glyph glyph-name="Ebreve" unicode="&#x114;" horiz-adv-x="481" 
d="M257 826q-58 0 -121 40l11 20q51 -32 110 -32t110 32l11 -20q-63 -40 -121 -40zM257 768q-69 0 -144 58l11 19q67 -50 133 -50t133 50l11 -19q-75 -58 -144 -58zM422 0h-328v720h326v-28h-296v-664h298v-28zM422 90v-28h-260v328h253v-28h-223v-272h230zM415 452v-28
h-253v234h258v-28h-228v-178h223z" />
    <glyph glyph-name="ebreve" unicode="&#x115;" horiz-adv-x="481" 
d="M257 826q-58 0 -121 40l11 20q51 -32 110 -32t110 32l11 -20q-63 -40 -121 -40zM257 768q-69 0 -144 58l11 19q67 -50 133 -50t133 50l11 -19q-75 -58 -144 -58zM422 0h-328v720h326v-28h-296v-664h298v-28zM422 90v-28h-260v328h253v-28h-223v-272h230zM415 452v-28
h-253v234h258v-28h-228v-178h223z" />
    <glyph glyph-name="Edotaccent" unicode="&#x116;" horiz-adv-x="481" 
d="M422 0h-328v720h326v-28h-296v-664h298v-28zM422 90v-28h-260v328h253v-28h-223v-272h230zM415 452v-28h-253v234h258v-28h-228v-178h223zM296 832q0 17 -10.5 28.5t-28.5 11.5t-28.5 -11.5t-10.5 -28.5t10.5 -28t28.5 -11t28.5 11t10.5 28zM324 832q0 -28 -19.5 -47
t-47.5 -19t-47.5 19t-19.5 47t19.5 47.5t47.5 19.5t47.5 -19.5t19.5 -47.5z" />
    <glyph glyph-name="edotaccent" unicode="&#x117;" horiz-adv-x="481" 
d="M296 832q0 17 -10.5 28.5t-28.5 11.5t-28.5 -11.5t-10.5 -28.5t10.5 -28t28.5 -11t28.5 11t10.5 28zM324 832q0 -28 -19.5 -47t-47.5 -19t-47.5 19t-19.5 47t19.5 47.5t47.5 19.5t47.5 -19.5t19.5 -47.5zM422 0h-328v720h326v-28h-296v-664h298v-28zM422 90v-28h-260v328
h253v-28h-223v-272h230zM415 452v-28h-253v234h258v-28h-228v-178h223z" />
    <glyph glyph-name="Eogonek" unicode="&#x118;" horiz-adv-x="481" 
d="M422 90v-28h-260v328h253v-28h-223v-272h230zM415 452v-28h-253v234h258v-28h-228v-178h223zM422 28v-28q-18 -10 -41 -35t-23 -41q0 -28 79 -32l-8 -22q-16 0 -31.5 2t-32.5 7t-27 15t-10 24q0 38 57 85q21 17 36 25h1zM317 0h-223v720h326v-28h-296v-664h258
q-27 -18 -47 -38q-46 -46 -46 -80q0 -20 15 -34t39 -20.5t41.5 -8.5t34.5 -3l-13 -22q-30 1 -59.5 6.5t-58 25.5t-28.5 52q0 30 19 55.5t38 38.5z" />
    <glyph glyph-name="eogonek" unicode="&#x119;" horiz-adv-x="481" 
d="M422 90v-28h-260v328h253v-28h-223v-272h230zM415 452v-28h-253v234h258v-28h-228v-178h223zM422 28v-28q-18 -10 -41 -35t-23 -41q0 -28 79 -32l-8 -22q-16 0 -31.5 2t-32.5 7t-27 15t-10 24q0 38 57 85q21 17 36 25h1zM317 0h-223v720h326v-28h-296v-664h258
q-27 -18 -47 -38q-46 -46 -46 -80q0 -20 15 -34t39 -20.5t41.5 -8.5t34.5 -3l-13 -22q-30 1 -59.5 6.5t-58 25.5t-28.5 52q0 30 19 55.5t38 38.5z" />
    <glyph glyph-name="Ecaron" unicode="&#x11a;" horiz-adv-x="481" 
d="M422 0h-328v720h326v-28h-296v-664h298v-28zM422 90v-28h-260v328h253v-28h-223v-272h230zM415 452v-28h-253v234h258v-28h-228v-178h223zM405 836l-148 -76l-148 76l8 20l140 -62l140 62zM135 898l121 -35l123 35l9 -20l-131 -48l-131 48z" />
    <glyph glyph-name="ecaron" unicode="&#x11b;" horiz-adv-x="481" 
d="M405 836l-148 -76l-148 76l8 20l140 -62l140 62zM135 898l121 -35l123 35l9 -20l-131 -48l-131 48zM422 0h-328v720h326v-28h-296v-664h298v-28zM422 90v-28h-260v328h253v-28h-223v-272h230zM415 452v-28h-253v234h258v-28h-228v-178h223z" />
    <glyph glyph-name="Gbreve" unicode="&#x11e;" horiz-adv-x="794" 
d="M415 836q-58 0 -121 40l11 20q51 -32 110 -32t110 32l11 -20q-63 -40 -121 -40zM415 778q-69 0 -144 58l11 19q67 -50 133 -50t133 50l11 -19q-75 -58 -144 -58zM663 591l-11 -30q-46 35 -109.5 58t-123.5 23q-114 0 -193 -80.5t-79 -200.5q0 -124 79.5 -203.5
t196.5 -79.5q86 0 145.5 38t86.5 109l-273 -1v28h313q-25 -92 -93 -148t-181 -56q-128 0 -216.5 88t-88.5 223q0 132 86.5 222.5t218.5 90.5q63 0 128.5 -23.5t113.5 -57.5zM684 655l-10 -31q-113 84 -253 84q-144 0 -244.5 -102t-100.5 -247q0 -147 100 -247t245 -100
q130 0 213 76.5t103 197.5h-355v28h388q-14 -149 -109.5 -240t-241.5 -91q-156 0 -265 107.5t-109 266.5q0 160 110 270t268 110q137 0 261 -82z" />
    <glyph glyph-name="gbreve" unicode="&#x11f;" horiz-adv-x="794" 
d="M415 836q-58 0 -121 40l11 20q51 -32 110 -32t110 32l11 -20q-63 -40 -121 -40zM415 778q-69 0 -144 58l11 19q67 -50 133 -50t133 50l11 -19q-75 -58 -144 -58zM663 591l-11 -30q-46 35 -109.5 58t-123.5 23q-114 0 -193 -80.5t-79 -200.5q0 -124 79.5 -203.5
t196.5 -79.5q86 0 145.5 38t86.5 109l-273 -1v28h313q-25 -92 -93 -148t-181 -56q-128 0 -216.5 88t-88.5 223q0 132 86.5 222.5t218.5 90.5q63 0 128.5 -23.5t113.5 -57.5zM684 655l-10 -31q-113 84 -253 84q-144 0 -244.5 -102t-100.5 -247q0 -147 100 -247t245 -100
q130 0 213 76.5t103 197.5h-355v28h388q-14 -149 -109.5 -240t-241.5 -91q-156 0 -265 107.5t-109 266.5q0 160 110 270t268 110q137 0 261 -82z" />
    <glyph glyph-name="Gdotaccent" unicode="&#x120;" horiz-adv-x="794" 
d="M663 591l-11 -30q-46 35 -109.5 58t-123.5 23q-114 0 -193 -80.5t-79 -200.5q0 -124 79.5 -203.5t196.5 -79.5q86 0 145.5 38t86.5 109l-273 -1v28h313q-25 -92 -93 -148t-181 -56q-128 0 -216.5 88t-88.5 223q0 132 86.5 222.5t218.5 90.5q63 0 128.5 -23.5t113.5 -57.5
zM684 655l-10 -31q-113 84 -253 84q-144 0 -244.5 -102t-100.5 -247q0 -147 100 -247t245 -100q130 0 213 76.5t103 197.5h-355v28h388q-14 -149 -109.5 -240t-241.5 -91q-156 0 -265 107.5t-109 266.5q0 160 110 270t268 110q137 0 261 -82zM458 837q0 17 -10.5 28.5
t-28.5 11.5t-28.5 -11.5t-10.5 -28.5t10.5 -28t28.5 -11t28.5 11t10.5 28zM486 837q0 -28 -19.5 -47t-47.5 -19t-47.5 19t-19.5 47t19.5 47.5t47.5 19.5t47.5 -19.5t19.5 -47.5z" />
    <glyph glyph-name="gdotaccent" unicode="&#x121;" horiz-adv-x="794" 
d="M458 837q0 17 -10.5 28.5t-28.5 11.5t-28.5 -11.5t-10.5 -28.5t10.5 -28t28.5 -11t28.5 11t10.5 28zM486 837q0 -28 -19.5 -47t-47.5 -19t-47.5 19t-19.5 47t19.5 47.5t47.5 19.5t47.5 -19.5t19.5 -47.5zM663 591l-11 -30q-46 35 -109.5 58t-123.5 23q-114 0 -193 -80.5
t-79 -200.5q0 -124 79.5 -203.5t196.5 -79.5q86 0 145.5 38t86.5 109l-273 -1v28h313q-25 -92 -93 -148t-181 -56q-128 0 -216.5 88t-88.5 223q0 132 86.5 222.5t218.5 90.5q63 0 128.5 -23.5t113.5 -57.5zM684 655l-10 -31q-113 84 -253 84q-144 0 -244.5 -102t-100.5 -247
q0 -147 100 -247t245 -100q130 0 213 76.5t103 197.5h-355v28h388q-14 -149 -109.5 -240t-241.5 -91q-156 0 -265 107.5t-109 266.5q0 160 110 270t268 110q137 0 261 -82z" />
    <glyph glyph-name="Gcommaaccent" unicode="&#x122;" horiz-adv-x="794" 
d="M663 591l-11 -30q-46 35 -109.5 58t-123.5 23q-114 0 -193 -80.5t-79 -200.5q0 -124 79.5 -203.5t196.5 -79.5q86 0 145.5 38t86.5 109l-273 -1v28h313q-25 -92 -93 -148t-181 -56q-128 0 -216.5 88t-88.5 223q0 132 86.5 222.5t218.5 90.5q63 0 128.5 -23.5t113.5 -57.5
zM684 655l-10 -31q-113 84 -253 84q-144 0 -244.5 -102t-100.5 -247q0 -147 100 -247t245 -100q130 0 213 76.5t103 197.5h-355v28h388q-14 -149 -109.5 -240t-241.5 -91q-156 0 -265 107.5t-109 266.5q0 160 110 270t268 110q137 0 261 -82zM356 -133l5 25q51 4 69 -14
q9 -9 9 -22q0 -49 -109 -92l-14 18q45 17 70 36t25 33q0 21 -55 16zM359 -273l-16 17q130 50 130 117q0 22 -15 37q-23 23 -92 22l6 25q77 -1 108 -32q20 -20 20 -48q0 -48 -36.5 -80t-104.5 -58z" />
    <glyph glyph-name="gcommaaccent" unicode="&#x123;" horiz-adv-x="794" 
d="M356 -133l5 25q51 4 69 -14q9 -9 9 -22q0 -49 -109 -92l-14 18q45 17 70 36t25 33q0 21 -55 16zM359 -273l-16 17q130 50 130 117q0 22 -15 37q-23 23 -92 22l6 25q77 -1 108 -32q20 -20 20 -48q0 -48 -36.5 -80t-104.5 -58zM663 591l-11 -30q-46 35 -109.5 58t-123.5 23
q-114 0 -193 -80.5t-79 -200.5q0 -124 79.5 -203.5t196.5 -79.5q86 0 145.5 38t86.5 109l-273 -1v28h313q-25 -92 -93 -148t-181 -56q-128 0 -216.5 88t-88.5 223q0 132 86.5 222.5t218.5 90.5q63 0 128.5 -23.5t113.5 -57.5zM684 655l-10 -31q-113 84 -253 84
q-144 0 -244.5 -102t-100.5 -247q0 -147 100 -247t245 -100q130 0 213 76.5t103 197.5h-355v28h388q-14 -149 -109.5 -240t-241.5 -91q-156 0 -265 107.5t-109 266.5q0 160 110 270t268 110q137 0 261 -82z" />
    <glyph glyph-name="Hbar" unicode="&#x126;" horiz-adv-x="672" 
d="M514 374v-374h-30v346h-292v-346h-30v374h352zM484 619v101h30v-128h-352v128h30v-101h292zM94 619v101h30v-128h-98v27h68zM94 536h-68v27h98v-563h-30v536zM192 536v-100h292v100h-292zM582 536v-536h-30v563h94v-27h-64zM582 619h64v-27h-94v128h30v-101zM514 563
v-155h-352v155h352z" />
    <glyph glyph-name="hbar" unicode="&#x127;" horiz-adv-x="672" 
d="M514 374v-374h-30v346h-292v-346h-30v374h352zM484 619v101h30v-128h-352v128h30v-101h292zM94 619v101h30v-128h-98v27h68zM94 536h-68v27h98v-563h-30v536zM192 536v-100h292v100h-292zM582 536v-536h-30v563h94v-27h-64zM582 619h64v-27h-94v128h30v-101zM514 563
v-155h-352v155h352z" />
    <glyph glyph-name="Imacron" unicode="&#x12a;" horiz-adv-x="290" 
d="M287 875v-25h-282v25h282zM287 795h-282v25h282v-25zM126 720v-720h-30v720h30zM194 0h-30v720h30v-720z" />
    <glyph glyph-name="imacron" unicode="&#x12b;" horiz-adv-x="290" 
d="M287 875v-25h-282v25h282zM287 795h-282v25h282v-25zM126 720v-720h-30v720h30zM194 0h-30v720h30v-720z" />
    <glyph glyph-name="Ibreve" unicode="&#x12c;" horiz-adv-x="290" 
d="M126 720v-720h-30v720h30zM194 0h-30v720h30v-720zM146 826q-58 0 -121 40l11 20q51 -32 110 -32t110 32l11 -20q-63 -40 -121 -40zM146 768q-69 0 -144 58l11 19q67 -50 133 -50t133 50l11 -19q-75 -58 -144 -58z" />
    <glyph glyph-name="ibreve" unicode="&#x12d;" horiz-adv-x="290" 
d="M146 826q-58 0 -121 40l11 20q51 -32 110 -32t110 32l11 -20q-63 -40 -121 -40zM146 768q-69 0 -144 58l11 19q67 -50 133 -50t133 50l11 -19q-75 -58 -144 -58zM126 720v-720h-30v720h30zM194 0h-30v720h30v-720z" />
    <glyph glyph-name="Iogonek" unicode="&#x12e;" horiz-adv-x="290" 
d="M64 -90q0 -20 15 -34t39 -20.5t41.5 -8.5t34.5 -3l-13 -22q-30 1 -59.5 6.5t-58 25.5t-28.5 52q0 49 61 95v719h30v-720q-62 -55 -62 -90zM133 -76q0 -28 79 -32l-8 -22q-101 0 -101 48q0 39 61 86v716h30v-720q-61 -48 -61 -76z" />
    <glyph glyph-name="iogonek" unicode="&#x12f;" horiz-adv-x="290" 
d="M64 -90q0 -20 15 -34t39 -20.5t41.5 -8.5t34.5 -3l-13 -22q-30 1 -59.5 6.5t-58 25.5t-28.5 52q0 49 61 95v719h30v-720q-62 -55 -62 -90zM133 -76q0 -28 79 -32l-8 -22q-101 0 -101 48q0 39 61 86v716h30v-720q-61 -48 -61 -76z" />
    <glyph glyph-name="Idotaccent" unicode="&#x130;" horiz-adv-x="290" 
d="M126 720v-720h-30v720h30zM194 0h-30v720h30v-720zM185 832q0 17 -10.5 28.5t-28.5 11.5t-28.5 -11.5t-10.5 -28.5t10.5 -28t28.5 -11t28.5 11t10.5 28zM213 832q0 -28 -19.5 -47t-47.5 -19t-47.5 19t-19.5 47t19.5 47.5t47.5 19.5t47.5 -19.5t19.5 -47.5z" />
    <glyph glyph-name="dotlessi" unicode="&#x131;" horiz-adv-x="290" 
d="M126 720v-720h-30v720h30zM194 0h-30v720h30v-720z" />
    <glyph glyph-name="Kcommaaccent" unicode="&#x136;" horiz-adv-x="575" 
d="M575 0h-44l-326 305l307 415h38l-305 -413zM192 395l239 325h38l-307 -412v412h30v-325zM124 720v-720h-30v720h30zM192 228v-228h-30v295l318 -295h-44zM248 -133l5 25q51 4 69 -14q9 -9 9 -22q0 -49 -109 -92l-14 18q45 17 70 36t25 33q0 21 -55 16zM251 -273l-16 17
q130 50 130 117q0 22 -15 37q-23 23 -92 22l6 25q77 -1 108 -32q20 -20 20 -48q0 -48 -36.5 -80t-104.5 -58z" />
    <glyph glyph-name="kcommaaccent" unicode="&#x137;" horiz-adv-x="575" 
d="M248 -133l5 25q51 4 69 -14q9 -9 9 -22q0 -49 -109 -92l-14 18q45 17 70 36t25 33q0 21 -55 16zM251 -273l-16 17q130 50 130 117q0 22 -15 37q-23 23 -92 22l6 25q77 -1 108 -32q20 -20 20 -48q0 -48 -36.5 -80t-104.5 -58zM575 0h-44l-326 305l307 415h38l-305 -413z
M192 395l239 325h38l-307 -412v412h30v-325zM124 720v-720h-30v720h30zM192 228v-228h-30v295l318 -295h-44z" />
    <glyph glyph-name="Lacute" unicode="&#x139;" horiz-adv-x="459" 
d="M94 0v720h30v-692h299v-28h-329zM162 62v658h30v-630h231v-28h-261zM180 774l-13 17l176 111l23 -24zM297 948l25 -22l-170 -118l-14 17z" />
    <glyph glyph-name="lacute" unicode="&#x13a;" horiz-adv-x="459" 
d="M180 774l-13 17l176 111l23 -24zM297 948l25 -22l-170 -118l-14 17zM94 0v720h30v-692h299v-28h-329zM162 62v658h30v-630h231v-28h-261z" />
    <glyph glyph-name="Lcommaaccent" unicode="&#x13b;" horiz-adv-x="459" 
d="M94 0v720h30v-692h299v-28h-329zM162 62v658h30v-630h231v-28h-261zM233 -133l5 25q51 4 69 -14q9 -9 9 -22q0 -49 -109 -92l-14 18q45 17 70 36t25 33q0 21 -55 16zM236 -273l-16 17q130 50 130 117q0 22 -15 37q-23 23 -92 22l6 25q77 -1 108 -32q20 -20 20 -48
q0 -48 -36.5 -80t-104.5 -58z" />
    <glyph glyph-name="lcommaaccent" unicode="&#x13c;" horiz-adv-x="459" 
d="M233 -133l5 25q51 4 69 -14q9 -9 9 -22q0 -49 -109 -92l-14 18q45 17 70 36t25 33q0 21 -55 16zM236 -273l-16 17q130 50 130 117q0 22 -15 37q-23 23 -92 22l6 25q77 -1 108 -32q20 -20 20 -48q0 -48 -36.5 -80t-104.5 -58zM94 0v720h30v-692h299v-28h-329zM162 62v658
h30v-630h231v-28h-261z" />
    <glyph glyph-name="Lcaron" unicode="&#x13d;" horiz-adv-x="459" 
d="M94 0v720h30v-692h299v-28h-329zM162 62v658h30v-630h231v-28h-261zM333 571h-23l28 188h30zM271 759h30l-23 -188h-22z" />
    <glyph glyph-name="lcaron" unicode="&#x13e;" horiz-adv-x="459" 
d="M333 571h-23l28 188h30zM271 759h30l-23 -188h-22zM94 0v720h30v-692h299v-28h-329zM162 62v658h30v-630h231v-28h-261z" />
    <glyph glyph-name="Ldot" unicode="&#x13f;" horiz-adv-x="485" 
d="M94 0v720h30v-692h299v-28h-329zM162 62v658h30v-630h231v-28h-261zM421 410q0 17 -10.5 28.5t-28.5 11.5t-28.5 -11.5t-10.5 -28.5t10.5 -28t28.5 -11t28.5 11t10.5 28zM449 410q0 -28 -19.5 -47t-47.5 -19t-47.5 19t-19.5 47t19.5 47.5t47.5 19.5t47.5 -19.5
t19.5 -47.5z" />
    <glyph glyph-name="ldot" unicode="&#x140;" horiz-adv-x="485" 
d="M421 410q0 17 -10.5 28.5t-28.5 11.5t-28.5 -11.5t-10.5 -28.5t10.5 -28t28.5 -11t28.5 11t10.5 28zM449 410q0 -28 -19.5 -47t-47.5 -19t-47.5 19t-19.5 47t19.5 47.5t47.5 19.5t47.5 -19.5t19.5 -47.5zM94 0v720h30v-692h299v-28h-329zM162 62v658h30v-630h231v-28
h-261z" />
    <glyph glyph-name="Lslash" unicode="&#x141;" horiz-adv-x="459" 
d="M124 352v-324h299v-28h-329v300l-62 -39v33zM124 388l-92 -57v34l62 39v316h30v-332zM162 375l158 99l-1 -34l-127 -79v-271h231v-28h-261v313zM162 412v308h30v-256l128 80v-34z" />
    <glyph glyph-name="lslash" unicode="&#x142;" horiz-adv-x="459" 
d="M124 352v-324h299v-28h-329v300l-62 -39v33zM124 388l-92 -57v34l62 39v316h30v-332zM162 375l158 99l-1 -34l-127 -79v-271h231v-28h-261v313zM162 412v308h30v-256l128 80v-34z" />
    <glyph glyph-name="Nacute" unicode="&#x143;" horiz-adv-x="670" 
d="M576 -9h-35l-353 500l1 -491h-29v577l383 -543h4v686h29v-729zM94 0v729h36l352 -498l-1 489h29v-576l-382 542h-5v-686h-29zM296 763l-13 17l176 111l23 -24zM413 937l25 -22l-170 -118l-14 17z" />
    <glyph glyph-name="nacute" unicode="&#x144;" horiz-adv-x="670" 
d="M296 763l-13 17l176 111l23 -24zM413 937l25 -22l-170 -118l-14 17zM576 -9h-35l-353 500l1 -491h-29v577l383 -543h4v686h29v-729zM94 0v729h36l352 -498l-1 489h29v-576l-382 542h-5v-686h-29z" />
    <glyph glyph-name="Ncommaaccent" unicode="&#x145;" horiz-adv-x="670" 
d="M576 -9h-35l-353 500l1 -491h-29v577l383 -543h4v686h29v-729zM94 0v729h36l352 -498l-1 489h29v-576l-382 542h-5v-686h-29zM281 -133l5 25q51 4 69 -14q9 -9 9 -22q0 -49 -109 -92l-14 18q45 17 70 36t25 33q0 21 -55 16zM284 -273l-16 17q130 50 130 117q0 22 -15 37
q-23 23 -92 22l6 25q77 -1 108 -32q20 -20 20 -48q0 -48 -36.5 -80t-104.5 -58z" />
    <glyph glyph-name="ncommaaccent" unicode="&#x146;" horiz-adv-x="670" 
d="M281 -133l5 25q51 4 69 -14q9 -9 9 -22q0 -49 -109 -92l-14 18q45 17 70 36t25 33q0 21 -55 16zM284 -273l-16 17q130 50 130 117q0 22 -15 37q-23 23 -92 22l6 25q77 -1 108 -32q20 -20 20 -48q0 -48 -36.5 -80t-104.5 -58zM576 -9h-35l-353 500l1 -491h-29v577
l383 -543h4v686h29v-729zM94 0v729h36l352 -498l-1 489h29v-576l-382 542h-5v-686h-29z" />
    <glyph glyph-name="Ncaron" unicode="&#x147;" horiz-adv-x="670" 
d="M483 825l-148 -76l-148 76l8 20l140 -62l140 62zM213 887l121 -35l123 35l9 -20l-131 -48l-131 48zM576 -9h-35l-353 500l1 -491h-29v577l383 -543h4v686h29v-729zM94 0v729h36l352 -498l-1 489h29v-576l-382 542h-5v-686h-29z" />
    <glyph glyph-name="ncaron" unicode="&#x148;" horiz-adv-x="670" 
d="M483 825l-148 -76l-148 76l8 20l140 -62l140 62zM213 887l121 -35l123 35l9 -20l-131 -48l-131 48zM576 -9h-35l-353 500l1 -491h-29v577l383 -543h4v686h29v-729zM94 0v729h36l352 -498l-1 489h29v-576l-382 542h-5v-686h-29z" />
    <glyph glyph-name="Omacron" unicode="&#x14c;" 
d="M45 358q0 159 110.5 269t267.5 110q156 0 265 -109t109 -266q0 -159 -110.5 -269t-267.5 -110t-265.5 108t-108.5 267zM76 360q0 -147 99.5 -247.5t245.5 -100.5q143 0 244 101.5t101 246.5q0 147 -99.5 247.5t-245.5 100.5q-143 0 -244 -101.5t-101 -246.5zM117 360
q0 133 87 222.5t217 89.5t217 -89.5t87 -222.5t-87 -222.5t-217 -89.5t-217 89.5t-87 222.5zM147 362q0 -122 79 -203t197 -81q115 0 193.5 81t78.5 199q0 122 -79 203t-197 81q-115 0 -193.5 -81.5t-78.5 -198.5zM562 880v-25h-282v25h282zM562 800h-282v25h282v-25z" />
    <glyph glyph-name="omacron" unicode="&#x14d;" 
d="M562 880v-25h-282v25h282zM562 800h-282v25h282v-25zM45 358q0 159 110.5 269t267.5 110q156 0 265 -109t109 -266q0 -159 -110.5 -269t-267.5 -110t-265.5 108t-108.5 267zM76 360q0 -147 99.5 -247.5t245.5 -100.5q143 0 244 101.5t101 246.5q0 147 -99.5 247.5
t-245.5 100.5q-143 0 -244 -101.5t-101 -246.5zM117 360q0 133 87 222.5t217 89.5t217 -89.5t87 -222.5t-87 -222.5t-217 -89.5t-217 89.5t-87 222.5zM147 362q0 -122 79 -203t197 -81q115 0 193.5 81t78.5 199q0 122 -79 203t-197 81q-115 0 -193.5 -81.5t-78.5 -198.5z
" />
    <glyph glyph-name="Obreve" unicode="&#x14e;" 
d="M421 831q-58 0 -121 40l11 20q51 -32 110 -32t110 32l11 -20q-63 -40 -121 -40zM421 773q-69 0 -144 58l11 19q67 -50 133 -50t133 50l11 -19q-75 -58 -144 -58zM45 358q0 159 110.5 269t267.5 110q156 0 265 -109t109 -266q0 -159 -110.5 -269t-267.5 -110t-265.5 108
t-108.5 267zM76 360q0 -147 99.5 -247.5t245.5 -100.5q143 0 244 101.5t101 246.5q0 147 -99.5 247.5t-245.5 100.5q-143 0 -244 -101.5t-101 -246.5zM117 360q0 133 87 222.5t217 89.5t217 -89.5t87 -222.5t-87 -222.5t-217 -89.5t-217 89.5t-87 222.5zM147 362
q0 -122 79 -203t197 -81q115 0 193.5 81t78.5 199q0 122 -79 203t-197 81q-115 0 -193.5 -81.5t-78.5 -198.5z" />
    <glyph glyph-name="obreve" unicode="&#x14f;" 
d="M421 831q-58 0 -121 40l11 20q51 -32 110 -32t110 32l11 -20q-63 -40 -121 -40zM421 773q-69 0 -144 58l11 19q67 -50 133 -50t133 50l11 -19q-75 -58 -144 -58zM45 358q0 159 110.5 269t267.5 110q156 0 265 -109t109 -266q0 -159 -110.5 -269t-267.5 -110t-265.5 108
t-108.5 267zM76 360q0 -147 99.5 -247.5t245.5 -100.5q143 0 244 101.5t101 246.5q0 147 -99.5 247.5t-245.5 100.5q-143 0 -244 -101.5t-101 -246.5zM117 360q0 133 87 222.5t217 89.5t217 -89.5t87 -222.5t-87 -222.5t-217 -89.5t-217 89.5t-87 222.5zM147 362
q0 -122 79 -203t197 -81q115 0 193.5 81t78.5 199q0 122 -79 203t-197 81q-115 0 -193.5 -81.5t-78.5 -198.5z" />
    <glyph glyph-name="Ohungarumlaut" unicode="&#x150;" 
d="M45 358q0 159 110.5 269t267.5 110q156 0 265 -109t109 -266q0 -159 -110.5 -269t-267.5 -110t-265.5 108t-108.5 267zM76 360q0 -147 99.5 -247.5t245.5 -100.5q143 0 244 101.5t101 246.5q0 147 -99.5 247.5t-245.5 100.5q-143 0 -244 -101.5t-101 -246.5zM117 360
q0 133 87 222.5t217 89.5t217 -89.5t87 -222.5t-87 -222.5t-217 -89.5t-217 89.5t-87 222.5zM147 362q0 -122 79 -203t197 -81q115 0 193.5 81t78.5 199q0 122 -79 203t-197 81q-115 0 -193.5 -81.5t-78.5 -198.5zM319 770l-16 12l144 130l24 -18zM395 946l25 -17l-135 -134
l-16 12zM501 770l-16 12l142 130l25 -19zM577 944l24 -16l-134 -133l-16 12z" />
    <glyph glyph-name="ohungarumlaut" unicode="&#x151;" 
d="M319 770l-16 12l144 130l24 -18zM395 946l25 -17l-135 -134l-16 12zM501 770l-16 12l142 130l25 -19zM577 944l24 -16l-134 -133l-16 12zM45 358q0 159 110.5 269t267.5 110q156 0 265 -109t109 -266q0 -159 -110.5 -269t-267.5 -110t-265.5 108t-108.5 267zM76 360
q0 -147 99.5 -247.5t245.5 -100.5q143 0 244 101.5t101 246.5q0 147 -99.5 247.5t-245.5 100.5q-143 0 -244 -101.5t-101 -246.5zM117 360q0 133 87 222.5t217 89.5t217 -89.5t87 -222.5t-87 -222.5t-217 -89.5t-217 89.5t-87 222.5zM147 362q0 -122 79 -203t197 -81
q115 0 193.5 81t78.5 199q0 122 -79 203t-197 81q-115 0 -193.5 -81.5t-78.5 -198.5z" />
    <glyph glyph-name="OE" unicode="&#x152;" horiz-adv-x="808" 
d="M451 658v-596h-30q-131 0 -217.5 83t-86.5 215t86.5 215t217.5 83h30zM147 362q0 -120 77 -194.5t194 -74.5h3v537h-2q-116 0 -194 -76t-78 -192zM421 692q-145 0 -245 -94.5t-100 -237.5q0 -145 99 -238.5t246 -93.5h328v-28h-330q-159 0 -266.5 100.5t-107.5 257.5
t108.5 259.5t265.5 102.5h328v-28h-326zM749 90v-28h-260v328h253v-28h-223v-272h230zM742 452v-28h-253v234h258v-28h-228v-178h223z" />
    <glyph glyph-name="oe" unicode="&#x153;" horiz-adv-x="808" 
d="M451 658v-596h-30q-131 0 -217.5 83t-86.5 215t86.5 215t217.5 83h30zM147 362q0 -120 77 -194.5t194 -74.5h3v537h-2q-116 0 -194 -76t-78 -192zM421 692q-145 0 -245 -94.5t-100 -237.5q0 -145 99 -238.5t246 -93.5h328v-28h-330q-159 0 -266.5 100.5t-107.5 257.5
t108.5 259.5t265.5 102.5h328v-28h-326zM749 90v-28h-260v328h253v-28h-223v-272h230zM742 452v-28h-253v234h258v-28h-228v-178h223z" />
    <glyph glyph-name="Racute" unicode="&#x154;" horiz-adv-x="595" 
d="M258 774l-13 17l176 111l23 -24zM375 948l25 -22l-170 -118l-14 17zM162 265v393h86q103 0 164.5 -51t61.5 -139q0 -100 -63 -151.5t-171 -51.5h-78zM416 0l-224 183v-183h-30v234h13l289 -234h-48zM192 630v-337h49q91 0 146.5 43.5t55.5 131.5q0 75 -54 118.5
t-142 43.5h-55zM565 0h-46l-292 234h12q121 0 197 62t76 174q0 100 -74 161t-189 61h-125v-692h-30v720h156q132 0 213 -68t81 -182q0 -62 -22 -111.5t-58.5 -79.5t-78.5 -46.5t-86 -19.5z" />
    <glyph glyph-name="racute" unicode="&#x155;" horiz-adv-x="595" 
d="M258 774l-13 17l176 111l23 -24zM375 948l25 -22l-170 -118l-14 17zM162 265v393h86q103 0 164.5 -51t61.5 -139q0 -100 -63 -151.5t-171 -51.5h-78zM416 0l-224 183v-183h-30v234h13l289 -234h-48zM192 630v-337h49q91 0 146.5 43.5t55.5 131.5q0 75 -54 118.5
t-142 43.5h-55zM565 0h-46l-292 234h12q121 0 197 62t76 174q0 100 -74 161t-189 61h-125v-692h-30v720h156q132 0 213 -68t81 -182q0 -62 -22 -111.5t-58.5 -79.5t-78.5 -46.5t-86 -19.5z" />
    <glyph glyph-name="Rcommaaccent" unicode="&#x156;" horiz-adv-x="595" 
d="M162 265v393h86q103 0 164.5 -51t61.5 -139q0 -100 -63 -151.5t-171 -51.5h-78zM416 0l-224 183v-183h-30v234h13l289 -234h-48zM192 630v-337h49q91 0 146.5 43.5t55.5 131.5q0 75 -54 118.5t-142 43.5h-55zM565 0h-46l-292 234h12q121 0 197 62t76 174q0 100 -74 161
t-189 61h-125v-692h-30v720h156q132 0 213 -68t81 -182q0 -62 -22 -111.5t-58.5 -79.5t-78.5 -46.5t-86 -19.5zM243 -133l5 25q51 4 69 -14q9 -9 9 -22q0 -49 -109 -92l-14 18q45 17 70 36t25 33q0 21 -55 16zM246 -273l-16 17q130 50 130 117q0 22 -15 37q-23 23 -92 22
l6 25q77 -1 108 -32q20 -20 20 -48q0 -48 -36.5 -80t-104.5 -58z" />
    <glyph glyph-name="rcommaaccent" unicode="&#x157;" horiz-adv-x="595" 
d="M243 -133l5 25q51 4 69 -14q9 -9 9 -22q0 -49 -109 -92l-14 18q45 17 70 36t25 33q0 21 -55 16zM246 -273l-16 17q130 50 130 117q0 22 -15 37q-23 23 -92 22l6 25q77 -1 108 -32q20 -20 20 -48q0 -48 -36.5 -80t-104.5 -58zM162 265v393h86q103 0 164.5 -51t61.5 -139
q0 -100 -63 -151.5t-171 -51.5h-78zM416 0l-224 183v-183h-30v234h13l289 -234h-48zM192 630v-337h49q91 0 146.5 43.5t55.5 131.5q0 75 -54 118.5t-142 43.5h-55zM565 0h-46l-292 234h12q121 0 197 62t76 174q0 100 -74 161t-189 61h-125v-692h-30v720h156q132 0 213 -68
t81 -182q0 -62 -22 -111.5t-58.5 -79.5t-78.5 -46.5t-86 -19.5z" />
    <glyph glyph-name="Rcaron" unicode="&#x158;" horiz-adv-x="595" 
d="M162 265v393h86q103 0 164.5 -51t61.5 -139q0 -100 -63 -151.5t-171 -51.5h-78zM416 0l-224 183v-183h-30v234h13l289 -234h-48zM192 630v-337h49q91 0 146.5 43.5t55.5 131.5q0 75 -54 118.5t-142 43.5h-55zM565 0h-46l-292 234h12q121 0 197 62t76 174q0 100 -74 161
t-189 61h-125v-692h-30v720h156q132 0 213 -68t81 -182q0 -62 -22 -111.5t-58.5 -79.5t-78.5 -46.5t-86 -19.5zM445 836l-148 -76l-148 76l8 20l140 -62l140 62zM175 898l121 -35l123 35l9 -20l-131 -48l-131 48z" />
    <glyph glyph-name="rcaron" unicode="&#x159;" horiz-adv-x="595" 
d="M445 836l-148 -76l-148 76l8 20l140 -62l140 62zM175 898l121 -35l123 35l9 -20l-131 -48l-131 48zM162 265v393h86q103 0 164.5 -51t61.5 -139q0 -100 -63 -151.5t-171 -51.5h-78zM416 0l-224 183v-183h-30v234h13l289 -234h-48zM192 630v-337h49q91 0 146.5 43.5
t55.5 131.5q0 75 -54 118.5t-142 43.5h-55zM565 0h-46l-292 234h12q121 0 197 62t76 174q0 100 -74 161t-189 61h-125v-692h-30v720h156q132 0 213 -68t81 -182q0 -62 -22 -111.5t-58.5 -79.5t-78.5 -46.5t-86 -19.5z" />
    <glyph glyph-name="Sacute" unicode="&#x15a;" horiz-adv-x="514" 
d="M232 779l-13 17l176 111l23 -24zM349 953l25 -22l-170 -118l-14 17zM54 98l9 29q96 -48 170 -48q60 0 97 31.5t37 81.5q0 44 -30 79t-107 83q-86 54 -122 101.5t-36 102.5q0 73 55.5 124t147.5 51q79 0 157 -39l-9 -28q-76 38 -149 38q-77 0 -124.5 -42.5t-47.5 -103.5
q0 -47 32 -89t113 -92q88 -55 119 -93.5t31 -91.5q0 -62 -45 -101.5t-120 -39.5q-87 0 -178 47zM36 36l8 29q95 -48 187 -48t148.5 51t56.5 126q0 64 -36.5 109t-132.5 104q-73 46 -99.5 79.5t-26.5 72.5q0 47 33.5 79t98.5 32q67 0 141 -37l-9 -28q-73 37 -133 37
q-50 0 -75.5 -23.5t-25.5 -59.5q0 -31 24.5 -58.5t88.5 -68.5q96 -60 139 -113t43 -125q0 -86 -65.5 -146t-170.5 -60q-99 0 -194 48z" />
    <glyph glyph-name="sacute" unicode="&#x15b;" horiz-adv-x="514" 
d="M232 779l-13 17l176 111l23 -24zM349 953l25 -22l-170 -118l-14 17zM54 98l9 29q96 -48 170 -48q60 0 97 31.5t37 81.5q0 44 -30 79t-107 83q-86 54 -122 101.5t-36 102.5q0 73 55.5 124t147.5 51q79 0 157 -39l-9 -28q-76 38 -149 38q-77 0 -124.5 -42.5t-47.5 -103.5
q0 -47 32 -89t113 -92q88 -55 119 -93.5t31 -91.5q0 -62 -45 -101.5t-120 -39.5q-87 0 -178 47zM36 36l8 29q95 -48 187 -48t148.5 51t56.5 126q0 64 -36.5 109t-132.5 104q-73 46 -99.5 79.5t-26.5 72.5q0 47 33.5 79t98.5 32q67 0 141 -37l-9 -28q-73 37 -133 37
q-50 0 -75.5 -23.5t-25.5 -59.5q0 -31 24.5 -58.5t88.5 -68.5q96 -60 139 -113t43 -125q0 -86 -65.5 -146t-170.5 -60q-99 0 -194 48z" />
    <glyph glyph-name="Scedilla" unicode="&#x15e;" horiz-adv-x="516" 
d="M54 99l9 29q98 -49 172 -49q60 0 97 31.5t37 81.5q0 44 -30 79t-107 83q-86 54 -122 101.5t-36 102.5q0 73 55.5 124t147.5 51q79 0 157 -39l-9 -28q-76 38 -149 38q-77 0 -124.5 -42.5t-47.5 -103.5q0 -47 32 -89t113 -92q88 -55 119 -93.5t31 -91.5q0 -62 -45 -101.5
t-120 -39.5q-87 0 -180 48zM294 -5l-68 -161l-29 9l83 178l6 1q70 14 111 61.5t41 110.5q0 64 -36.5 109t-132.5 104q-73 46 -99.5 79.5t-26.5 72.5q0 47 33.5 79t98.5 32q67 0 141 -37l-9 -28q-73 37 -133 37q-50 0 -75.5 -23.5t-25.5 -59.5q0 -31 24.5 -58.5t88.5 -68.5
q96 -60 139 -113t43 -125t-47 -127.5t-127 -71.5zM133 -140l75 129q-88 5 -172 48l8 29q92 -48 181 -49l28 1l-90 -167z" />
    <glyph glyph-name="scedilla" unicode="&#x15f;" horiz-adv-x="516" 
d="M54 99l9 29q98 -49 172 -49q60 0 97 31.5t37 81.5q0 44 -30 79t-107 83q-86 54 -122 101.5t-36 102.5q0 73 55.5 124t147.5 51q79 0 157 -39l-9 -28q-76 38 -149 38q-77 0 -124.5 -42.5t-47.5 -103.5q0 -47 32 -89t113 -92q88 -55 119 -93.5t31 -91.5q0 -62 -45 -101.5
t-120 -39.5q-87 0 -180 48zM294 -5l-68 -161l-29 9l83 178l6 1q70 14 111 61.5t41 110.5q0 64 -36.5 109t-132.5 104q-73 46 -99.5 79.5t-26.5 72.5q0 47 33.5 79t98.5 32q67 0 141 -37l-9 -28q-73 37 -133 37q-50 0 -75.5 -23.5t-25.5 -59.5q0 -31 24.5 -58.5t88.5 -68.5
q96 -60 139 -113t43 -125t-47 -127.5t-127 -71.5zM133 -140l75 129q-88 5 -172 48l8 29q92 -48 181 -49l28 1l-90 -167z" />
    <glyph glyph-name="Scaron" unicode="&#x160;" horiz-adv-x="514" 
d="M54 98l9 29q96 -48 170 -48q60 0 97 31.5t37 81.5q0 44 -30 79t-107 83q-86 54 -122 101.5t-36 102.5q0 73 55.5 124t147.5 51q79 0 157 -39l-9 -28q-76 38 -149 38q-77 0 -124.5 -42.5t-47.5 -103.5q0 -47 32 -89t113 -92q88 -55 119 -93.5t31 -91.5q0 -62 -45 -101.5
t-120 -39.5q-87 0 -178 47zM36 36l8 29q95 -48 187 -48t148.5 51t56.5 126q0 64 -36.5 109t-132.5 104q-73 46 -99.5 79.5t-26.5 72.5q0 47 33.5 79t98.5 32q67 0 141 -37l-9 -28q-73 37 -133 37q-50 0 -75.5 -23.5t-25.5 -59.5q0 -31 24.5 -58.5t88.5 -68.5
q96 -60 139 -113t43 -125q0 -86 -65.5 -146t-170.5 -60q-99 0 -194 48zM419 841l-148 -76l-148 76l8 20l140 -62l140 62zM149 903l121 -35l123 35l9 -20l-131 -48l-131 48z" />
    <glyph glyph-name="scaron" unicode="&#x161;" horiz-adv-x="514" 
d="M419 841l-148 -76l-148 76l8 20l140 -62l140 62zM149 903l121 -35l123 35l9 -20l-131 -48l-131 48zM54 98l9 29q96 -48 170 -48q60 0 97 31.5t37 81.5q0 44 -30 79t-107 83q-86 54 -122 101.5t-36 102.5q0 73 55.5 124t147.5 51q79 0 157 -39l-9 -28q-76 38 -149 38
q-77 0 -124.5 -42.5t-47.5 -103.5q0 -47 32 -89t113 -92q88 -55 119 -93.5t31 -91.5q0 -62 -45 -101.5t-120 -39.5q-87 0 -178 47zM36 36l8 29q95 -48 187 -48t148.5 51t56.5 126q0 64 -36.5 109t-132.5 104q-73 46 -99.5 79.5t-26.5 72.5q0 47 33.5 79t98.5 32
q67 0 141 -37l-9 -28q-73 37 -133 37q-50 0 -75.5 -23.5t-25.5 -59.5q0 -31 24.5 -58.5t88.5 -68.5q96 -60 139 -113t43 -125q0 -86 -65.5 -146t-170.5 -60q-99 0 -194 48z" />
    <glyph glyph-name="Tcommaaccent" unicode="&#x162;" horiz-adv-x="502" 
d="M185 -133l5 25q51 4 69 -14q9 -9 9 -22q0 -49 -109 -92l-14 18q45 17 70 36t25 33q0 21 -55 16zM188 -273l-16 17q130 50 130 117q0 22 -15 37q-23 23 -92 22l6 25q77 -1 108 -32q20 -20 20 -48q0 -48 -36.5 -80t-104.5 -58zM270 0v658h202v-28h-172v-630h-30zM232 658
v-658h-30v630h-172v28h202zM472 720v-28h-442v28h442z" />
    <glyph glyph-name="Tcommaaccent" unicode="&#x21a;" horiz-adv-x="502" 
d="M185 -133l5 25q51 4 69 -14q9 -9 9 -22q0 -49 -109 -92l-14 18q45 17 70 36t25 33q0 21 -55 16zM188 -273l-16 17q130 50 130 117q0 22 -15 37q-23 23 -92 22l6 25q77 -1 108 -32q20 -20 20 -48q0 -48 -36.5 -80t-104.5 -58zM270 0v658h202v-28h-172v-630h-30zM232 658
v-658h-30v630h-172v28h202zM472 720v-28h-442v28h442z" />
    <glyph glyph-name="tcommaaccent" unicode="&#x163;" horiz-adv-x="502" 
d="M185 -133l5 25q51 4 69 -14q9 -9 9 -22q0 -49 -109 -92l-14 18q45 17 70 36t25 33q0 21 -55 16zM188 -273l-16 17q130 50 130 117q0 22 -15 37q-23 23 -92 22l6 25q77 -1 108 -32q20 -20 20 -48q0 -48 -36.5 -80t-104.5 -58zM270 0v658h202v-28h-172v-630h-30zM232 658
v-658h-30v630h-172v28h202zM472 720v-28h-442v28h442z" />
    <glyph glyph-name="tcommaaccent" unicode="&#x21b;" horiz-adv-x="502" 
d="M185 -133l5 25q51 4 69 -14q9 -9 9 -22q0 -49 -109 -92l-14 18q45 17 70 36t25 33q0 21 -55 16zM188 -273l-16 17q130 50 130 117q0 22 -15 37q-23 23 -92 22l6 25q77 -1 108 -32q20 -20 20 -48q0 -48 -36.5 -80t-104.5 -58zM270 0v658h202v-28h-172v-630h-30zM232 658
v-658h-30v630h-172v28h202zM472 720v-28h-442v28h442z" />
    <glyph glyph-name="Tcaron" unicode="&#x164;" horiz-adv-x="502" 
d="M270 0v658h202v-28h-172v-630h-30zM232 658v-658h-30v630h-172v28h202zM472 720v-28h-442v28h442zM399 836l-148 -76l-148 76l8 20l140 -62l140 62zM129 898l121 -35l123 35l9 -20l-131 -48l-131 48z" />
    <glyph glyph-name="tcaron" unicode="&#x165;" horiz-adv-x="502" 
d="M399 836l-148 -76l-148 76l8 20l140 -62l140 62zM129 898l121 -35l123 35l9 -20l-131 -48l-131 48zM270 0v658h202v-28h-172v-630h-30zM232 658v-658h-30v630h-172v28h202zM472 720v-28h-442v28h442z" />
    <glyph glyph-name="Umacron" unicode="&#x16a;" horiz-adv-x="640" 
d="M559 720v-479q0 -110 -65.5 -183t-175.5 -73q-109 0 -173 73.5t-64 181.5v480h30v-477q0 -100 56.5 -164.5t152.5 -64.5t152.5 64t56.5 165v477h30zM461 720h30v-475q0 -89 -45.5 -142t-125.5 -53q-81 0 -126 53.5t-45 142.5v474h30v-472q0 -78 37.5 -123.5t104.5 -45.5
q65 0 102.5 45t37.5 123v473zM461 870v-25h-282v25h282zM461 790h-282v25h282v-25z" />
    <glyph glyph-name="umacron" unicode="&#x16b;" horiz-adv-x="640" 
d="M559 720v-479q0 -110 -65.5 -183t-175.5 -73q-109 0 -173 73.5t-64 181.5v480h30v-477q0 -100 56.5 -164.5t152.5 -64.5t152.5 64t56.5 165v477h30zM461 720h30v-475q0 -89 -45.5 -142t-125.5 -53q-81 0 -126 53.5t-45 142.5v474h30v-472q0 -78 37.5 -123.5t104.5 -45.5
q65 0 102.5 45t37.5 123v473zM461 870v-25h-282v25h282zM461 790h-282v25h282v-25z" />
    <glyph glyph-name="Ubreve" unicode="&#x16c;" horiz-adv-x="640" 
d="M559 720v-479q0 -110 -65.5 -183t-175.5 -73q-109 0 -173 73.5t-64 181.5v480h30v-477q0 -100 56.5 -164.5t152.5 -64.5t152.5 64t56.5 165v477h30zM461 720h30v-475q0 -89 -45.5 -142t-125.5 -53q-81 0 -126 53.5t-45 142.5v474h30v-472q0 -78 37.5 -123.5t104.5 -45.5
q65 0 102.5 45t37.5 123v473zM320 814q-58 0 -121 40l11 20q51 -32 110 -32t110 32l11 -20q-63 -40 -121 -40zM320 756q-69 0 -144 58l11 19q67 -50 133 -50t133 50l11 -19q-75 -58 -144 -58z" />
    <glyph glyph-name="ubreve" unicode="&#x16d;" horiz-adv-x="640" 
d="M559 720v-479q0 -110 -65.5 -183t-175.5 -73q-109 0 -173 73.5t-64 181.5v480h30v-477q0 -100 56.5 -164.5t152.5 -64.5t152.5 64t56.5 165v477h30zM461 720h30v-475q0 -89 -45.5 -142t-125.5 -53q-81 0 -126 53.5t-45 142.5v474h30v-472q0 -78 37.5 -123.5t104.5 -45.5
q65 0 102.5 45t37.5 123v473zM320 814q-58 0 -121 40l11 20q51 -32 110 -32t110 32l11 -20q-63 -40 -121 -40zM320 756q-69 0 -144 58l11 19q67 -50 133 -50t133 50l11 -19q-75 -58 -144 -58z" />
    <glyph glyph-name="Uring" unicode="&#x16e;" horiz-adv-x="640" 
d="M347 809q0 11 -8.5 19.5t-18.5 8.5t-18.5 -8.5t-8.5 -19.5t8 -19.5t19 -8.5t19 8.5t8 19.5zM373 809q0 -24 -16.5 -38t-36.5 -14q-21 0 -37 14.5t-16 37.5q0 21 16 36.5t37 15.5t37 -15.5t16 -36.5zM430 809q0 -46 -33 -77t-77 -31t-77 31t-33 77q0 47 33.5 77.5
t76.5 30.5q44 0 77 -31t33 -77zM235 809q0 -38 25.5 -61t59.5 -23t59.5 23t25.5 61q0 36 -26 60t-59 24q-34 0 -59.5 -24t-25.5 -60zM559 720v-479q0 -110 -65.5 -183t-175.5 -73q-109 0 -173 73.5t-64 181.5v480h30v-477q0 -100 56.5 -164.5t152.5 -64.5t152.5 64t56.5 165
v477h30zM461 720h30v-475q0 -89 -45.5 -142t-125.5 -53q-81 0 -126 53.5t-45 142.5v474h30v-472q0 -78 37.5 -123.5t104.5 -45.5q65 0 102.5 45t37.5 123v473z" />
    <glyph glyph-name="uring" unicode="&#x16f;" horiz-adv-x="640" 
d="M347 809q0 11 -8.5 19.5t-18.5 8.5t-18.5 -8.5t-8.5 -19.5t8 -19.5t19 -8.5t19 8.5t8 19.5zM373 809q0 -24 -16.5 -38t-36.5 -14q-21 0 -37 14.5t-16 37.5q0 21 16 36.5t37 15.5t37 -15.5t16 -36.5zM430 809q0 -46 -33 -77t-77 -31t-77 31t-33 77q0 47 33.5 77.5
t76.5 30.5q44 0 77 -31t33 -77zM235 809q0 -38 25.5 -61t59.5 -23t59.5 23t25.5 61q0 36 -26 60t-59 24q-34 0 -59.5 -24t-25.5 -60zM559 720v-479q0 -110 -65.5 -183t-175.5 -73q-109 0 -173 73.5t-64 181.5v480h30v-477q0 -100 56.5 -164.5t152.5 -64.5t152.5 64t56.5 165
v477h30zM461 720h30v-475q0 -89 -45.5 -142t-125.5 -53q-81 0 -126 53.5t-45 142.5v474h30v-472q0 -78 37.5 -123.5t104.5 -45.5q65 0 102.5 45t37.5 123v473z" />
    <glyph glyph-name="Uhungarumlaut" unicode="&#x170;" horiz-adv-x="640" 
d="M559 720v-479q0 -110 -65.5 -183t-175.5 -73q-109 0 -173 73.5t-64 181.5v480h30v-477q0 -100 56.5 -164.5t152.5 -64.5t152.5 64t56.5 165v477h30zM461 720h30v-475q0 -89 -45.5 -142t-125.5 -53q-81 0 -126 53.5t-45 142.5v474h30v-472q0 -78 37.5 -123.5t104.5 -45.5
q65 0 102.5 45t37.5 123v473zM218 760l-16 12l144 130l24 -18zM294 936l25 -17l-135 -134l-16 12zM400 760l-16 12l142 130l25 -19zM476 934l24 -16l-134 -133l-16 12z" />
    <glyph glyph-name="uhungarumlaut" unicode="&#x171;" horiz-adv-x="640" 
d="M559 720v-479q0 -110 -65.5 -183t-175.5 -73q-109 0 -173 73.5t-64 181.5v480h30v-477q0 -100 56.5 -164.5t152.5 -64.5t152.5 64t56.5 165v477h30zM461 720h30v-475q0 -89 -45.5 -142t-125.5 -53q-81 0 -126 53.5t-45 142.5v474h30v-472q0 -78 37.5 -123.5t104.5 -45.5
q65 0 102.5 45t37.5 123v473zM218 760l-16 12l144 130l24 -18zM294 936l25 -17l-135 -134l-16 12zM400 760l-16 12l142 130l25 -19zM476 934l24 -16l-134 -133l-16 12z" />
    <glyph glyph-name="Uogonek" unicode="&#x172;" horiz-adv-x="640" 
d="M461 720h30v-475q0 -89 -45.5 -142t-125.5 -53q-81 0 -126 53.5t-45 142.5v474h30v-472q0 -78 37.5 -123.5t104.5 -45.5q65 0 102.5 45t37.5 123v473zM325 14q-63 -60 -63 -104q0 -20 15 -34t39 -20.5t41.5 -8.5t34.5 -3l-13 -22q-30 1 -59.5 6.5t-58 25.5t-28.5 52
q0 37 40 84q-86 13 -139 82t-53 168v480h30v-477q0 -101 57.5 -165t148.5 -64h8zM559 241q0 -93 -50.5 -163.5t-140.5 -87.5q-37 -31 -37 -66q0 -28 79 -32l-8 -22q-101 0 -101 48q0 26 18.5 53.5t41.5 45.5q82 17 125 78t43 148v477h30v-479z" />
    <glyph glyph-name="uogonek" unicode="&#x173;" horiz-adv-x="640" 
d="M461 720h30v-475q0 -89 -45.5 -142t-125.5 -53q-81 0 -126 53.5t-45 142.5v474h30v-472q0 -78 37.5 -123.5t104.5 -45.5q65 0 102.5 45t37.5 123v473zM325 14q-63 -60 -63 -104q0 -20 15 -34t39 -20.5t41.5 -8.5t34.5 -3l-13 -22q-30 1 -59.5 6.5t-58 25.5t-28.5 52
q0 37 40 84q-86 13 -139 82t-53 168v480h30v-477q0 -101 57.5 -165t148.5 -64h8zM559 241q0 -93 -50.5 -163.5t-140.5 -87.5q-37 -31 -37 -66q0 -28 79 -32l-8 -22q-101 0 -101 48q0 26 18.5 53.5t41.5 45.5q82 17 125 78t43 148v477h30v-479z" />
    <glyph glyph-name="Wcircumflex" unicode="&#x174;" horiz-adv-x="947" 
d="M475 913l148 -76l-8 -20l-140 62l-140 -62l-8 20zM474 810l-121 -35l-9 20l131 48l131 -48l-9 -20zM621 187l196 533h31l-225 -607l-124 301l122 306h31l-123 -309zM425 413l-129 307h31l128 -308l-121 -299l-235 607h31l205 -534zM551 720h30l-105 -264l-108 264h30
l78 -195zM316 -16l-289 736h31l272 -698h3l145 351l147 -351h3l261 698h31l-277 -736h-32l-132 315l-132 -315h-31z" />
    <glyph glyph-name="wcircumflex" unicode="&#x175;" horiz-adv-x="947" 
d="M475 913l148 -76l-8 -20l-140 62l-140 -62l-8 20zM474 810l-121 -35l-9 20l131 48l131 -48l-9 -20zM621 187l196 533h31l-225 -607l-124 301l122 306h31l-123 -309zM425 413l-129 307h31l128 -308l-121 -299l-235 607h31l205 -534zM551 720h30l-105 -264l-108 264h30
l78 -195zM316 -16l-289 736h31l272 -698h3l145 351l147 -351h3l261 698h31l-277 -736h-32l-132 315l-132 -315h-31z" />
    <glyph glyph-name="Ycircumflex" unicode="&#x176;" horiz-adv-x="571" 
d="M236 316l-225 404h33l223 -399v-321h-31v316zM335 0h-31v321l223 399h33l-225 -404v-316zM287 421l166 299h33l-199 -360l-201 360h33zM290 908l148 -76l-8 -20l-140 62l-140 -62l-8 20zM289 805l-121 -35l-9 20l131 48l131 -48l-9 -20z" />
    <glyph glyph-name="ycircumflex" unicode="&#x177;" horiz-adv-x="571" 
d="M236 316l-225 404h33l223 -399v-321h-31v316zM335 0h-31v321l223 399h33l-225 -404v-316zM287 421l166 299h33l-199 -360l-201 360h33zM290 908l148 -76l-8 -20l-140 62l-140 -62l-8 20zM289 805l-121 -35l-9 20l131 48l131 -48l-9 -20z" />
    <glyph glyph-name="Ydieresis" unicode="&#x178;" horiz-adv-x="571" 
d="M236 316l-225 404h33l223 -399v-321h-31v316zM335 0h-31v321l223 399h33l-225 -404v-316zM287 421l166 299h33l-199 -360l-201 360h33zM226 822q0 14 -10 24.5t-25 10.5q-14 0 -24.5 -10.5t-10.5 -24.5t10.5 -24.5t24.5 -10.5q15 0 25 10.5t10 24.5zM252 822
q0 -26 -18 -43t-43 -17q-24 0 -42.5 17t-18.5 43t18.5 43t42.5 17q25 0 43 -17t18 -43zM425 822q0 14 -10.5 24.5t-24.5 10.5q-15 0 -25 -10.5t-10 -24.5t10 -24.5t25 -10.5q14 0 24.5 10.5t10.5 24.5zM451 822q0 -26 -18.5 -43t-42.5 -17q-25 0 -43 17t-18 43t18 43t43 17
q24 0 42.5 -17t18.5 -43z" />
    <glyph glyph-name="Zacute" unicode="&#x179;" horiz-adv-x="550" 
d="M136 62l335 627l-2 3h-398v28h441l3 -5l-331 -625h312v-28h-360zM366 630h-295v28h343l-335 -627l2 -3h415v-28h-458l-3 5zM249 774l-13 17l176 111l23 -24zM366 948l25 -22l-170 -118l-14 17z" />
    <glyph glyph-name="zacute" unicode="&#x17a;" horiz-adv-x="550" 
d="M136 62l335 627l-2 3h-398v28h441l3 -5l-331 -625h312v-28h-360zM366 630h-295v28h343l-335 -627l2 -3h415v-28h-458l-3 5zM249 774l-13 17l176 111l23 -24zM366 948l25 -22l-170 -118l-14 17z" />
    <glyph glyph-name="Zdotaccent" unicode="&#x17b;" horiz-adv-x="550" 
d="M136 62l335 627l-2 3h-398v28h441l3 -5l-331 -625h312v-28h-360zM366 630h-295v28h343l-335 -627l2 -3h415v-28h-458l-3 5zM327 832q0 17 -10.5 28.5t-28.5 11.5t-28.5 -11.5t-10.5 -28.5t10.5 -28t28.5 -11t28.5 11t10.5 28zM355 832q0 -28 -19.5 -47t-47.5 -19
t-47.5 19t-19.5 47t19.5 47.5t47.5 19.5t47.5 -19.5t19.5 -47.5z" />
    <glyph glyph-name="zdotaccent" unicode="&#x17c;" horiz-adv-x="550" 
d="M136 62l335 627l-2 3h-398v28h441l3 -5l-331 -625h312v-28h-360zM366 630h-295v28h343l-335 -627l2 -3h415v-28h-458l-3 5zM327 832q0 17 -10.5 28.5t-28.5 11.5t-28.5 -11.5t-10.5 -28.5t10.5 -28t28.5 -11t28.5 11t10.5 28zM355 832q0 -28 -19.5 -47t-47.5 -19
t-47.5 19t-19.5 47t19.5 47.5t47.5 19.5t47.5 -19.5t19.5 -47.5z" />
    <glyph glyph-name="Zcaron" unicode="&#x17d;" horiz-adv-x="550" 
d="M136 62l335 627l-2 3h-398v28h441l3 -5l-331 -625h312v-28h-360zM366 630h-295v28h343l-335 -627l2 -3h415v-28h-458l-3 5zM436 836l-148 -76l-148 76l8 20l140 -62l140 62zM166 898l121 -35l123 35l9 -20l-131 -48l-131 48z" />
    <glyph glyph-name="zcaron" unicode="&#x17e;" horiz-adv-x="550" 
d="M136 62l335 627l-2 3h-398v28h441l3 -5l-331 -625h312v-28h-360zM366 630h-295v28h343l-335 -627l2 -3h415v-28h-458l-3 5zM436 836l-148 -76l-148 76l8 20l140 -62l140 62zM166 898l121 -35l123 35l9 -20l-131 -48l-131 48z" />
    <glyph glyph-name="florin" unicode="&#x192;" horiz-adv-x="472" 
d="M154 251h-112v28h86l24 259q11 89 60.5 144t133.5 55q15 0 25 -0.5t20.5 -2.5t13.5 -2.5t17 -4.5t18 -5l-6 -31q-53 15 -88 15q-68 0 -112 -47t-52 -125zM417 279v-28h-221l27 278q7 68 39 105t82 37q31 0 83 -16l-6 -29q-46 17 -77 17q-34 0 -61 -30t-31 -88l-22 -246
h187zM199 -17h-30l24 235h224v-28h-199zM116 190h-74v28h109l-24 -235h-30z" />
    <glyph glyph-name="Aringacute" unicode="&#x1fa;" horiz-adv-x="658" 
d="M314 867l-16 17l154 104l21 -22zM408 1032l23 -20l-148 -113l-16 17zM333 602l154 -405h-316zM179 135l-50 -135h-32l61 163h342l61 -163h-32l-50 135h-300zM446 225l-113 302l-121 -302h234zM360 718q0 11 -8.5 19.5t-18.5 8.5t-18.5 -8.5t-8.5 -19.5t8 -19.5t19 -8.5
t19 8.5t8 19.5zM386 718q0 -24 -16.5 -38.5t-36.5 -14.5q-21 0 -37 14t-16 39q0 21 16 36.5t37 15.5t37 -15.5t16 -36.5zM601 0l-243 638q60 24 60 80q0 36 -26 60t-59 24q-34 0 -59.5 -24t-25.5 -60q0 -31 19 -52.5t41 -28.5l-251 -637h-32l250 625q-54 37 -54 93
q0 49 33 79.5t79 30.5t79 -30.5t33 -79.5q0 -57 -54 -93l242 -625h-32z" />
    <glyph glyph-name="aringacute" unicode="&#x1fb;" horiz-adv-x="657" 
d="M314 867l-16 17l154 104l21 -22zM408 1032l23 -20l-148 -113l-16 17zM332 602l154 -405h-316zM178 135l-50 -135h-32l61 163h342l61 -163h-32l-50 135h-300zM445 225l-113 302l-121 -302h234zM359 718q0 11 -8.5 19.5t-18.5 8.5t-18.5 -8.5t-8.5 -19.5t8 -19.5t19 -8.5
t19 8.5t8 19.5zM385 718q0 -24 -16.5 -38.5t-36.5 -14.5q-21 0 -37 14t-16 39q0 21 16 36.5t37 15.5t37 -15.5t16 -36.5zM600 0l-243 638q60 24 60 80q0 36 -26 60t-59 24q-34 0 -59.5 -24t-25.5 -60q0 -31 19 -52.5t41 -28.5l-251 -637h-32l250 625q-54 37 -54 93
q0 49 33 79.5t79 30.5t79 -30.5t33 -79.5q0 -57 -54 -93l242 -625h-32z" />
    <glyph glyph-name="AEacute" unicode="&#x1fc;" horiz-adv-x="782" 
d="M723 90v-28h-260v328h253v-28h-223v-272h230zM716 452v-28h-253v234h258v-28h-228v-178h223zM425 191v-163h298v-28h-328v163h-194l-85 -163h-34l100 191h243zM425 225h-225l225 430v-430zM406 692l-362 -692h-34l377 720h334v-28h-315zM248 252h149v290zM519 774l-13 17
l176 111l23 -24zM636 948l25 -22l-170 -118l-14 17z" />
    <glyph glyph-name="aeacute" unicode="&#x1fd;" horiz-adv-x="782" 
d="M519 774l-13 17l176 111l23 -24zM636 948l25 -22l-170 -118l-14 17zM723 90v-28h-260v328h253v-28h-223v-272h230zM716 452v-28h-253v234h258v-28h-228v-178h223zM425 191v-163h298v-28h-328v163h-194l-85 -163h-34l100 191h243zM425 225h-225l225 430v-430zM406 692
l-362 -692h-34l377 720h334v-28h-315zM248 252h149v290z" />
    <glyph glyph-name="Oslashacute" unicode="&#x1fe;" 
d="M382 779l-13 17l176 111l23 -24zM499 953l25 -22l-170 -118l-14 17zM235 109l397 480l20 -23q73 -87 73 -206q0 -133 -87 -222.5t-217 -89.5q-88 0 -160 44zM604 611l-396 -479q-19 19 -22 25q-69 83 -69 203q0 133 87 222.5t217 89.5q84 0 157 -43zM695 358
q0 111 -63 186l-353 -427q63 -39 144 -39q115 0 193.5 81t78.5 199zM147 362q0 -111 60 -184l354 426q-61 38 -142 38q-115 0 -193.5 -81.5t-78.5 -198.5zM656 617l65 78l23 -17l-48 -57q101 -104 101 -259q0 -159 -110.5 -269t-267.5 -110q-113 0 -203 58l-46 -55l-23 17
l65 78q11 -11 25 -18q84 -51 184 -51q143 0 244 101.5t101 246.5q0 136 -88 235zM691 716l-63 -76l-26 18q-81 50 -181 50q-143 0 -244 -101.5t-101 -246.5q0 -137 86 -234l22 -22l-67 -80l-23 17l49 59q-98 104 -98 258q0 159 110.5 269t267.5 110q111 0 200 -58l45 54z
" />
    <glyph glyph-name="oslashacute" unicode="&#x1ff;" 
d="M382 779l-13 17l176 111l23 -24zM499 953l25 -22l-170 -118l-14 17zM235 109l397 480l20 -23q73 -87 73 -206q0 -133 -87 -222.5t-217 -89.5q-88 0 -160 44zM604 611l-396 -479q-19 19 -22 25q-69 83 -69 203q0 133 87 222.5t217 89.5q84 0 157 -43zM695 358
q0 111 -63 186l-353 -427q63 -39 144 -39q115 0 193.5 81t78.5 199zM147 362q0 -111 60 -184l354 426q-61 38 -142 38q-115 0 -193.5 -81.5t-78.5 -198.5zM656 617l65 78l23 -17l-48 -57q101 -104 101 -259q0 -159 -110.5 -269t-267.5 -110q-113 0 -203 58l-46 -55l-23 17
l65 78q11 -11 25 -18q84 -51 184 -51q143 0 244 101.5t101 246.5q0 136 -88 235zM691 716l-63 -76l-26 18q-81 50 -181 50q-143 0 -244 -101.5t-101 -246.5q0 -137 86 -234l22 -22l-67 -80l-23 17l49 59q-98 104 -98 258q0 159 110.5 269t267.5 110q111 0 200 -58l45 54z
" />
    <glyph glyph-name="Scommaaccent" unicode="&#x218;" horiz-adv-x="514" 
d="M54 98l9 29q96 -48 170 -48q60 0 97 31.5t37 81.5q0 44 -30 79t-107 83q-86 54 -122 101.5t-36 102.5q0 73 55.5 124t147.5 51q79 0 157 -39l-9 -28q-76 38 -149 38q-77 0 -124.5 -42.5t-47.5 -103.5q0 -47 32 -89t113 -92q88 -55 119 -93.5t31 -91.5q0 -62 -45 -101.5
t-120 -39.5q-87 0 -178 47zM36 36l8 29q95 -48 187 -48t148.5 51t56.5 126q0 64 -36.5 109t-132.5 104q-73 46 -99.5 79.5t-26.5 72.5q0 47 33.5 79t98.5 32q67 0 141 -37l-9 -28q-73 37 -133 37q-50 0 -75.5 -23.5t-25.5 -59.5q0 -31 24.5 -58.5t88.5 -68.5
q96 -60 139 -113t43 -125q0 -86 -65.5 -146t-170.5 -60q-99 0 -194 48zM197 -133l5 25q51 4 69 -14q9 -9 9 -22q0 -49 -109 -92l-14 18q45 17 70 36t25 33q0 21 -55 16zM200 -273l-16 17q130 50 130 117q0 22 -15 37q-23 23 -92 22l6 25q77 -1 108 -32q20 -20 20 -48
q0 -48 -36.5 -80t-104.5 -58z" />
    <glyph glyph-name="scommaaccent" unicode="&#x219;" horiz-adv-x="514" 
d="M54 98l9 29q96 -48 170 -48q60 0 97 31.5t37 81.5q0 44 -30 79t-107 83q-86 54 -122 101.5t-36 102.5q0 73 55.5 124t147.5 51q79 0 157 -39l-9 -28q-76 38 -149 38q-77 0 -124.5 -42.5t-47.5 -103.5q0 -47 32 -89t113 -92q88 -55 119 -93.5t31 -91.5q0 -62 -45 -101.5
t-120 -39.5q-87 0 -178 47zM36 36l8 29q95 -48 187 -48t148.5 51t56.5 126q0 64 -36.5 109t-132.5 104q-73 46 -99.5 79.5t-26.5 72.5q0 47 33.5 79t98.5 32q67 0 141 -37l-9 -28q-73 37 -133 37q-50 0 -75.5 -23.5t-25.5 -59.5q0 -31 24.5 -58.5t88.5 -68.5
q96 -60 139 -113t43 -125q0 -86 -65.5 -146t-170.5 -60q-99 0 -194 48zM197 -133l5 25q51 4 69 -14q9 -9 9 -22q0 -49 -109 -92l-14 18q45 17 70 36t25 33q0 21 -55 16zM200 -273l-16 17q130 50 130 117q0 22 -15 37q-23 23 -92 22l6 25q77 -1 108 -32q20 -20 20 -48
q0 -48 -36.5 -80t-104.5 -58z" />
    <glyph glyph-name="circumflex" unicode="&#x2c6;" horiz-adv-x="532" 
d="M266 913l148 -76l-8 -20l-140 62l-140 -62l-8 20zM265 810l-121 -35l-9 20l131 48l131 -48l-9 -20z" />
    <glyph glyph-name="caron" unicode="&#x2c7;" horiz-adv-x="532" 
d="M414 836l-148 -76l-148 76l8 20l140 -62l140 62zM144 898l121 -35l123 35l9 -20l-131 -48l-131 48z" />
    <glyph glyph-name="breve" unicode="&#x2d8;" horiz-adv-x="510" 
d="M255 826q-58 0 -121 40l11 20q51 -32 110 -32t110 32l11 -20q-63 -40 -121 -40zM255 768q-69 0 -144 58l11 19q67 -50 133 -50t133 50l11 -19q-75 -58 -144 -58z" />
    <glyph glyph-name="dotaccent" unicode="&#x2d9;" horiz-adv-x="524" 
d="M301 832q0 17 -10.5 28.5t-28.5 11.5t-28.5 -11.5t-10.5 -28.5t10.5 -28t28.5 -11t28.5 11t10.5 28zM329 832q0 -28 -19.5 -47t-47.5 -19t-47.5 19t-19.5 47t19.5 47.5t47.5 19.5t47.5 -19.5t19.5 -47.5z" />
    <glyph glyph-name="ring" unicode="&#x2da;" horiz-adv-x="534" 
d="M294 814q0 11 -8.5 19.5t-18.5 8.5t-18.5 -8.5t-8.5 -19.5t8 -19.5t19 -8.5t19 8.5t8 19.5zM320 814q0 -24 -16.5 -38t-36.5 -14q-21 0 -37 14.5t-16 37.5q0 21 16 36.5t37 15.5t37 -15.5t16 -36.5zM377 814q0 -46 -33 -77t-77 -31t-77 31t-33 77q0 47 33.5 77.5
t76.5 30.5q44 0 77 -31t33 -77zM182 814q0 -38 25.5 -61t59.5 -23t59.5 23t25.5 61q0 36 -26 60t-59 24q-34 0 -59.5 -24t-25.5 -60z" />
    <glyph glyph-name="ogonek" unicode="&#x2db;" horiz-adv-x="524" 
d="M248 9h33q-66 -51 -66 -101q0 -61 129 -64l-13 -22q-147 3 -147 84q0 25 18 53t46 50zM313 8l28 -4q-55 -43 -55 -77q0 -36 75 -36l-7 -21q-100 0 -100 49q0 23 19 49t40 40z" />
    <glyph glyph-name="tilde" unicode="&#x2dc;" horiz-adv-x="489" 
d="M244 819q40 -19 58 -19q31 0 73 37l5 -25q-42 -38 -81 -38q-23 0 -55 15q-48 23 -61 23q-25 0 -58 -30l-5 27q35 31 64 31q16 0 60 -21zM244 880q48 -23 61 -23q25 0 58 30l5 -27q-35 -31 -64 -31q-16 0 -60 21q-40 19 -58 19q-31 0 -73 -37l-5 25q42 38 81 38
q23 0 55 -15z" />
    <glyph glyph-name="hungarumlaut" unicode="&#x2dd;" horiz-adv-x="558" 
d="M170 765l-16 12l144 130l24 -18zM246 941l25 -17l-135 -134l-16 12zM352 765l-16 12l142 130l25 -19zM428 939l24 -16l-134 -133l-16 12z" />
    <glyph glyph-name="commaaccent" unicode="&#x326;" horiz-adv-x="530" 
d="M204 -133l5 25q51 4 69 -14q9 -9 9 -22q0 -49 -109 -92l-14 18q45 17 70 36t25 33q0 21 -55 16zM207 -273l-16 17q130 50 130 117q0 22 -15 37q-23 23 -92 22l6 25q77 -1 108 -32q20 -20 20 -48q0 -48 -36.5 -80t-104.5 -58z" />
    <glyph glyph-name="Wgrave" unicode="&#x1e80;" horiz-adv-x="947" 
d="M621 187l196 533h31l-225 -607l-124 301l122 306h31l-123 -309zM425 413l-129 307h31l128 -308l-121 -299l-235 607h31l205 -534zM551 720h30l-105 -264l-108 264h30l78 -195zM316 -16l-289 736h31l272 -698h3l145 351l147 -351h3l261 698h31l-277 -736h-32l-132 315
l-132 -315h-31zM526 791l-13 -17l-186 104l23 24zM371 926l25 22l159 -123l-14 -17z" />
    <glyph glyph-name="wgrave" unicode="&#x1e81;" horiz-adv-x="947" 
d="M621 187l196 533h31l-225 -607l-124 301l122 306h31l-123 -309zM425 413l-129 307h31l128 -308l-121 -299l-235 607h31l205 -534zM551 720h30l-105 -264l-108 264h30l78 -195zM316 -16l-289 736h31l272 -698h3l145 351l147 -351h3l261 698h31l-277 -736h-32l-132 315
l-132 -315h-31zM526 791l-13 -17l-186 104l23 24zM371 926l25 22l159 -123l-14 -17z" />
    <glyph glyph-name="Wacute" unicode="&#x1e82;" horiz-adv-x="947" 
d="M621 187l196 533h31l-225 -607l-124 301l122 306h31l-123 -309zM425 413l-129 307h31l128 -308l-121 -299l-235 607h31l205 -534zM551 720h30l-105 -264l-108 264h30l78 -195zM316 -16l-289 736h31l272 -698h3l145 351l147 -351h3l261 698h31l-277 -736h-32l-132 315
l-132 -315h-31zM436 774l-13 17l176 111l23 -24zM553 948l25 -22l-170 -118l-14 17z" />
    <glyph glyph-name="wacute" unicode="&#x1e83;" horiz-adv-x="947" 
d="M621 187l196 533h31l-225 -607l-124 301l122 306h31l-123 -309zM425 413l-129 307h31l128 -308l-121 -299l-235 607h31l205 -534zM551 720h30l-105 -264l-108 264h30l78 -195zM316 -16l-289 736h31l272 -698h3l145 351l147 -351h3l261 698h31l-277 -736h-32l-132 315
l-132 -315h-31zM436 774l-13 17l176 111l23 -24zM553 948l25 -22l-170 -118l-14 17z" />
    <glyph glyph-name="Wdieresis" unicode="&#x1e84;" horiz-adv-x="947" 
d="M621 187l196 533h31l-225 -607l-124 301l122 306h31l-123 -309zM425 413l-129 307h31l128 -308l-121 -299l-235 607h31l205 -534zM551 720h30l-105 -264l-108 264h30l78 -195zM316 -16l-289 736h31l272 -698h3l145 351l147 -351h3l261 698h31l-277 -736h-32l-132 315
l-132 -315h-31zM411 827q0 14 -10 24.5t-25 10.5q-14 0 -24.5 -10.5t-10.5 -24.5t10.5 -24.5t24.5 -10.5q15 0 25 10.5t10 24.5zM437 827q0 -26 -18 -43t-43 -17q-24 0 -42.5 17t-18.5 43t18.5 43t42.5 17q25 0 43 -17t18 -43zM610 827q0 14 -10.5 24.5t-24.5 10.5
q-15 0 -25 -10.5t-10 -24.5t10 -24.5t25 -10.5q14 0 24.5 10.5t10.5 24.5zM636 827q0 -26 -18.5 -43t-42.5 -17q-25 0 -43 17t-18 43t18 43t43 17q24 0 42.5 -17t18.5 -43z" />
    <glyph glyph-name="wdieresis" unicode="&#x1e85;" horiz-adv-x="947" 
d="M621 187l196 533h31l-225 -607l-124 301l122 306h31l-123 -309zM425 413l-129 307h31l128 -308l-121 -299l-235 607h31l205 -534zM551 720h30l-105 -264l-108 264h30l78 -195zM316 -16l-289 736h31l272 -698h3l145 351l147 -351h3l261 698h31l-277 -736h-32l-132 315
l-132 -315h-31zM411 827q0 14 -10 24.5t-25 10.5q-14 0 -24.5 -10.5t-10.5 -24.5t10.5 -24.5t24.5 -10.5q15 0 25 10.5t10 24.5zM437 827q0 -26 -18 -43t-43 -17q-24 0 -42.5 17t-18.5 43t18.5 43t42.5 17q25 0 43 -17t18 -43zM610 827q0 14 -10.5 24.5t-24.5 10.5
q-15 0 -25 -10.5t-10 -24.5t10 -24.5t25 -10.5q14 0 24.5 10.5t10.5 24.5zM636 827q0 -26 -18.5 -43t-42.5 -17q-25 0 -43 17t-18 43t18 43t43 17q24 0 42.5 -17t18.5 -43z" />
    <glyph glyph-name="Ygrave" unicode="&#x1ef2;" horiz-adv-x="571" 
d="M236 316l-225 404h33l223 -399v-321h-31v316zM335 0h-31v321l223 399h33l-225 -404v-316zM287 421l166 299h33l-199 -360l-201 360h33zM300 791l-13 -17l-186 104l23 24zM145 926l25 22l159 -123l-14 -17z" />
    <glyph glyph-name="ygrave" unicode="&#x1ef3;" horiz-adv-x="571" 
d="M236 316l-225 404h33l223 -399v-321h-31v316zM335 0h-31v321l223 399h33l-225 -404v-316zM287 421l166 299h33l-199 -360l-201 360h33zM300 791l-13 -17l-186 104l23 24zM145 926l25 22l159 -123l-14 -17z" />
    <glyph glyph-name="enspace" unicode="&#x2002;" horiz-adv-x="500" 
 />
    <glyph glyph-name="emspace" unicode="&#x2003;" horiz-adv-x="1000" 
 />
    <glyph glyph-name="threeperemspace" unicode="&#x2004;" horiz-adv-x="333" 
 />
    <glyph glyph-name="fourperemspace" unicode="&#x2005;" horiz-adv-x="250" 
 />
    <glyph glyph-name="thinspace" unicode="&#x2009;" horiz-adv-x="133" 
 />
    <glyph glyph-name="hairspace" unicode="&#x200a;" horiz-adv-x="75" 
 />
    <glyph glyph-name="endash" unicode="&#x2013;" horiz-adv-x="556" 
d="M493 327v-29h-430v29h430zM493 237h-430v29h430v-29z" />
    <glyph glyph-name="emdash" unicode="&#x2014;" horiz-adv-x="978" 
d="M897 327v-29h-816v29h816zM897 237h-816v29h816v-29z" />
    <glyph glyph-name="quoteleft" unicode="&#x2018;" horiz-adv-x="245" 
d="M143 491h-25l-76 229h32zM113 720h31l56 -229h-24z" />
    <glyph glyph-name="quoteright" unicode="&#x2019;" horiz-adv-x="245" 
d="M127 491h-25l69 229h32zM101 720h31l-63 -229h-24z" />
    <glyph glyph-name="quotesinglbase" unicode="&#x201a;" horiz-adv-x="250" 
d="M124 -151h-25l69 229h32zM98 78h31l-63 -229h-24z" />
    <glyph glyph-name="quotedblleft" unicode="&#x201c;" horiz-adv-x="412" 
d="M143 491h-25l-76 229h32zM113 720h31l56 -229h-24zM310 491h-25l-76 229h32zM280 720h31l56 -229h-24z" />
    <glyph glyph-name="quotedblright" unicode="&#x201d;" horiz-adv-x="412" 
d="M294 491h-25l69 229h32zM268 720h31l-63 -229h-24zM127 491h-25l69 229h32zM101 720h31l-63 -229h-24z" />
    <glyph glyph-name="quotedblbase" unicode="&#x201e;" horiz-adv-x="417" 
d="M291 -151h-25l69 229h32zM265 78h31l-63 -229h-24zM124 -151h-25l69 229h32zM98 78h31l-63 -229h-24z" />
    <glyph glyph-name="dagger" unicode="&#x2020;" horiz-adv-x="342" 
d="M188 336l-3 232l117 -5v-28l-92 5l6 -204h-28zM153 720l4 -127l-117 4v27l90 -4l-5 100h28zM154 336h-29l7 204l-92 -5v28l117 5zM189 720h28l-5 -101l90 5v-26l-117 -5z" />
    <glyph glyph-name="daggerdbl" unicode="&#x2021;" horiz-adv-x="352" 
d="M158 720l4 -127l-117 4v27l90 -4l-5 100h28zM194 720h28l-5 -101l90 5v-27l-117 -4zM162 422l-117 4v27l91 -4l1 91l-92 -5v28l117 5v-146zM190 422v146l117 -5v-28l-92 5l1 -92l91 5v-26zM194 270l-4 127l117 -4v-27l-90 4l5 -100h-28zM158 270h-28l5 101l-90 -5v27
l117 4z" />
    <glyph glyph-name="bullet" unicode="&#x2022;" horiz-adv-x="330" 
d="M264 365q0 41 -28 71t-70 30q-43 0 -71 -30t-28 -72q0 -40 28.5 -70.5t70.5 -30.5q39 0 68.5 31t29.5 71zM165 422q24 0 39.5 -17.5t15.5 -40.5q0 -22 -15.5 -39t-38.5 -17q-25 0 -40.5 17t-15.5 40t15.5 40t39.5 17zM290 366q0 -53 -36.5 -91t-88.5 -38q-53 0 -89 37.5
t-36 89.5q0 54 36.5 91.5t89.5 37.5t88.5 -37.5t35.5 -89.5z" />
    <glyph glyph-name="ellipsis" unicode="&#x2026;" horiz-adv-x="785" 
d="M692 48q0 17 -10.5 28.5t-28.5 11.5t-28.5 -11.5t-10.5 -28.5t10.5 -28t28.5 -11t28.5 11t10.5 28zM720 48q0 -28 -19.5 -47t-47.5 -19t-47.5 19t-19.5 47t19.5 47.5t47.5 19.5t47.5 -19.5t19.5 -47.5zM432 48q0 17 -10.5 28.5t-28.5 11.5t-28.5 -11.5t-10.5 -28.5
t10.5 -28t28.5 -11t28.5 11t10.5 28zM460 48q0 -28 -19.5 -47t-47.5 -19t-47.5 19t-19.5 47t19.5 47.5t47.5 19.5t47.5 -19.5t19.5 -47.5zM171 48q0 17 -10.5 28.5t-28.5 11.5t-28.5 -11.5t-10.5 -28.5t10.5 -28t28.5 -11t28.5 11t10.5 28zM199 48q0 -28 -19.5 -47
t-47.5 -19t-47.5 19t-19.5 47t19.5 47.5t47.5 19.5t47.5 -19.5t19.5 -47.5z" />
    <glyph glyph-name="guilsinglleft" unicode="&#x2039;" horiz-adv-x="282" 
d="M142 80l-114 204l114 200h31l-106 -201l105 -203h-30zM236 484l-87 -203l86 -201h-30l-93 201l93 203h31z" />
    <glyph glyph-name="guilsinglright" unicode="&#x203a;" horiz-adv-x="278" 
d="M254 284l-114 -204h-30l105 203l-106 201h31zM133 281l-87 203h31l93 -203l-93 -201h-30z" />
    <glyph glyph-name="Euro" unicode="&#x20ac;" horiz-adv-x="623" 
d="M540 427v-28h-375q10 123 71.5 197.5t150.5 74.5q40 0 72 -12t74 -38l-11 -28q-74 47 -135 47q-71 0 -123 -59.5t-64 -153.5h340zM540 282v-28h-364q-11 59 -11 114h375v-28h-342q0 -24 4 -58h338zM125 399h-97v28h68q18 142 99.5 224.5t191.5 82.5q81 0 170 -55l-11 -27
q-88 54 -159 54q-102 0 -177 -84t-85 -223zM383 80q77 0 145 47l12 -26q-75 -51 -157 -51q-65 0 -120.5 43t-80.5 130h358v-28h-315q22 -55 65.5 -85t92.5 -30zM117 195h-89v28h113q31 -106 96.5 -156t145.5 -50q89 0 170 55l12 -26q-84 -57 -182 -58q-88 -1 -160.5 52.5
t-105.5 154.5zM94 340h-66v28h97q0 -56 9 -114h-106v28h70q-4 44 -4 58z" />
    <glyph glyph-name="published" unicode="&#x2117;" horiz-adv-x="868" 
d="M408 327h20q43 0 68.5 25t25.5 60q0 32 -27 55.5t-69 23.5h-18v-164zM428 300h-47v218h45q52 0 87.5 -31t35.5 -75q0 -49 -36 -80.5t-85 -31.5zM349 136h-27v437h106q78 0 129.5 -47.5t51.5 -112.5q0 -80 -58.5 -123.5t-127.5 -43.5h-15v-110h-27v136h43q61 0 109.5 38
t48.5 103q0 55 -44.5 94t-109.5 39h-79v-410zM820 362q0 -158 -112.5 -268t-274.5 -110q-163 0 -274 108.5t-111 266.5t112.5 268t274.5 110q163 0 274 -108.5t111 -266.5zM789 359q0 150 -102.5 249.5t-253.5 99.5q-150 0 -252 -99.5t-102 -246.5q0 -150 102.5 -250
t253.5 -100q149 0 251.5 100t102.5 247z" />
    <glyph glyph-name="servicemark" unicode="&#x2120;" horiz-adv-x="466" 
d="M330 566h-9l-66 103v-156h-25v207h18l77 -120l79 120h17v-207h-25v156zM165 707l-10 -21q-22 13 -46 13q-12 0 -21.5 -8t-9.5 -19t9 -20t33 -21q30 -15 41.5 -29t11.5 -35q0 -25 -18 -40.5t-48 -15.5q-33 0 -64 20l12 19q26 -17 53 -17q18 0 29.5 9.5t11.5 23.5
q0 13 -8.5 22.5t-33.5 22.5q-29 14 -41 27t-12 33q0 21 16.5 35.5t39.5 14.5q27 0 55 -14z" />
    <glyph glyph-name="trademark" unicode="&#x2122;" horiz-adv-x="460" 
d="M325 566h-10l-66 103v-156h-25v207h19l76 -120l79 120h17v-207h-24v156zM178 697h-63v-184h-25v184h-62v22h150v-22z" />
    <glyph glyph-name="minus" unicode="&#x2212;" horiz-adv-x="500" 
d="M35 377h430v-28h-430v28zM35 415v28h430v-28h-430z" />
    <glyph glyph-name="f_f" unicode="&#xfb00;" horiz-adv-x="940" 
d="M408 720v-28h-284v-692h-30v720h314zM407 443v-28h-245v243h246v-28h-216v-187h215zM192 0h-30v381h245v-28h-215v-353zM878 720v-28h-284v-692h-30v720h314zM877 443v-28h-245v243h246v-28h-216v-187h215zM662 0h-30v381h245v-28h-215v-353z" />
    <glyph glyph-name="fi" unicode="&#xfb01;" horiz-adv-x="764" 
d="M608 720v-720h-30v720h30zM676 0h-30v720h30v-720zM408 720v-28h-284v-692h-30v720h314zM407 443v-28h-245v243h246v-28h-216v-187h215zM192 0h-30v381h245v-28h-215v-353z" />
    <glyph glyph-name="fl" unicode="&#xfb02;" horiz-adv-x="946" 
d="M408 720v-28h-284v-692h-30v720h314zM407 443v-28h-245v243h246v-28h-216v-187h215zM192 0h-30v381h245v-28h-215v-353zM564 0v720h30v-692h299v-28h-329zM632 62v658h30v-630h231v-28h-261z" />
    <glyph glyph-name="f_f_i" unicode="&#xfb03;" horiz-adv-x="1234" 
d="M1078 720v-720h-30v720h30zM1146 0h-30v720h30v-720zM878 720v-28h-284v-692h-30v720h314zM877 443v-28h-245v243h246v-28h-216v-187h215zM662 0h-30v381h245v-28h-215v-353zM408 720v-28h-284v-692h-30v720h314zM407 443v-28h-245v243h246v-28h-216v-187h215zM192 0h-30
v381h245v-28h-215v-353z" />
    <glyph glyph-name="f_f_l" unicode="&#xfb04;" horiz-adv-x="1416" 
d="M408 720v-28h-284v-692h-30v720h314zM407 443v-28h-245v243h246v-28h-216v-187h215zM192 0h-30v381h245v-28h-215v-353zM878 720v-28h-284v-692h-30v720h314zM877 443v-28h-245v243h246v-28h-216v-187h215zM662 0h-30v381h245v-28h-215v-353zM1034 0v720h30v-692h299v-28
h-329zM1102 62v658h30v-630h231v-28h-261z" />
    <glyph glyph-name="Adieresis.alt" horiz-adv-x="658" 
d="M192 693q0 14 -10 24.5t-25 10.5q-14 0 -24.5 -10.5t-10.5 -24.5t10.5 -24.5t24.5 -10.5q15 0 25 10.5t10 24.5zM218 693q0 -26 -18 -43t-43 -17q-24 0 -42.5 17t-18.5 43t18.5 43t42.5 17q25 0 43 -17t18 -43zM540 693q0 14 -10.5 24.5t-24.5 10.5q-15 0 -25 -10.5
t-10 -24.5t10 -24.5t25 -10.5q14 0 24.5 10.5t10.5 24.5zM566 693q0 -26 -18.5 -43t-42.5 -17q-25 0 -43 17t-18 43t18 43t43 17q24 0 42.5 -17t18.5 -43zM331 695l-274 -695h-32l294 736h28l286 -736h-32l-266 695h-4zM333 602l154 -405h-316zM179 135l-50 -135h-32l61 163
h342l61 -163h-32l-50 135h-300zM446 225l-113 302l-121 -302h234z" />
    <glyph glyph-name="Aring.alt" horiz-adv-x="658" 
d="M171 197l141 365q12 -2 21 -2t21 2l133 -365h-316zM179 135l-50 -135h-32l61 163h342l61 -163h-32l-50 135h-300zM362 646q0 12 -8 21.5t-21 9.5t-21 -9.5t-8 -21.5t8 -21t21 -9t21 9t8 21zM389 646q0 -25 -17 -40t-39 -15q-23 0 -39.5 15t-16.5 40t16.5 40t39.5 15
t39.5 -15t16.5 -40zM601 0l-215 579q36 26 36 69q0 37 -27 61.5t-62 24.5t-62 -24t-27 -62q0 -42 35 -69l-222 -579h-32l222 575q-31 27 -31 73q0 50 36 80.5t81 30.5t81 -30.5t36 -80.5q0 -26 -11 -45.5t-21 -27.5l215 -575h-32zM446 225l-111 309h-3l-120 -309h234z" />
    <glyph glyph-name="Aringacute.alt" horiz-adv-x="658" 
d="M313 799l-16 17l154 104l21 -22zM407 964l23 -20l-148 -113l-16 17zM171 197l141 365q12 -2 21 -2t21 2l133 -365h-316zM179 135l-50 -135h-32l61 163h342l61 -163h-32l-50 135h-300zM362 646q0 12 -8 21.5t-21 9.5t-21 -9.5t-8 -21.5t8 -21t21 -9t21 9t8 21zM389 646
q0 -25 -17 -40t-39 -15q-23 0 -39.5 15t-16.5 40t16.5 40t39.5 15t39.5 -15t16.5 -40zM601 0l-215 579q36 26 36 69q0 37 -27 61.5t-62 24.5t-62 -24t-27 -62q0 -42 35 -69l-222 -579h-32l222 575q-31 27 -31 73q0 50 36 80.5t81 30.5t81 -30.5t36 -80.5q0 -26 -11 -45.5
t-21 -27.5l215 -575h-32zM446 225l-111 309h-3l-120 -309h234z" />
    <glyph glyph-name="Ccedilla.alt" horiz-adv-x="708" 
d="M304 -205l-14 15l164 100l19 -23zM412 -44l20 -23l-156 -106l-13 15zM651 85l6 -29q-121 -73 -241 -73q-158 0 -264.5 107.5t-106.5 267.5q0 163 110.5 271t264.5 108q131 0 235 -72l-11 -30q-108 73 -226 73q-135 0 -238.5 -99t-103.5 -249q0 -147 97.5 -247.5
t244.5 -100.5q120 0 233 73zM637 149l7 -30q-120 -71 -226 -71q-131 0 -216 88.5t-85 223.5q0 138 87.5 225t213.5 87q118 0 215 -74l-12 -29q-40 32 -96.5 53t-108.5 21q-110 0 -189 -78.5t-79 -202.5q0 -123 76 -204t196 -81q102 0 217 72z" />
    <glyph glyph-name="Ntilde.alt" horiz-adv-x="670" 
d="M576 -9h-35l-353 500l1 -491h-29v577l383 -543h4v686h29v-729zM94 0v729h36l352 -498l-1 489h29v-576l-382 542h-5v-686h-29zM466 875v-25h-282v25h282zM466 795h-282v25h282v-25z" />
    <glyph glyph-name="Odieresis.alt" 
d="M94 697q0 14 -10 24.5t-25 10.5q-14 0 -24.5 -10.5t-10.5 -24.5t10.5 -24.5t24.5 -10.5q15 0 25 10.5t10 24.5zM120 697q0 -26 -18 -43t-43 -17q-24 0 -42.5 17t-18.5 43t18.5 43t42.5 17q25 0 43 -17t18 -43zM816 697q0 14 -10 24.5t-25 10.5q-14 0 -24.5 -10.5
t-10.5 -24.5t10.5 -24.5t24.5 -10.5q15 0 25 10.5t10 24.5zM842 697q0 -26 -18 -43t-43 -17q-24 0 -42.5 17t-18.5 43t18.5 43t42.5 17q25 0 43 -17t18 -43zM45 358q0 159 110.5 269t267.5 110q156 0 265 -109t109 -266q0 -159 -110.5 -269t-267.5 -110t-265.5 108
t-108.5 267zM76 360q0 -147 99.5 -247.5t245.5 -100.5q143 0 244 101.5t101 246.5q0 147 -99.5 247.5t-245.5 100.5q-143 0 -244 -101.5t-101 -246.5zM117 360q0 133 87 222.5t217 89.5t217 -89.5t87 -222.5t-87 -222.5t-217 -89.5t-217 89.5t-87 222.5zM147 362
q0 -122 79 -203t197 -81q115 0 193.5 81t78.5 199q0 122 -79 203t-197 81q-115 0 -193.5 -81.5t-78.5 -198.5z" />
    <glyph glyph-name="Oslash.alt" 
d="M45 358q0 159 110.5 269t267.5 110q136 0 239 -86q135 -114 135 -289q0 -159 -110.5 -269t-267.5 -110q-136 0 -239 86q-135 114 -135 289zM76 360q0 -82 34.5 -151.5t89.5 -115.5q97 -81 221 -81q143 0 244 101.5t101 246.5q0 82 -34.5 151.5t-89.5 115.5
q-97 81 -221 81q-143 0 -244 -101.5t-101 -246.5zM235 109l397 480l20 -23q73 -87 73 -206q0 -133 -87 -222.5t-217 -89.5q-90 0 -161 45zM604 611l-396 -479q-19 19 -22 25q-69 83 -69 203q0 133 87 222.5t217 89.5q84 0 157 -43zM695 358q0 111 -63 186l-353 -427
q63 -39 144 -39q115 0 193.5 81t78.5 199zM147 362q0 -111 60 -184l354 426q-61 38 -142 38q-115 0 -193.5 -81.5t-78.5 -198.5z" />
    <glyph glyph-name="Oslashacute.alt" 
d="M45 358q0 159 110.5 269t267.5 110q136 0 239 -86q135 -114 135 -289q0 -159 -110.5 -269t-267.5 -110q-136 0 -239 86q-135 114 -135 289zM76 360q0 -82 34.5 -151.5t89.5 -115.5q97 -81 221 -81q143 0 244 101.5t101 246.5q0 82 -34.5 151.5t-89.5 115.5
q-97 81 -221 81q-143 0 -244 -101.5t-101 -246.5zM235 109l397 480l20 -23q73 -87 73 -206q0 -133 -87 -222.5t-217 -89.5q-90 0 -161 45zM604 611l-396 -479q-19 19 -22 25q-69 83 -69 203q0 133 87 222.5t217 89.5q84 0 157 -43zM695 358q0 111 -63 186l-353 -427
q63 -39 144 -39q115 0 193.5 81t78.5 199zM147 362q0 -111 60 -184l354 426q-61 38 -142 38q-115 0 -193.5 -81.5t-78.5 -198.5zM402 779l-13 17l176 111l23 -24zM519 953l25 -22l-170 -118l-14 17z" />
    <glyph glyph-name="Scedilla.alt" horiz-adv-x="514" 
d="M169 -205l-14 15l164 100l19 -23zM277 -44l20 -23l-156 -106l-13 15zM54 98l9 29q96 -48 170 -48q60 0 97 31.5t37 81.5q0 44 -30 79t-107 83q-86 54 -122 101.5t-36 102.5q0 73 55.5 124t147.5 51q79 0 157 -39l-9 -28q-76 38 -149 38q-77 0 -124.5 -42.5t-47.5 -103.5
q0 -47 32 -89t113 -92q88 -55 119 -93.5t31 -91.5q0 -62 -45 -101.5t-120 -39.5q-87 0 -178 47zM36 36l8 29q95 -48 187 -48t148.5 51t56.5 126q0 64 -36.5 109t-132.5 104q-73 46 -99.5 79.5t-26.5 72.5q0 47 33.5 79t98.5 32q67 0 141 -37l-9 -28q-73 37 -133 37
q-50 0 -75.5 -23.5t-25.5 -59.5q0 -31 24.5 -58.5t88.5 -68.5q96 -60 139 -113t43 -125q0 -86 -65.5 -146t-170.5 -60q-99 0 -194 48z" />
    <glyph glyph-name="Udieresis.alt" horiz-adv-x="640" 
d="M353 674q0 14 -9 23.5t-24 9.5q-14 0 -23.5 -9.5t-9.5 -23.5t9.5 -23.5t23.5 -9.5q15 0 24 9.5t9 23.5zM379 674q0 -26 -17 -42t-42 -16q-24 0 -41.5 16.5t-17.5 41.5t17.5 41.5t41.5 16.5q25 0 42 -16t17 -42zM353 520q0 14 -9 23.5t-24 9.5q-14 0 -23.5 -9.5
t-9.5 -23.5t9.5 -23.5t23.5 -9.5q15 0 24 9.5t9 23.5zM379 520q0 -26 -17 -42t-42 -16q-24 0 -41.5 16.5t-17.5 41.5t17.5 41.5t41.5 16.5q25 0 42 -16t17 -42zM559 720v-479q0 -110 -65.5 -183t-175.5 -73q-109 0 -173 73.5t-64 181.5v480h30v-477q0 -100 56.5 -164.5
t152.5 -64.5t152.5 64t56.5 165v477h30zM461 720h30v-475q0 -89 -45.5 -142t-125.5 -53q-81 0 -126 53.5t-45 142.5v474h30v-472q0 -78 37.5 -123.5t104.5 -45.5q65 0 102.5 45t37.5 123v473z" />
    <glyph glyph-name="Uring.alt" horiz-adv-x="640" 
d="M221 637q0 45 29 70.5t70 25.5q40 0 69.5 -25.5t29.5 -70.5q0 -43 -28.5 -70t-71.5 -26t-70.5 27.5t-27.5 68.5zM319 564q30 0 52.5 20.5t22.5 52.5q0 33 -22.5 53t-51.5 20q-30 0 -52 -20t-22 -53q0 -31 22 -52t51 -21zM341 637q0 8 -6 14.5t-15 6.5t-15 -6.5t-6 -14.5
q0 -9 6 -16t15 -7t15 7t6 16zM364 637q0 -20 -12.5 -32.5t-31.5 -12.5t-31.5 12.5t-12.5 32.5t12.5 32t31.5 12t31.5 -12t12.5 -32zM559 720v-479q0 -110 -65.5 -183t-175.5 -73q-109 0 -173 73.5t-64 181.5v480h30v-477q0 -100 56.5 -164.5t152.5 -64.5t152.5 64t56.5 165
v477h30zM461 720h30v-475q0 -89 -45.5 -142t-125.5 -53q-81 0 -126 53.5t-45 142.5v474h30v-472q0 -78 37.5 -123.5t104.5 -45.5q65 0 102.5 45t37.5 123v473z" />
    <glyph glyph-name="colon.alt" horiz-adv-x="284" 
d="M181 519q0 17 -10.5 28.5t-28.5 11.5t-28.5 -11.5t-10.5 -28.5t10.5 -28t28.5 -11t28.5 11t10.5 28zM209 519q0 -28 -19.5 -47t-47.5 -19t-47.5 19t-19.5 47t19.5 47.5t47.5 19.5t47.5 -19.5t19.5 -47.5zM181 211q0 17 -10.5 28.5t-28.5 11.5t-28.5 -11.5t-10.5 -28.5
t10.5 -28t28.5 -11t28.5 11t10.5 28zM209 211q0 -28 -19.5 -47t-47.5 -19t-47.5 19t-19.5 47t19.5 47.5t47.5 19.5t47.5 -19.5t19.5 -47.5z" />
    <glyph glyph-name="quotedblleft.alt" horiz-adv-x="412" 
d="M285 720h25l-69 -229h-32zM311 491h-31l63 229h24zM118 720h25l-69 -229h-32zM144 491h-31l63 229h24z" />
    <glyph glyph-name="quoteleft.alt" horiz-adv-x="245" 
d="M118 720h25l-69 -229h-32zM144 491h-31l63 229h24z" />
    <glyph glyph-name="registered.alt" horiz-adv-x="868" 
d="M587 141l-162 133q60 4 105 43.5t45 98.5q0 57 -44.5 96t-110.5 39h-79v-410h-27v438h106q80 0 131 -47.5t51 -115.5q0 -57 -34.5 -100t-87.5 -55l145 -120h-38zM513 415q0 36 -29 58t-66 22h-17v-169h16q35 0 65.5 24.5t30.5 64.5zM542 415q0 -50 -39 -83t-92 -33h-38
v224h45q52 0 88 -32t36 -76zM541 141h-41l-100 84v-84h-27v135h8zM820 362q0 -158 -112.5 -268t-274.5 -110q-163 0 -274 108.5t-111 266.5t112.5 268t274.5 110q163 0 274 -108.5t111 -266.5zM789 359q0 150 -102.5 249.5t-253.5 99.5q-150 0 -252 -99.5t-102 -246.5
q0 -150 102.5 -250t253.5 -100q149 0 251.5 100t102.5 247z" />
    <glyph glyph-name="hfjslug" horiz-adv-x="654" 
d="M624 -200h-208l-8 14h-163l-8 -14h-207v303q14 0 23 9.5t9 22.5t-9.5 22.5t-22.5 9.5v554h100l30 79h334l29 -79h101v-921zM380 563v-172h15v78h38v14h-38v66h43v14h-58zM164 563v-172h15v79h47v-79h15v172h-15v-79h-47v79h-15zM440 394q10 -4 21 -4q31 0 31 36v137h-16
v-137q0 -22 -16 -22q-8 0 -20 5v-15zM351 465l-13 3q-4 -18 -8 -30h-1l-16 31q23 21 23 42q0 31 -27 31q-12 0 -20 -9t-8 -22t14 -39q-23 -18 -23 -47q0 -16 8 -26.5t21 -10.5q19 0 29 24h1l12 -24l12 6l-17 32q6 14 13 39zM503 323v-46h8v12l8 8l15 -20h10l-20 26l18 20
h-10l-20 -24h-1v24h-8zM468 292l10 -15h9l-12 17q10 4 10 14q0 15 -17 15h-20v-46h8v15h12zM406 276q10 0 17 7t7 17q0 9 -7 16.5t-17 7.5t-17 -7.5t-7 -16.5q0 -10 7 -17t17 -7zM350 301l-13 22h-9l18 -29v-17h8v17l18 29h-9zM173 323v-46h34v7h-26v13h23v7h-23v12h26v7
h-34zM112 323v-46h8v32l25 -32h7v46h-8v-32l-25 32h-7zM221 323l14 -47h8l11 34h1l11 -34h8l14 47h-8l-10 -35h-1l-11 35h-7l-11 -35h-1l-10 35h-8zM307 479q-12 22 -12 32q0 19 14 19q13 0 13 -19q0 -15 -15 -32zM322 423q-8 -21 -20 -21q-16 0 -16 25q0 19 16 35zM467 299
h-11v17h11q10 0 10 -8q0 -9 -10 -9zM406 283q-16 0 -16 17q0 6 4.5 11.5t11.5 5.5t11.5 -5.5t4.5 -11.5q0 -17 -16 -17z" />
    <glyph glyph-name="adieresis.alt" horiz-adv-x="658" 
d="M192 693q0 14 -10 24.5t-25 10.5q-14 0 -24.5 -10.5t-10.5 -24.5t10.5 -24.5t24.5 -10.5q15 0 25 10.5t10 24.5zM218 693q0 -26 -18 -43t-43 -17q-24 0 -42.5 17t-18.5 43t18.5 43t42.5 17q25 0 43 -17t18 -43zM540 693q0 14 -10.5 24.5t-24.5 10.5q-15 0 -25 -10.5
t-10 -24.5t10 -24.5t25 -10.5q14 0 24.5 10.5t10.5 24.5zM566 693q0 -26 -18.5 -43t-42.5 -17q-25 0 -43 17t-18 43t18 43t43 17q24 0 42.5 -17t18.5 -43zM331 695l-274 -695h-32l294 736h28l286 -736h-32l-266 695h-4zM333 602l154 -405h-316zM179 135l-50 -135h-32l61 163
h342l61 -163h-32l-50 135h-300zM446 225l-113 302l-121 -302h234z" />
    <glyph glyph-name="aring.alt" horiz-adv-x="658" 
d="M171 197l141 365q12 -2 21 -2t21 2l133 -365h-316zM179 135l-50 -135h-32l61 163h342l61 -163h-32l-50 135h-300zM362 646q0 12 -8 21.5t-21 9.5t-21 -9.5t-8 -21.5t8 -21t21 -9t21 9t8 21zM389 646q0 -25 -17 -40t-39 -15q-23 0 -39.5 15t-16.5 40t16.5 40t39.5 15
t39.5 -15t16.5 -40zM601 0l-215 579q36 26 36 69q0 37 -27 61.5t-62 24.5t-62 -24t-27 -62q0 -42 35 -69l-222 -579h-32l222 575q-31 27 -31 73q0 50 36 80.5t81 30.5t81 -30.5t36 -80.5q0 -26 -11 -45.5t-21 -27.5l215 -575h-32zM446 225l-111 309h-3l-120 -309h234z" />
    <glyph glyph-name="aringacute.alt" horiz-adv-x="658" 
d="M316 799l-16 17l154 104l21 -22zM410 964l23 -20l-148 -113l-16 17zM171 197l141 365q12 -2 21 -2t21 2l133 -365h-316zM179 135l-50 -135h-32l61 163h342l61 -163h-32l-50 135h-300zM362 646q0 12 -8 21.5t-21 9.5t-21 -9.5t-8 -21.5t8 -21t21 -9t21 9t8 21zM389 646
q0 -25 -17 -40t-39 -15q-23 0 -39.5 15t-16.5 40t16.5 40t39.5 15t39.5 -15t16.5 -40zM601 0l-215 579q36 26 36 69q0 37 -27 61.5t-62 24.5t-62 -24t-27 -62q0 -42 35 -69l-222 -579h-32l222 575q-31 27 -31 73q0 50 36 80.5t81 30.5t81 -30.5t36 -80.5q0 -26 -11 -45.5
t-21 -27.5l215 -575h-32zM446 225l-111 309h-3l-120 -309h234z" />
    <glyph glyph-name="ccedilla.alt" horiz-adv-x="708" 
d="M304 -205l-14 15l164 100l19 -23zM412 -44l20 -23l-156 -106l-13 15zM651 85l6 -29q-121 -73 -241 -73q-158 0 -264.5 107.5t-106.5 267.5q0 163 110.5 271t264.5 108q131 0 235 -72l-11 -30q-108 73 -226 73q-135 0 -238.5 -99t-103.5 -249q0 -147 97.5 -247.5
t244.5 -100.5q120 0 233 73zM637 149l7 -30q-120 -71 -226 -71q-131 0 -216 88.5t-85 223.5q0 138 87.5 225t213.5 87q118 0 215 -74l-12 -29q-40 32 -96.5 53t-108.5 21q-110 0 -189 -78.5t-79 -202.5q0 -123 76 -204t196 -81q102 0 217 72z" />
    <glyph glyph-name="ntilde.alt" horiz-adv-x="670" 
d="M466 875v-25h-282v25h282zM466 795h-282v25h282v-25zM576 -9h-35l-353 500l1 -491h-29v577l383 -543h4v686h29v-729zM94 0v729h36l352 -498l-1 489h29v-576l-382 542h-5v-686h-29z" />
    <glyph glyph-name="odieresis.alt" 
d="M94 697q0 14 -10 24.5t-25 10.5q-14 0 -24.5 -10.5t-10.5 -24.5t10.5 -24.5t24.5 -10.5q15 0 25 10.5t10 24.5zM120 697q0 -26 -18 -43t-43 -17q-24 0 -42.5 17t-18.5 43t18.5 43t42.5 17q25 0 43 -17t18 -43zM816 697q0 14 -10 24.5t-25 10.5q-14 0 -24.5 -10.5
t-10.5 -24.5t10.5 -24.5t24.5 -10.5q15 0 25 10.5t10 24.5zM842 697q0 -26 -18 -43t-43 -17q-24 0 -42.5 17t-18.5 43t18.5 43t42.5 17q25 0 43 -17t18 -43zM45 358q0 159 110.5 269t267.5 110q156 0 265 -109t109 -266q0 -159 -110.5 -269t-267.5 -110t-265.5 108
t-108.5 267zM76 360q0 -147 99.5 -247.5t245.5 -100.5q143 0 244 101.5t101 246.5q0 147 -99.5 247.5t-245.5 100.5q-143 0 -244 -101.5t-101 -246.5zM117 360q0 133 87 222.5t217 89.5t217 -89.5t87 -222.5t-87 -222.5t-217 -89.5t-217 89.5t-87 222.5zM147 362
q0 -122 79 -203t197 -81q115 0 193.5 81t78.5 199q0 122 -79 203t-197 81q-115 0 -193.5 -81.5t-78.5 -198.5z" />
    <glyph glyph-name="oslash.alt" 
d="M45 358q0 159 110.5 269t267.5 110q136 0 239 -86q135 -114 135 -289q0 -159 -110.5 -269t-267.5 -110q-136 0 -239 86q-135 114 -135 289zM76 360q0 -82 34.5 -151.5t89.5 -115.5q97 -81 221 -81q143 0 244 101.5t101 246.5q0 82 -34.5 151.5t-89.5 115.5
q-97 81 -221 81q-143 0 -244 -101.5t-101 -246.5zM235 109l397 480l20 -23q73 -87 73 -206q0 -133 -87 -222.5t-217 -89.5q-90 0 -161 45zM604 611l-396 -479q-19 19 -22 25q-69 83 -69 203q0 133 87 222.5t217 89.5q84 0 157 -43zM695 358q0 111 -63 186l-353 -427
q63 -39 144 -39q115 0 193.5 81t78.5 199zM147 362q0 -111 60 -184l354 426q-61 38 -142 38q-115 0 -193.5 -81.5t-78.5 -198.5z" />
    <glyph glyph-name="oslashacute.alt" 
d="M402 779l-13 17l176 111l23 -24zM519 953l25 -22l-170 -118l-14 17zM45 358q0 159 110.5 269t267.5 110q136 0 239 -86q135 -114 135 -289q0 -159 -110.5 -269t-267.5 -110q-136 0 -239 86q-135 114 -135 289zM76 360q0 -82 34.5 -151.5t89.5 -115.5q97 -81 221 -81
q143 0 244 101.5t101 246.5q0 82 -34.5 151.5t-89.5 115.5q-97 81 -221 81q-143 0 -244 -101.5t-101 -246.5zM235 109l397 480l20 -23q73 -87 73 -206q0 -133 -87 -222.5t-217 -89.5q-90 0 -161 45zM604 611l-396 -479q-19 19 -22 25q-69 83 -69 203q0 133 87 222.5
t217 89.5q84 0 157 -43zM695 358q0 111 -63 186l-353 -427q63 -39 144 -39q115 0 193.5 81t78.5 199zM147 362q0 -111 60 -184l354 426q-61 38 -142 38q-115 0 -193.5 -81.5t-78.5 -198.5z" />
    <glyph glyph-name="scedilla.alt" horiz-adv-x="514" 
d="M169 -205l-14 15l164 100l19 -23zM277 -44l20 -23l-156 -106l-13 15zM54 98l9 29q96 -48 170 -48q60 0 97 31.5t37 81.5q0 44 -30 79t-107 83q-86 54 -122 101.5t-36 102.5q0 73 55.5 124t147.5 51q79 0 157 -39l-9 -28q-76 38 -149 38q-77 0 -124.5 -42.5t-47.5 -103.5
q0 -47 32 -89t113 -92q88 -55 119 -93.5t31 -91.5q0 -62 -45 -101.5t-120 -39.5q-87 0 -178 47zM36 36l8 29q95 -48 187 -48t148.5 51t56.5 126q0 64 -36.5 109t-132.5 104q-73 46 -99.5 79.5t-26.5 72.5q0 47 33.5 79t98.5 32q67 0 141 -37l-9 -28q-73 37 -133 37
q-50 0 -75.5 -23.5t-25.5 -59.5q0 -31 24.5 -58.5t88.5 -68.5q96 -60 139 -113t43 -125q0 -86 -65.5 -146t-170.5 -60q-99 0 -194 48z" />
    <glyph glyph-name="udieresis.alt" horiz-adv-x="640" 
d="M353 674q0 14 -9 23.5t-24 9.5q-14 0 -23.5 -9.5t-9.5 -23.5t9.5 -23.5t23.5 -9.5q15 0 24 9.5t9 23.5zM379 674q0 -26 -17 -42t-42 -16q-24 0 -41.5 16.5t-17.5 41.5t17.5 41.5t41.5 16.5q25 0 42 -16t17 -42zM353 520q0 14 -9 23.5t-24 9.5q-14 0 -23.5 -9.5
t-9.5 -23.5t9.5 -23.5t23.5 -9.5q15 0 24 9.5t9 23.5zM379 520q0 -26 -17 -42t-42 -16q-24 0 -41.5 16.5t-17.5 41.5t17.5 41.5t41.5 16.5q25 0 42 -16t17 -42zM559 720v-479q0 -110 -65.5 -183t-175.5 -73q-109 0 -173 73.5t-64 181.5v480h30v-477q0 -100 56.5 -164.5
t152.5 -64.5t152.5 64t56.5 165v477h30zM461 720h30v-475q0 -89 -45.5 -142t-125.5 -53q-81 0 -126 53.5t-45 142.5v474h30v-472q0 -78 37.5 -123.5t104.5 -45.5q65 0 102.5 45t37.5 123v473z" />
    <glyph glyph-name="uring.alt" horiz-adv-x="640" 
d="M221 637q0 45 29 70.5t70 25.5q40 0 69.5 -25.5t29.5 -70.5q0 -43 -28.5 -70t-71.5 -26t-70.5 27.5t-27.5 68.5zM319 564q30 0 52.5 20.5t22.5 52.5q0 33 -22.5 53t-51.5 20q-30 0 -52 -20t-22 -53q0 -31 22 -52t51 -21zM341 637q0 8 -6 14.5t-15 6.5t-15 -6.5t-6 -14.5
q0 -9 6 -16t15 -7t15 7t6 16zM364 637q0 -20 -12.5 -32.5t-31.5 -12.5t-31.5 12.5t-12.5 32.5t12.5 32t31.5 12t31.5 -12t12.5 -32zM559 720v-479q0 -110 -65.5 -183t-175.5 -73q-109 0 -173 73.5t-64 181.5v480h30v-477q0 -100 56.5 -164.5t152.5 -64.5t152.5 64t56.5 165
v477h30zM461 720h30v-475q0 -89 -45.5 -142t-125.5 -53q-81 0 -126 53.5t-45 142.5v474h30v-472q0 -78 37.5 -123.5t104.5 -45.5q65 0 102.5 45t37.5 123v473z" />
    <glyph glyph-name="i.dot" horiz-adv-x="290" 
d="M126 720v-720h-30v720h30zM194 0h-30v720h30v-720zM185 832q0 17 -10.5 28.5t-28.5 11.5t-28.5 -11.5t-10.5 -28.5t10.5 -28t28.5 -11t28.5 11t10.5 28zM213 832q0 -28 -19.5 -47t-47.5 -19t-47.5 19t-19.5 47t19.5 47.5t47.5 19.5t47.5 -19.5t19.5 -47.5z" />
    <glyph glyph-name="caron.alt" horiz-adv-x="532" 
d="M292 571h-23l28 188h30zM230 759h30l-23 -188h-22z" />
    <glyph glyph-name="NUL" horiz-adv-x="0" 
 />
    </font>
</defs>
</svg>
